<svg width="36" height="24" viewBox="0 0 36 24" fill="none" xmlns="http://www.w3.org/2000/svg">
<rect width="36" height="24" rx="4" fill="url(#paint0_linear)"/>
<path fill-rule="evenodd" clip-rule="evenodd" d="M18.5086 6.15966C18.2043 5.94678 17.7957 5.94678 17.4914 6.15966L11.3665 10.4454C11.057 10.6619 10.9257 11.0496 11.0418 11.4044C11.1579 11.7593 11.4947 12 11.8751 12H13.625V16.2857H11.8751C11.3918 16.2857 11.0001 16.6695 11.0001 17.1429C11.0001 17.6162 11.3918 18 11.8751 18H14.5H21.5H24.1249C24.6082 18 24.9999 17.6162 24.9999 17.1429C24.9999 16.6695 24.6082 16.2857 24.1249 16.2857H22.375V12H24.1249C24.5053 12 24.8421 11.7593 24.9582 11.4044C25.0743 11.0496 24.943 10.6619 24.6335 10.4454L18.5086 6.15966ZM20.625 16.2857V12H15.375V16.2857H20.625ZM18 7.91049L21.3946 10.2857H14.6054L18 7.91049Z" fill="white"/>
<defs>
<linearGradient id="paint0_linear" x1="36" y1="12" x2="9.83477e-07" y2="12" gradientUnits="userSpaceOnUse">
<stop stop-color="#01D09E"/>
<stop offset="1" stop-color="#03E4AE"/>
</linearGradient>
</defs>
</svg>
