<?xml version="1.0" encoding="UTF-8"?> <svg xmlns="http://www.w3.org/2000/svg" width="139" height="34" viewBox="0 0 139 34" fill="none"> <g style="mix-blend-mode:multiply"> <path d="M28.3295 25.6071L12.8901 16.9883L0 24.7094L14.4009 34.0001L28.3295 25.6071Z" fill="#1C2260"></path> </g> <path d="M27.8221 8.07612L14.4831 0L0.108643 9.35516V24.7095L27.8221 8.07612Z" fill="#5C6AC4"></path> <path d="M37.1712 22.8551C35.905 22.1887 34.8472 21.1858 34.1144 19.9568C33.3654 18.6893 32.9807 17.2397 33.0026 15.7676C32.9818 14.2975 33.3664 12.8501 34.1144 11.5844C34.8489 10.3567 35.9062 9.35411 37.1712 8.68598C38.517 7.97815 40.0189 7.61908 41.5393 7.64163C42.8076 7.62286 44.066 7.86656 45.2356 8.35742C46.3086 8.8138 47.2586 9.51745 48.0078 10.4109L45.661 12.5671C45.1826 11.9826 44.5787 11.5134 43.8941 11.1945C43.2094 10.8755 42.4617 10.715 41.7065 10.7248C40.7975 10.7091 39.8999 10.9295 39.1015 11.3643C38.3505 11.7809 37.7315 12.3999 37.3149 13.1509C36.8801 13.9493 36.6598 14.8469 36.6754 15.7559C36.6598 16.6649 36.8801 17.5625 37.3149 18.3609C37.7299 19.1131 38.3493 19.7325 39.1015 20.1474C39.8991 20.5846 40.7971 20.806 41.7065 20.7899C42.4641 20.7997 43.2139 20.6368 43.8991 20.3135C44.5843 19.9902 45.1868 19.5151 45.661 18.9241L48.0078 21.0803C47.2636 21.9927 46.3079 22.7096 45.2239 23.169C44.052 23.668 42.7894 23.9187 41.5158 23.9054C40.0023 23.9262 38.5081 23.565 37.1712 22.8551Z" fill="#2A2B31"></path> <path d="M61.6344 12.7137C62.5516 13.6113 63.0112 14.9442 63.0132 16.7121V23.6295H59.5105V17.2519C59.5105 16.2926 59.2993 15.5768 58.8827 15.1045C58.6489 14.8611 58.3647 14.6718 58.05 14.5496C57.7353 14.4275 57.3978 14.3756 57.061 14.3975C56.671 14.3789 56.2815 14.4423 55.9176 14.5838C55.5538 14.7253 55.2237 14.9417 54.9488 15.2189C54.4266 15.7646 54.1626 16.5772 54.1626 17.6538V23.6295H50.6599V6.96387H54.1626V12.8017C54.6417 12.3295 55.2171 11.9663 55.8494 11.7368C56.5398 11.4836 57.2703 11.3573 58.0056 11.3642C59.5017 11.3642 60.7113 11.814 61.6344 12.7137Z" fill="#2A2B31"></path> <path d="M78.5376 18.5749H69.3936C69.5438 19.2908 69.9641 19.9212 70.5671 20.3351C71.2429 20.7886 72.0449 21.0166 72.8582 20.9863C73.4289 20.9974 73.9968 20.903 74.5333 20.7076C75.0405 20.5085 75.5025 20.2092 75.8915 19.8276L77.7397 21.8517C76.6014 23.1562 74.9391 23.8084 72.7526 23.8084C71.5058 23.8359 70.2702 23.5675 69.1472 23.0252C68.1445 22.5337 67.3029 21.7664 66.7212 20.8132C66.1422 19.8379 65.8466 18.7204 65.8675 17.5863C65.8524 16.4619 66.1434 15.3545 66.7094 14.3829C67.261 13.4452 68.0623 12.6794 69.024 12.1709C70.0284 11.6522 71.1415 11.3787 72.272 11.3731C73.4025 11.3675 74.5182 11.6299 75.5277 12.1387C76.4741 12.6367 77.2572 13.3963 77.7837 14.3271C78.3471 15.3395 78.6306 16.4837 78.6051 17.6421C78.6197 17.6773 78.5816 17.9912 78.5376 18.5749ZM70.3236 14.6909C69.7736 15.1584 69.4205 15.8164 69.335 16.5332H75.2872C75.1966 15.8213 74.8442 15.1687 74.2986 14.7026C73.7455 14.2399 73.0422 13.9957 72.3213 14.0162C71.6008 13.9961 70.897 14.2356 70.3383 14.6909H70.3236Z" fill="#2A2B31"></path> <path d="M83.7593 23.0252C82.768 22.5261 81.9359 21.76 81.3567 20.8133C80.77 19.8407 80.47 18.7221 80.4913 17.5864C80.4703 16.4507 80.7703 15.3322 81.3567 14.3595C81.9393 13.4214 82.7711 12.6638 83.7593 12.171C84.8344 11.628 86.0254 11.3542 87.2297 11.3731C88.3918 11.3465 89.5409 11.6215 90.5652 12.171C91.4931 12.6778 92.2252 13.4801 92.6451 14.4504L89.9257 15.9172C89.2979 14.8083 88.3914 14.2539 87.2062 14.2539C86.7868 14.2414 86.3693 14.3149 85.9793 14.4698C85.5894 14.6247 85.2352 14.8577 84.9386 15.1545C84.6308 15.4806 84.3925 15.866 84.2382 16.287C84.0839 16.7081 84.0167 17.1562 84.0409 17.604C84.017 18.0514 84.0842 18.4989 84.2385 18.9195C84.3928 19.3401 84.631 19.7249 84.9386 20.0506C85.2353 20.347 85.5896 20.5795 85.9796 20.7339C86.3696 20.8883 86.787 20.9612 87.2062 20.9483C87.7713 20.9629 88.3286 20.814 88.811 20.5195C89.2935 20.2249 89.6805 19.7972 89.9257 19.2879L92.6451 20.7693C92.2137 21.724 91.4838 22.5127 90.5652 23.0164C89.5436 23.5741 88.3933 23.8533 87.2297 23.8261C86.0251 23.8441 84.8342 23.5692 83.7593 23.0252V23.0252Z" fill="#2A2B31"></path> <path d="M100.214 18.8918L98.5298 20.5522V23.6295H95.0242V6.96387H98.5298V16.3982L103.652 11.5461H107.829L102.798 16.6681L108.278 23.6295H104.033L100.214 18.8918Z" fill="#2A2B31"></path> <path d="M110.39 9.29907C110.198 9.12113 110.045 8.90553 109.941 8.66576C109.836 8.42599 109.782 8.16721 109.782 7.90562C109.782 7.64403 109.836 7.38525 109.941 7.14548C110.045 6.90571 110.198 6.69011 110.39 6.51217C110.822 6.12884 111.386 5.92797 111.963 5.95186C112.534 5.92862 113.093 6.12132 113.529 6.49164C113.724 6.65698 113.879 6.86358 113.984 7.09648C114.089 7.32937 114.141 7.58272 114.136 7.83815C114.144 8.10898 114.094 8.37831 113.989 8.6282C113.884 8.87808 113.727 9.10278 113.529 9.28733C113.087 9.65317 112.531 9.85333 111.957 9.85333C111.383 9.85333 110.827 9.65317 110.384 9.28733L110.39 9.29907ZM110.211 11.5462H113.714V23.6296H110.211V11.5462Z" fill="#2A2B31"></path> <path d="M121.262 11.8161H124.363V14.5179H121.353V23.6296H117.847V14.5179H115.985V11.8161H117.847V11.291C117.847 9.91219 118.255 8.81895 119.071 8.01124C119.886 7.20353 121.036 6.79869 122.521 6.79674C123.023 6.7938 123.525 6.85092 124.014 6.96689C124.43 7.05719 124.827 7.22004 125.187 7.44799L124.266 9.98847C123.852 9.70018 123.357 9.55027 122.852 9.56016C121.788 9.56016 121.256 10.1469 121.256 11.3203L121.262 11.8161Z" fill="#2A2B31"></path> <path d="M138.784 11.5462L133.325 24.3718C132.769 25.7662 132.085 26.744 131.271 27.3053C130.4 27.891 129.367 28.1895 128.317 28.159C127.685 28.1574 127.057 28.0584 126.454 27.8656C125.902 27.7037 125.389 27.4279 124.949 27.056L126.229 24.5624C126.503 24.8046 126.819 24.9945 127.161 25.1227C127.494 25.2539 127.848 25.3225 128.206 25.3252C128.625 25.3459 129.038 25.2238 129.379 24.979C129.74 24.6588 130.017 24.2562 130.189 23.8056L130.233 23.6941L124.999 11.5198H128.608L132.011 19.7455L135.414 11.5462H138.784Z" fill="#2A2B31"></path> </svg> 