<?xml version="1.0" encoding="UTF-8"?>
<svg xmlns="http://www.w3.org/2000/svg" xmlns:xlink="http://www.w3.org/1999/xlink" width="28px" height="15px" viewBox="0 0 28 15" version="1.1">
<g id="surface1">
<path style=" stroke:none;fill-rule:nonzero;fill:rgb(100%,100%,100%);fill-opacity:1;" d="M 20.550781 0 L 7.464844 0 C 3.371094 0 0.0273438 3.375 0.0273438 7.5 C 0.0273438 11.625 3.371094 15 7.464844 15 L 20.550781 15 C 24.640625 15 27.988281 11.625 27.988281 7.5 C 27.988281 3.375 24.640625 0 20.550781 0 Z M 20.550781 0 "/>
<path style=" stroke:none;fill-rule:nonzero;fill:rgb(23.529412%,25.098039%,26.27451%);fill-opacity:1;" d="M 20.550781 0.609375 C 21.46875 0.609375 22.363281 0.792969 23.203125 1.152344 C 24.015625 1.5 24.746094 2 25.378906 2.632812 C 26.007812 3.265625 26.5 4.003906 26.847656 4.828125 C 27.203125 5.671875 27.386719 6.574219 27.386719 7.5 C 27.386719 8.425781 27.203125 9.328125 26.847656 10.171875 C 26.5 10.996094 26.007812 11.730469 25.378906 12.367188 C 24.75 13 24.015625 13.5 23.203125 13.847656 C 22.363281 14.207031 21.46875 14.390625 20.550781 14.390625 L 7.464844 14.390625 C 6.542969 14.390625 5.652344 14.207031 4.8125 13.847656 C 3.996094 13.5 3.269531 13 2.636719 12.367188 C 2.007812 11.734375 1.511719 10.996094 1.167969 10.171875 C 0.8125 9.328125 0.628906 8.425781 0.628906 7.5 C 0.628906 6.574219 0.8125 5.671875 1.167969 4.828125 C 1.511719 4.003906 2.007812 3.269531 2.636719 2.632812 C 3.265625 2 3.996094 1.5 4.8125 1.152344 C 5.652344 0.792969 6.542969 0.609375 7.464844 0.609375 Z M 20.550781 0 L 7.464844 0 C 3.371094 0 0.0273438 3.375 0.0273438 7.5 C 0.0273438 11.625 3.371094 15 7.464844 15 L 20.550781 15 C 24.640625 15 27.988281 11.625 27.988281 7.5 C 27.988281 3.375 24.640625 0 20.550781 0 Z M 20.550781 0 "/>
<path style=" stroke:none;fill-rule:nonzero;fill:rgb(23.529412%,25.098039%,26.27451%);fill-opacity:1;" d="M 13.359375 8.03125 L 13.359375 10.300781 L 12.644531 10.300781 L 12.644531 4.699219 L 14.539062 4.699219 C 15.019531 4.699219 15.429688 4.859375 15.761719 5.183594 C 16.105469 5.503906 16.277344 5.898438 16.277344 6.363281 C 16.277344 6.839844 16.105469 7.234375 15.761719 7.550781 C 15.429688 7.871094 15.023438 8.027344 14.539062 8.027344 L 13.359375 8.027344 Z M 13.359375 5.390625 L 13.359375 7.34375 L 14.554688 7.34375 C 14.835938 7.34375 15.074219 7.246094 15.261719 7.054688 C 15.449219 6.863281 15.546875 6.628906 15.546875 6.367188 C 15.546875 6.109375 15.449219 5.878906 15.261719 5.6875 C 15.074219 5.488281 14.839844 5.390625 14.554688 5.390625 Z M 13.359375 5.390625 "/>
<path style=" stroke:none;fill-rule:nonzero;fill:rgb(23.529412%,25.098039%,26.27451%);fill-opacity:1;" d="M 18.140625 6.339844 C 18.671875 6.339844 19.085938 6.484375 19.390625 6.769531 C 19.695312 7.054688 19.847656 7.445312 19.847656 7.9375 L 19.847656 10.300781 L 19.167969 10.300781 L 19.167969 9.769531 L 19.140625 9.769531 C 18.84375 10.207031 18.449219 10.425781 17.960938 10.425781 C 17.539062 10.425781 17.191406 10.300781 16.90625 10.050781 C 16.625 9.796875 16.484375 9.488281 16.484375 9.113281 C 16.484375 8.714844 16.632812 8.398438 16.929688 8.167969 C 17.226562 7.929688 17.625 7.816406 18.121094 7.816406 C 18.542969 7.816406 18.894531 7.894531 19.164062 8.050781 L 19.164062 7.886719 C 19.164062 7.636719 19.066406 7.425781 18.871094 7.25 C 18.675781 7.074219 18.445312 6.984375 18.179688 6.984375 C 17.78125 6.984375 17.464844 7.15625 17.234375 7.496094 L 16.605469 7.097656 C 16.953125 6.59375 17.464844 6.339844 18.140625 6.339844 Z M 17.21875 9.125 C 17.21875 9.3125 17.296875 9.46875 17.457031 9.59375 C 17.613281 9.714844 17.800781 9.78125 18.011719 9.78125 C 18.3125 9.78125 18.582031 9.667969 18.816406 9.441406 C 19.050781 9.21875 19.167969 8.953125 19.167969 8.652344 C 18.945312 8.476562 18.636719 8.386719 18.238281 8.386719 C 17.949219 8.386719 17.707031 8.457031 17.515625 8.59375 C 17.316406 8.742188 17.21875 8.917969 17.21875 9.125 Z M 17.21875 9.125 "/>
<path style=" stroke:none;fill-rule:nonzero;fill:rgb(23.529412%,25.098039%,26.27451%);fill-opacity:1;" d="M 23.730469 6.464844 L 21.351562 11.984375 L 20.613281 11.984375 L 21.5 10.054688 L 19.929688 6.464844 L 20.707031 6.464844 L 21.839844 9.21875 L 21.851562 9.21875 L 22.953125 6.464844 Z M 23.730469 6.464844 "/>
<path style=" stroke:none;fill-rule:nonzero;fill:rgb(25.882353%,52.156863%,95.686275%);fill-opacity:1;" d="M 10.519531 7.574219 C 10.519531 7.339844 10.5 7.117188 10.460938 6.898438 L 7.46875 6.898438 L 7.46875 8.136719 L 9.191406 8.136719 C 9.121094 8.550781 8.898438 8.898438 8.550781 9.132812 L 8.550781 9.9375 L 9.578125 9.9375 C 10.175781 9.378906 10.519531 8.550781 10.519531 7.574219 Z M 10.519531 7.574219 "/>
<path style=" stroke:none;fill-rule:nonzero;fill:rgb(20.392157%,65.882353%,32.54902%);fill-opacity:1;" d="M 8.554688 9.132812 C 8.265625 9.328125 7.898438 9.441406 7.46875 9.441406 C 6.636719 9.441406 5.933594 8.878906 5.679688 8.117188 L 4.621094 8.117188 L 4.621094 8.945312 C 5.148438 9.992188 6.222656 10.714844 7.46875 10.714844 C 8.328125 10.714844 9.050781 10.429688 9.578125 9.9375 Z M 8.554688 9.132812 "/>
<path style=" stroke:none;fill-rule:nonzero;fill:rgb(98.039216%,73.333333%,1.960784%);fill-opacity:1;" d="M 5.582031 7.5 C 5.582031 7.289062 5.617188 7.082031 5.679688 6.886719 L 5.679688 6.058594 L 4.621094 6.058594 C 4.40625 6.492188 4.285156 6.984375 4.285156 7.5 C 4.285156 8.019531 4.40625 8.511719 4.621094 8.945312 L 5.679688 8.117188 C 5.617188 7.921875 5.582031 7.714844 5.582031 7.5 Z M 5.582031 7.5 "/>
<path style=" stroke:none;fill-rule:nonzero;fill:rgb(91.372549%,25.882353%,20.784314%);fill-opacity:1;" d="M 7.46875 5.5625 C 7.9375 5.5625 8.359375 5.722656 8.691406 6.042969 L 9.601562 5.128906 C 9.046875 4.609375 8.328125 4.289062 7.46875 4.289062 C 6.226562 4.289062 5.148438 5.011719 4.621094 6.058594 L 5.679688 6.886719 C 5.933594 6.125 6.636719 5.5625 7.46875 5.5625 Z M 7.46875 5.5625 "/>
</g>
</svg>
