<svg width="14" height="14" viewBox="0 0 14 14" fill="none" xmlns="http://www.w3.org/2000/svg">
<path d="M11.6668 6.99996C11.6668 6.35654 11.1436 5.83329 10.5002 5.83329H9.91683V4.08329C9.91683 2.47504 8.60841 1.16663 7.00016 1.16663C5.39191 1.16663 4.0835 2.47504 4.0835 4.08329V5.83329H3.50016C2.85675 5.83329 2.3335 6.35654 2.3335 6.99996V11.6666C2.3335 12.31 2.85675 12.8333 3.50016 12.8333H10.5002C11.1436 12.8333 11.6668 12.31 11.6668 11.6666V6.99996ZM5.25016 4.08329C5.25016 3.11846 6.03533 2.33329 7.00016 2.33329C7.965 2.33329 8.75016 3.11846 8.75016 4.08329V5.83329H5.25016V4.08329Z" fill="#787BD6"/>
</svg>
