<svg width="76" height="20" viewBox="0 0 76 20" fill="none" xmlns="http://www.w3.org/2000/svg">
<path d="M28.0068 4.09033H23.8619C23.7247 4.09025 23.5919 4.13917 23.4876 4.22828C23.3833 4.3174 23.3142 4.44085 23.2928 4.57639L21.6164 15.2049C21.6087 15.2542 21.6118 15.3046 21.6255 15.3526C21.6391 15.4006 21.663 15.4451 21.6955 15.483C21.728 15.5209 21.7683 15.5513 21.8136 15.5722C21.859 15.593 21.9083 15.6037 21.9583 15.6037H23.9371C24.0744 15.6037 24.2072 15.5547 24.3115 15.4655C24.4159 15.3763 24.4849 15.2527 24.5061 15.117L24.9583 12.2503C24.9795 12.1148 25.0484 11.9913 25.1527 11.9021C25.2569 11.8128 25.3895 11.7638 25.5267 11.7637H26.8389C29.5692 11.7637 31.1449 10.4425 31.5564 7.82427C31.7419 6.67882 31.5643 5.77882 31.028 5.14851C30.4389 4.45639 29.394 4.09033 28.0068 4.09033ZM28.4849 7.97215C28.2583 9.45943 27.1219 9.45943 26.0231 9.45943H25.3977L25.8364 6.68185C25.8493 6.60059 25.8907 6.52658 25.9533 6.47314C26.0158 6.4197 26.0954 6.39034 26.1777 6.39033H26.4643C27.2128 6.39033 27.9189 6.39033 28.2837 6.817C28.5013 7.07155 28.568 7.44973 28.4849 7.97215ZM40.3965 7.92427H38.4116C38.3293 7.92428 38.2498 7.95364 38.1872 8.00708C38.1247 8.06052 38.0832 8.13453 38.0704 8.21579L37.9825 8.77094L37.8437 8.56973C37.414 7.94609 36.4558 7.73761 35.4995 7.73761C33.3061 7.73761 31.4328 9.39882 31.068 11.7291C30.8783 12.8916 31.148 14.0031 31.8074 14.7782C32.4122 15.4909 33.2777 15.7879 34.3074 15.7879C36.0746 15.7879 37.0546 14.6516 37.0546 14.6516L36.9661 15.2031C36.9583 15.2524 36.9612 15.3028 36.9746 15.3509C36.9881 15.399 37.0119 15.4436 37.0442 15.4816C37.0766 15.5196 37.1169 15.5501 37.1622 15.5711C37.2075 15.5921 37.2568 15.603 37.3068 15.6031H39.0946C39.2319 15.6031 39.3647 15.5541 39.4691 15.4649C39.5735 15.3756 39.6425 15.2521 39.6637 15.1164L40.7364 8.32306C40.7443 8.27386 40.7415 8.22354 40.728 8.17556C40.7146 8.12758 40.6908 8.08309 40.6585 8.04518C40.6262 8.00726 40.586 7.97681 40.5408 7.95594C40.4955 7.93506 40.4463 7.92426 40.3965 7.92427ZM37.6298 11.7873C37.4383 12.9212 36.5383 13.6825 35.3904 13.6825C34.814 13.6825 34.3534 13.4976 34.0577 13.1473C33.7643 12.7994 33.6528 12.3043 33.7461 11.7528C33.9249 10.6285 34.8401 9.84246 35.9704 9.84246C36.534 9.84246 36.9922 10.0297 37.294 10.3831C37.5964 10.74 37.7165 11.2382 37.6298 11.7873ZM50.9674 7.92427H48.9728C48.8788 7.92442 48.7861 7.94752 48.703 7.99156C48.6199 8.0356 48.5488 8.09926 48.4958 8.177L45.7449 12.2291L44.5789 8.33518C44.5431 8.21642 44.47 8.11233 44.3705 8.03833C44.2709 7.96433 44.1502 7.92433 44.0261 7.92427H42.0661C42.0111 7.92413 41.9569 7.93712 41.9079 7.96218C41.8589 7.98724 41.8166 8.02364 41.7846 8.06834C41.7525 8.11304 41.7315 8.16476 41.7235 8.21918C41.7154 8.27361 41.7205 8.32917 41.7383 8.38124L43.9352 14.8285L41.8698 17.7443C41.8331 17.796 41.8113 17.8568 41.8069 17.92C41.8024 17.9833 41.8154 18.0465 41.8445 18.1029C41.8736 18.1592 41.9177 18.2064 41.9718 18.2394C42.026 18.2723 42.0882 18.2898 42.1516 18.2897H44.1437C44.2367 18.2899 44.3284 18.2674 44.4108 18.2244C44.4933 18.1813 44.564 18.1189 44.6171 18.0425L51.251 8.4667C51.287 8.41489 51.308 8.35423 51.312 8.29129C51.3159 8.22835 51.3025 8.16554 51.2733 8.10965C51.2441 8.05377 51.2001 8.00695 51.1462 7.97427C51.0923 7.9416 51.0304 7.9243 50.9674 7.92427Z" fill="#253B80"/>
<path d="M57.5708 4.09021H53.4254C53.2882 4.09026 53.1557 4.13925 53.0514 4.22835C52.9472 4.31746 52.8782 4.44083 52.8569 4.57627L51.1805 15.2048C51.1727 15.254 51.1757 15.3043 51.1892 15.3523C51.2028 15.4003 51.2265 15.4448 51.2589 15.4827C51.2913 15.5206 51.3315 15.551 51.3767 15.5719C51.422 15.5927 51.4713 15.6035 51.5211 15.6035H53.6484C53.7444 15.6034 53.8371 15.569 53.91 15.5066C53.9829 15.4441 54.0311 15.3577 54.046 15.2629L54.5217 12.2502C54.543 12.1147 54.6119 11.9911 54.7161 11.9019C54.8203 11.8127 54.953 11.7636 55.0902 11.7635H56.4017C59.1326 11.7635 60.7078 10.4423 61.1199 7.82415C61.306 6.67869 61.1272 5.77869 60.5908 5.14839C60.0023 4.45627 58.9581 4.09021 57.5708 4.09021ZM58.049 7.97202C57.8229 9.4593 56.6866 9.4593 55.5872 9.4593H54.9623L55.4017 6.68172C55.4143 6.60046 55.4556 6.52639 55.5181 6.47292C55.5805 6.41944 55.6601 6.3901 55.7423 6.39021H56.029C56.7769 6.39021 57.4835 6.39021 57.8484 6.81687C58.066 7.07142 58.132 7.4496 58.049 7.97202ZM69.9599 7.92415H67.9763C67.894 7.92392 67.8144 7.95322 67.7519 8.00671C67.6894 8.0602 67.6481 8.13434 67.6357 8.21566L67.5478 8.77081L67.4084 8.5696C66.9787 7.94596 66.0211 7.73748 65.0648 7.73748C62.8714 7.73748 60.9987 9.39869 60.6338 11.729C60.4447 12.8914 60.7132 14.0029 61.3726 14.7781C61.9787 15.4908 62.8429 15.7878 63.8726 15.7878C65.6399 15.7878 66.6199 14.6514 66.6199 14.6514L66.5314 15.2029C66.5235 15.2523 66.5264 15.3029 66.54 15.3511C66.5535 15.3992 66.5774 15.4439 66.6099 15.4819C66.6424 15.5199 66.6828 15.5505 66.7283 15.5714C66.7737 15.5923 66.8232 15.603 66.8732 15.6029H68.6605C68.7977 15.6029 68.9304 15.5538 69.0346 15.4646C69.1388 15.3753 69.2078 15.2518 69.229 15.1163L70.3023 8.32293C70.3099 8.27358 70.3068 8.22316 70.2931 8.17515C70.2793 8.12713 70.2554 8.08265 70.2229 8.04476C70.1903 8.00688 70.15 7.97648 70.1046 7.95566C70.0592 7.93484 70.0098 7.92409 69.9599 7.92415ZM67.1932 11.7872C67.0029 12.9211 66.1017 13.6823 64.9538 13.6823C64.3787 13.6823 63.9169 13.4975 63.6211 13.1472C63.3278 12.7993 63.2175 12.3041 63.3096 11.7526C63.4896 10.6284 64.4035 9.84233 65.5338 9.84233C66.0975 9.84233 66.5557 10.0296 66.8575 10.3829C67.1611 10.7399 67.2811 11.2381 67.1932 11.7872ZM72.2999 4.38172L70.5987 15.2048C70.5909 15.254 70.5939 15.3043 70.6074 15.3523C70.6209 15.4003 70.6447 15.4448 70.6771 15.4827C70.7094 15.5206 70.7496 15.551 70.7949 15.5719C70.8402 15.5927 70.8894 15.6035 70.9393 15.6035H72.6496C72.9338 15.6035 73.175 15.3975 73.2187 15.1169L74.8963 4.48899C74.904 4.43973 74.9011 4.38936 74.8876 4.34136C74.874 4.29335 74.8503 4.24884 74.8179 4.21089C74.7855 4.17294 74.7453 4.14245 74.7001 4.12151C74.6548 4.10057 74.6055 4.08969 74.5557 4.0896H72.6405C72.5583 4.08989 72.4788 4.11945 72.4164 4.17298C72.354 4.2265 72.3127 4.3005 72.2999 4.38172Z" fill="#179BD7"/>
<path d="M4.40367 17.6691L4.72064 15.6558L4.01458 15.6394H0.643066L2.9861 0.783032C2.99307 0.737639 3.01613 0.696265 3.05106 0.66645C3.08599 0.636635 3.13047 0.620366 3.1764 0.620608H8.86125C10.7485 0.620608 12.0509 1.01334 12.7309 1.78849C13.0497 2.15212 13.2528 2.53212 13.3509 2.95031C13.454 3.38909 13.4558 3.91334 13.3552 4.55273L13.3479 4.5994V5.00909L13.6667 5.1897C13.9101 5.313 14.1288 5.47978 14.3122 5.68182C14.5849 5.99273 14.7612 6.38788 14.8358 6.85637C14.9128 7.33818 14.8873 7.91152 14.7612 8.56061C14.6158 9.30728 14.3806 9.95758 14.0631 10.4897C13.7829 10.9664 13.4061 11.3793 12.957 11.7018C12.5352 12.0012 12.034 12.2285 11.4673 12.3739C10.9182 12.517 10.2922 12.5891 9.60549 12.5891H9.16307C8.8467 12.5891 8.53943 12.703 8.29822 12.9073C8.05735 13.1137 7.89756 13.3989 7.84731 13.7121L7.81397 13.8933L7.25397 17.4418L7.22852 17.5721C7.22185 17.6133 7.21034 17.6339 7.19337 17.6479C7.17693 17.6613 7.15642 17.6688 7.13519 17.6691H4.40367Z" fill="#253B80"/>
<path d="M13.968 4.64673C13.951 4.75521 13.9316 4.86612 13.9098 4.98006C13.1601 8.82915 10.5952 10.1589 7.31948 10.1589H5.6516C5.251 10.1589 4.91342 10.4498 4.851 10.8449L3.99706 16.2607L3.75524 17.7958C3.74561 17.8567 3.74929 17.919 3.76602 17.9783C3.78276 18.0376 3.81215 18.0927 3.85218 18.1395C3.89221 18.1864 3.94193 18.2241 3.99791 18.2499C4.05389 18.2757 4.1148 18.2891 4.17645 18.2892H7.13463C7.48494 18.2892 7.78251 18.0346 7.83766 17.6892L7.86675 17.5389L8.42372 14.0043L8.45948 13.8104C8.51403 13.4637 8.81221 13.2092 9.16251 13.2092H9.60494C12.471 13.2092 14.7146 12.0455 15.3704 8.67825C15.6443 7.27158 15.5025 6.09703 14.7777 5.27097C14.5479 5.01543 14.2735 4.8039 13.968 4.64673Z" fill="#179BD7"/>
<path d="M13.1843 4.334C12.9449 4.26476 12.7014 4.21071 12.4552 4.17219C11.9687 4.09742 11.4771 4.06155 10.9849 4.06491H6.52914C6.35957 4.06478 6.19554 4.12532 6.06671 4.23559C5.93789 4.34585 5.85276 4.49857 5.82671 4.66613L4.87884 10.6698L4.85156 10.8449C4.88109 10.6538 4.97805 10.4796 5.1249 10.3537C5.27174 10.2279 5.45878 10.1588 5.65217 10.1589H7.32005C10.5958 10.1589 13.1607 8.82856 13.9104 4.98007C13.9328 4.86613 13.9516 4.75522 13.9685 4.64673C13.7707 4.54299 13.5645 4.45602 13.3522 4.38673C13.2965 4.36826 13.2405 4.35068 13.1843 4.334Z" fill="#222D65"/>
<path d="M5.82661 4.66606C5.85243 4.49845 5.93752 4.34567 6.06641 4.23546C6.1953 4.12525 6.35945 4.06493 6.52904 4.06545H10.9848C11.5127 4.06545 12.0054 4.1 12.4551 4.17273C12.7594 4.22055 13.0595 4.29208 13.3527 4.38667C13.5739 4.46 13.7793 4.54667 13.969 4.64667C14.1921 3.22424 13.9672 2.25576 13.1981 1.37879C12.3502 0.413333 10.8199 0 8.86176 0H3.17691C2.77691 0 2.4357 0.290909 2.37388 0.686667L0.00600588 15.6958C-0.0050233 15.7654 -0.00082707 15.8367 0.0183059 15.9046C0.0374389 15.9725 0.0710546 16.0355 0.116841 16.0891C0.162627 16.1428 0.219496 16.1859 0.283538 16.2155C0.347579 16.2451 0.417273 16.2605 0.487824 16.2606H3.99752L4.87873 10.6697L5.82661 4.66606Z" fill="#253B80"/>
</svg>
