<svg width="31" height="30" viewBox="0 0 31 30" fill="none" xmlns="http://www.w3.org/2000/svg">
<path d="M9.99977 16.6664H6.71656L7.3583 16.0246H7.35802C7.68475 15.6979 7.68475 15.1681 7.35802 14.8414C7.03129 14.5146 6.50145 14.5146 6.17474 14.8414L4.07488 16.9496C3.92087 17.1051 3.83409 17.3146 3.83325 17.5331C3.83186 17.7546 3.91891 17.9675 4.07488 18.1249L6.18316 20.2332C6.34053 20.3891 6.55342 20.4762 6.77496 20.4748C7.10811 20.47 7.40666 20.2672 7.53361 19.9589C7.66055 19.6506 7.59164 19.2962 7.35811 19.0582L6.66642 18.3331H9.93314C11.0271 18.4157 12.0556 18.8869 12.8321 19.6618C13.6086 20.437 14.0819 21.4642 14.1664 22.5583V22.9166V25.8331H12.4999C12.0579 25.8331 11.6338 25.6576 11.3213 25.3451C11.0088 25.0326 10.8333 24.6086 10.8333 24.1666V20.8331C10.8333 20.373 10.46 20 9.99985 20C9.53975 20 9.16642 20.373 9.16642 20.8331V21.6666H3.33328C2.89104 21.6666 2.46721 21.4911 2.15471 21.1783C1.84221 20.8658 1.66643 20.4419 1.66643 20V7.5H26.6664V2.5C26.6664 1.83677 26.403 1.20086 25.9343 0.732143C25.4655 0.263429 24.8296 0 24.1664 0H2.5C1.83706 0 1.20114 0.263393 0.732143 0.732143C0.263393 1.20089 0 1.83679 0 2.5V20C0 20.8839 0.351286 21.7319 0.976286 22.3569C1.60156 22.9821 2.44921 23.3331 3.33343 23.3331H9.16686V24.1666H9.16658C9.16658 25.0505 9.51787 25.8984 10.1429 26.5237C10.7681 27.1487 11.6161 27.5 12.5 27.5H14.1666V29.1666C14.1666 29.6267 14.5399 30 15 30C15.4601 30 15.8334 29.6267 15.8334 29.1666V22.9166V22.4333C15.7098 20.9339 15.0536 19.5282 13.9838 18.4705C12.9138 17.413 11.5008 16.7729 10 16.6666L9.99977 16.6664ZM14.1663 3.33281H22.4999C22.96 3.33281 23.3333 3.70614 23.3333 4.16624C23.3333 4.62634 22.96 4.99967 22.4999 4.99967H14.1663C13.7062 4.99967 13.3332 4.62634 13.3332 4.16624C13.3332 3.70614 13.7063 3.33281 14.1663 3.33281ZM10.8329 3.33281H10.8332C11.1703 3.33281 11.4741 3.53594 11.603 3.84732C11.7319 4.15871 11.6607 4.51724 11.4225 4.75554C11.1839 4.99381 10.8256 5.06524 10.5142 4.93606C10.2029 4.80715 9.99974 4.5033 9.99974 4.16627C9.99974 3.70617 10.3728 3.33284 10.8332 3.33284L10.8329 3.33281ZM7.49949 3.33281H7.49977C7.83682 3.33281 8.14067 3.53594 8.26955 3.84732C8.39874 4.15871 8.32731 4.51724 8.08903 4.75554C7.85075 4.99383 7.49221 5.06524 7.18082 4.93606C6.86943 4.80715 6.66631 4.5033 6.66631 4.16627C6.66631 3.70617 7.03964 3.33284 7.49974 3.33284L7.49949 3.33281ZM4.16606 3.33281H4.16634C4.50339 3.33281 4.80724 3.53594 4.93641 3.84732C5.06532 4.15871 4.99389 4.51724 4.75561 4.75554C4.51733 4.99381 4.15879 5.06524 3.84739 4.93606C3.53601 4.80715 3.33317 4.5033 3.33317 4.16627C3.33317 3.70617 3.70622 3.33284 4.16631 3.33284L4.16606 3.33281Z" fill="black" fill-opacity="0.5"/>
<path d="M28.3333 9.1664H11.6662C11.0033 9.1664 10.3673 9.4298 9.89863 9.89855C9.4296 10.3676 9.1662 11.0035 9.1662 11.6664V14.9998H29.1662V24.1663C29.1662 24.6082 28.9907 25.0323 28.6782 25.3448C28.3657 25.6573 27.9416 25.8328 27.4996 25.8328H19.1661C18.706 25.8328 18.3329 26.2062 18.3329 26.6663C18.3329 27.1264 18.706 27.4997 19.1661 27.4997H27.4996C28.3836 27.4997 29.2315 27.1484 29.8568 26.5234C30.4818 25.8981 30.8331 25.0502 30.8331 24.1663V11.6663C30.8331 11.0033 30.5697 10.3674 30.1006 9.8984C29.6319 9.42965 28.996 9.16626 28.3331 9.16626L28.3333 9.1664ZM13.3333 13.333C12.9963 13.333 12.6924 13.1301 12.5633 12.8187C12.4344 12.5074 12.5058 12.1488 12.7441 11.9105C12.9823 11.6723 13.3409 11.6008 13.6523 11.7297C13.9637 11.8589 14.1665 12.1628 14.1665 12.4998C14.1665 12.7208 14.0789 12.9326 13.9226 13.0891C13.7661 13.2453 13.5543 13.333 13.3334 13.333L13.3333 13.333ZM15.8333 13.333C15.4963 13.333 15.1924 13.1301 15.0633 12.8187C14.9344 12.5074 15.0058 12.1488 15.2441 11.9105C15.4823 11.6723 15.8409 11.6008 16.1523 11.7297C16.4637 11.8589 16.6665 12.1628 16.6665 12.4998C16.6665 12.7208 16.5789 12.9326 16.4226 13.0891C16.2661 13.2453 16.0543 13.333 15.8334 13.333L15.8333 13.333ZM18.3333 13.333C17.9963 13.333 17.6924 13.1301 17.5633 12.8187C17.4344 12.5074 17.5058 12.1488 17.7441 11.9105C17.9823 11.6723 18.3409 11.6008 18.6523 11.7297C18.9637 11.8589 19.1665 12.1628 19.1665 12.4998C19.1665 12.7208 19.0789 12.9326 18.9226 13.0891C18.7661 13.2453 18.5543 13.333 18.3334 13.333L18.3333 13.333ZM26.6669 13.333H20.8335C20.3731 13.333 20.0001 12.9599 20.0001 12.4998C20.0001 12.0395 20.3731 11.6664 20.8335 11.6664H26.6669H26.6666C27.127 11.6664 27.5001 12.0395 27.5001 12.4998C27.5001 12.9599 27.127 13.333 26.6666 13.333H26.6669Z" fill="black" fill-opacity="0.5"/>
</svg>
