<svg width="40" height="40" viewBox="0 0 40 40" fill="none" xmlns="http://www.w3.org/2000/svg">
<rect width="40" height="40" rx="5" fill="#25D38A"/>
<g clipPath="url(#clip0)">
<path d="M31.2935 12.0422C29.8389 11.4321 28.3831 11.2 26.9281 11.2C22.3092 11.1996 17.6907 13.5377 13.0719 13.5377C11.9135 13.5377 10.7559 13.3907 9.5975 13.0232C9.46737 12.982 9.33687 12.9625 9.20937 12.9625C8.564 12.9625 8 13.462 8 14.1554V26.0526C8 26.5263 8.27112 26.9751 8.7065 27.1574C10.1611 27.7679 11.6169 28 13.0719 28C17.6907 28 22.3096 25.6619 26.9285 25.6619C28.0869 25.6619 29.2445 25.8089 30.4029 26.1764C30.533 26.2176 30.6635 26.2371 30.791 26.2371C31.4364 26.2371 32.0004 25.7376 32.0004 25.0443V13.1474C32 12.6734 31.7289 12.2249 31.2935 12.0422ZM9.8 14.9582C10.5545 15.1472 11.342 15.2421 12.152 15.2931C11.9315 16.3952 10.9625 17.2259 9.8 17.2259V14.9582ZM9.8 25.6458V23.854C11.0889 23.854 12.1317 24.8766 12.1891 26.1565C11.3442 26.0886 10.5545 25.9199 9.8 25.6458ZM20 23.2C18.3429 23.2 17 21.5879 17 19.6C17 17.6117 18.3432 16 20 16C21.6567 16 23 17.6117 23 19.6C23 21.5886 21.6564 23.2 20 23.2ZM30.2 24.2418C29.543 24.0771 28.8609 23.9849 28.163 23.9253C28.3831 22.9473 29.1942 22.2048 30.2 22.0773V24.2418ZM30.2 15.3876C29.0416 15.241 28.1427 14.2739 28.1071 13.0795C28.8399 13.1609 29.5355 13.3131 30.2 13.5542V15.3876Z" fill="white"/>
</g>
<defs>
<clipPath id="clip0">
<rect width="24" height="19.2" fill="white" transform="translate(8 10)"/>
</clipPath>
</defs>
</svg>
