<svg width="24" height="24" viewBox="0 0 24 24" fill="none" xmlns="http://www.w3.org/2000/svg">
<path d="M9.37996 21.646C10.2337 21.8796 11.1148 21.9987 12 22L12.141 21.999C12.6463 21.9927 13.1418 21.8588 13.5815 21.6096C14.0212 21.3605 14.3908 21.0043 14.656 20.574C15.198 19.698 15.256 18.621 14.809 17.694L14.611 17.279C14.158 16.337 14.514 15.483 14.999 14.998C15.484 14.513 16.34 14.157 17.279 14.61H17.28L17.693 14.809C18.1471 15.0286 18.6494 15.1297 19.1531 15.103C19.6569 15.0762 20.1456 14.9225 20.574 14.656C21.0045 14.3911 21.361 14.0216 21.6103 13.5818C21.8596 13.1421 21.9937 12.6465 22 12.141C22.0125 11.209 21.8936 10.2799 21.647 9.381C20.609 5.554 17.294 2.627 13.401 2.096C10.252 1.669 7.15996 2.698 4.92996 4.929C2.69996 7.16 1.66596 10.247 2.09596 13.4C2.62596 17.294 5.55396 20.608 9.37996 21.646ZM15.5 6C15.8978 6 16.2793 6.15804 16.5606 6.43934C16.8419 6.72065 17 7.10218 17 7.5C17 7.89783 16.8419 8.27936 16.5606 8.56066C16.2793 8.84197 15.8978 9 15.5 9C15.1021 9 14.7206 8.84197 14.4393 8.56066C14.158 8.27936 14 7.89783 14 7.5C14 7.10218 14.158 6.72065 14.4393 6.43934C14.7206 6.15804 15.1021 6 15.5 6ZM10.5 5C10.8978 5 11.2793 5.15804 11.5606 5.43934C11.8419 5.72065 12 6.10218 12 6.5C12 6.89783 11.8419 7.27936 11.5606 7.56066C11.2793 7.84197 10.8978 8 10.5 8C10.1021 8 9.7206 7.84197 9.4393 7.56066C9.15799 7.27936 8.99996 6.89783 8.99996 6.5C8.99996 6.10218 9.15799 5.72065 9.4393 5.43934C9.7206 5.15804 10.1021 5 10.5 5ZM8.99996 15.506C8.99996 15.9038 8.84192 16.2854 8.56062 16.5667C8.27931 16.848 7.89778 17.006 7.49996 17.006C7.10213 17.006 6.7206 16.848 6.4393 16.5667C6.15799 16.2854 5.99996 15.9038 5.99996 15.506C5.99996 15.1082 6.15799 14.7266 6.4393 14.4453C6.7206 14.164 7.10213 14.006 7.49996 14.006C7.89778 14.006 8.27931 14.164 8.56062 14.4453C8.84192 14.7266 8.99996 15.1082 8.99996 15.506ZM6.49996 9.006C6.89791 9.00613 7.27952 9.16435 7.56082 9.44584C7.84213 9.72733 8.00009 10.109 7.99996 10.507C7.99982 10.905 7.84161 11.2866 7.56012 11.5679C7.27862 11.8492 6.89691 12.0071 6.49896 12.007C6.101 12.0069 5.71939 11.8487 5.43809 11.5672C5.15678 11.2857 4.99882 10.904 4.99896 10.506C4.99909 10.108 5.1573 9.72644 5.4388 9.44513C5.72029 9.16383 6.102 9.00587 6.49996 9.006Z" fill="#8086AC"/>
</svg>
