<svg width="98" height="20" viewBox="0 0 98 20" fill="none" xmlns="http://www.w3.org/2000/svg">
<g clipPath="url(#clip0)">
<path d="M19.3741 0.913673C17.0398 -0.54477 13.9668 -0.197295 11.226 1.52485C8.49384 -0.197295 5.41893 -0.54477 3.08751 0.913673C-0.600484 3.21843 -1.04887 9.15407 2.08697 14.172C4.3984 17.8714 8.01309 20.0391 11.2308 19.9991C14.4485 20.0391 18.0632 17.8714 20.3746 14.172C23.5067 9.15407 23.0621 3.21843 19.3741 0.913673ZM3.78246 13.1124C3.13586 12.0874 2.64801 10.9705 2.33544 9.79951C2.05774 8.78308 1.95157 7.72743 2.02129 6.67605C2.16123 4.82158 2.91615 3.37741 4.14612 2.60916C5.37609 1.84091 7.00208 1.79426 8.73374 2.48159C8.99364 2.58536 9.25067 2.70531 9.5058 2.83764C8.54352 3.71506 7.70679 4.72094 7.01922 5.82688C5.11524 8.87323 4.53453 12.2633 5.19902 14.9659C4.66918 14.3944 4.19486 13.7737 3.78246 13.1124V13.1124ZM20.1271 9.79856C19.8141 10.9694 19.3263 12.0862 18.6801 13.1115C18.2673 13.7737 17.7931 14.3956 17.2635 14.9688C17.8576 12.546 17.4539 9.5777 15.9974 6.79409C15.9741 6.74825 15.9415 6.70779 15.9016 6.67535C15.8618 6.6429 15.8155 6.61918 15.7659 6.60572C15.7163 6.59226 15.6644 6.58936 15.6136 6.59721C15.5628 6.60507 15.5142 6.62349 15.471 6.6513L10.93 9.48822C10.8886 9.51406 10.8526 9.54782 10.8243 9.58756C10.7959 9.6273 10.7757 9.67224 10.7647 9.71982C10.7538 9.76739 10.7523 9.81666 10.7604 9.8648C10.7685 9.91294 10.786 9.95902 10.8119 10.0004L11.4783 11.0657C11.5041 11.107 11.5377 11.1429 11.5774 11.1713C11.6171 11.1996 11.6619 11.2199 11.7094 11.2308C11.7569 11.2418 11.8061 11.2433 11.8542 11.2352C11.9022 11.2271 11.9482 11.2096 11.9895 11.1837L14.9331 9.34446C15.0283 9.63006 15.1235 9.91566 15.1949 10.2013C15.4725 11.2164 15.579 12.2707 15.51 13.3209C15.37 15.1744 14.6151 16.6186 13.3852 17.3878C12.7507 17.7757 12.0238 17.9861 11.2803 17.9971H11.1861C10.4425 17.9863 9.71553 17.7759 9.08122 17.3878C7.8503 16.6186 7.09538 15.1744 6.95543 13.3209C6.88614 12.2695 6.99231 11.214 7.26959 10.1974C7.90759 7.84568 9.22644 5.73494 11.0604 4.13044C11.8513 3.43624 12.7521 2.87838 13.726 2.47969C15.4529 1.79236 17.0817 1.83805 18.3126 2.60726C19.5436 3.37646 20.2975 4.81967 20.4375 6.67414C20.5081 7.72562 20.4032 8.78152 20.1271 9.79856ZM43.5669 7.58329C41.1793 7.58329 39.2497 9.44728 39.2497 11.8187C39.2497 14.1739 41.1793 16.0074 43.5669 16.0074C45.9707 16.0074 47.9004 14.1767 47.9004 11.8187C47.9004 9.44823 45.9736 7.58424 43.5669 7.58424V7.58329ZM43.5669 13.7931C42.4664 13.7931 41.6287 12.903 41.6287 11.8025C41.6287 10.702 42.4664 9.79856 43.5669 9.79856C44.6836 9.79856 45.5214 10.7049 45.5214 11.8054C45.5214 12.9058 44.6836 13.7969 43.5669 13.7969V13.7931ZM53.2839 4.33035H48.8904C48.843 4.32944 48.7958 4.33814 48.7518 4.35591C48.7078 4.37369 48.6678 4.40017 48.6343 4.43378C48.6008 4.4674 48.5744 4.50744 48.5567 4.5515C48.5391 4.59556 48.5305 4.64274 48.5315 4.6902V15.401C48.5281 15.45 48.5349 15.4993 48.5514 15.5455C48.568 15.5918 48.5939 15.6342 48.6276 15.67C48.6613 15.7057 48.7021 15.7341 48.7473 15.7534C48.7926 15.7726 48.8413 15.7823 48.8904 15.7818H53.2839C56.7995 15.7818 59.2423 13.4437 59.2423 10.0423C59.2423 6.61988 56.7995 4.33035 53.2839 4.33035ZM53.3876 13.5199H50.9839V6.58656H53.3876C55.3335 6.58656 56.6748 8.04215 56.6748 10.0375C56.6748 11.9996 55.3335 13.5199 53.3876 13.5199ZM67.9873 7.81367H66.3356C66.2442 7.8209 66.1586 7.86162 66.0954 7.92803C66.0321 7.99444 65.9956 8.08186 65.9929 8.17352V8.66379C65.6168 8.04215 64.7667 7.58424 63.7081 7.58424C61.648 7.58424 59.7183 9.20262 59.7183 11.7873C59.7183 14.3576 61.6309 16.0055 63.6919 16.0055C64.7543 16.0055 65.6216 15.5486 65.9976 14.9269V15.4334C65.9981 15.5242 66.0344 15.6112 66.0985 15.6755C66.1627 15.7398 66.2495 15.7763 66.3404 15.777H67.9921C68.0375 15.7781 68.0826 15.7699 68.1248 15.753C68.167 15.7361 68.2053 15.7108 68.2374 15.6787C68.2695 15.6466 68.2948 15.6083 68.3117 15.5661C68.3286 15.5239 68.3368 15.4788 68.3357 15.4334V8.17352C68.3371 8.12685 68.3291 8.08037 68.3123 8.03682C68.2954 7.99328 68.27 7.95356 68.2375 7.92002C68.205 7.88647 68.1661 7.85977 68.1232 7.84151C68.0802 7.82324 68.034 7.81378 67.9873 7.81367V7.81367ZM64.1451 13.8112C63.0512 13.8112 62.2297 12.9706 62.2297 11.8044C62.2297 10.6382 63.0512 9.79856 64.1451 9.79856C65.2389 9.79856 66.0605 10.6373 66.0605 11.8034C66.0605 12.9696 65.2399 13.8102 64.1451 13.8102V13.8112ZM77.2587 4.33035H75.607C75.5608 4.32896 75.5147 4.33678 75.4715 4.35337C75.4284 4.36996 75.3889 4.39497 75.3555 4.42696C75.3221 4.45895 75.2954 4.49727 75.277 4.53969C75.2585 4.58211 75.2487 4.62777 75.2481 4.67402V8.63143C74.8673 8.04215 74.0048 7.58424 72.9262 7.58424C70.8813 7.58424 68.985 9.20262 68.985 11.7873C68.985 14.3576 70.8975 16.0055 72.9586 16.0055C74.021 16.0055 74.8226 15.5486 75.2643 14.9269V15.4334C75.2645 15.5243 75.3007 15.6114 75.3649 15.6758C75.4291 15.7401 75.5161 15.7765 75.607 15.777H77.2587C77.3041 15.7782 77.3494 15.7701 77.3916 15.7533C77.4338 15.7364 77.4722 15.7112 77.5043 15.679C77.5365 15.6469 77.5617 15.6085 77.5786 15.5663C77.5955 15.524 77.6035 15.4788 77.6024 15.4334V4.67592C77.6038 4.63031 77.5959 4.58489 77.5792 4.54244C77.5624 4.49999 77.5372 4.4614 77.505 4.42904C77.4729 4.39669 77.4344 4.37124 77.392 4.35427C77.3497 4.3373 77.3043 4.32916 77.2587 4.33035V4.33035ZM73.4165 13.8312C72.3274 13.8312 71.5125 12.982 71.5125 11.8034C71.5125 10.6249 72.3303 9.77571 73.4165 9.77571C74.5027 9.77571 75.3204 10.6249 75.3204 11.8034C75.3204 12.982 74.5065 13.8312 73.4165 13.8312ZM86.5282 4.33035H84.8793C84.8331 4.32896 84.787 4.33678 84.7437 4.35335C84.7005 4.36993 84.661 4.39493 84.6275 4.42691C84.594 4.45888 84.5673 4.4972 84.5487 4.53962C84.5302 4.58204 84.5202 4.62773 84.5195 4.67402V8.63143C84.1435 8.04215 83.2762 7.58424 82.1976 7.58424C80.1527 7.58424 78.2564 9.20262 78.2564 11.7873C78.2564 14.3576 80.1699 16.0055 82.23 16.0055C83.2933 16.0055 84.094 15.5486 84.5357 14.9269V15.4334C84.5362 15.5244 84.5725 15.6115 84.6369 15.6758C84.7012 15.7402 84.7884 15.7765 84.8793 15.777H86.5282C86.5736 15.7782 86.6188 15.7701 86.6609 15.7533C86.7031 15.7364 86.7414 15.7111 86.7735 15.679C86.8056 15.6468 86.8308 15.6084 86.8475 15.5662C86.8642 15.524 86.8722 15.4788 86.8709 15.4334V4.67592C86.8725 4.63036 86.8647 4.58496 86.8481 4.54251C86.8315 4.50006 86.8063 4.46146 86.7742 4.42909C86.7421 4.39672 86.7037 4.37126 86.6614 4.35428C86.6191 4.3373 86.5738 4.32916 86.5282 4.33035V4.33035ZM82.686 13.8312C81.5959 13.8312 80.782 12.982 80.782 11.8034C80.782 10.6249 81.5998 9.77571 82.686 9.77571C83.7722 9.77571 84.5899 10.6249 84.5899 11.8034C84.5899 12.982 83.7779 13.8312 82.6888 13.8312H82.686ZM95.5721 8.37058L93.1074 16.8233C92.6314 18.3274 91.5699 19.227 89.9182 19.227C89.1671 19.227 88.4836 19.0738 87.9476 18.7672C87.6353 18.5892 87.3764 18.4264 87.3764 18.1656C87.3764 18.0037 87.4288 17.92 87.524 17.7686L88.0133 17.0356C88.1513 16.8309 88.2532 16.7642 88.4017 16.7642C88.5194 16.7671 88.6332 16.8067 88.7273 16.8775C89.0348 17.0765 89.3204 17.2479 89.7554 17.2479C90.2638 17.2479 90.6522 17.0851 90.8616 16.4796L91.073 15.778H90.0753C89.9731 15.7813 89.873 15.7487 89.7924 15.6859C89.7117 15.6232 89.6555 15.5342 89.6336 15.4343L87.4278 8.37058C87.3459 8.0926 87.4211 7.81462 87.8296 7.81462H89.5669C89.7792 7.81462 89.9277 7.88697 90.021 8.19066L91.6499 13.8788L93.1731 8.19066C93.2216 7.99455 93.353 7.81462 93.6148 7.81462H95.2627C95.5873 7.81367 95.6853 8.04215 95.5721 8.37058ZM38.6271 10.8848V15.4C38.6278 15.4493 38.6187 15.4981 38.6002 15.5438C38.5818 15.5894 38.5543 15.6308 38.5195 15.6656C38.4847 15.7005 38.4432 15.7279 38.3976 15.7464C38.352 15.7649 38.3031 15.774 38.2539 15.7732H36.8907C36.8414 15.7741 36.7925 15.7651 36.7468 15.7467C36.7011 15.7282 36.6596 15.7008 36.6248 15.6659C36.5899 15.6311 36.5625 15.5896 36.544 15.5439C36.5256 15.4982 36.5166 15.4493 36.5175 15.4V14.2148C35.6521 15.3077 34.147 15.996 32.4449 15.996C29.2481 15.996 26.7501 13.5913 26.7501 10.1679C26.7501 6.61036 29.4471 4.15804 32.8542 4.15804C35.3694 4.15804 37.38 5.2395 38.2729 7.41479C38.2979 7.47227 38.3118 7.53397 38.3139 7.59662C38.3139 7.69943 38.2463 7.7775 38.0283 7.8527L36.4366 8.46578C36.3405 8.50559 36.233 8.50729 36.1357 8.47054C36.0505 8.42021 35.9837 8.34377 35.9453 8.25254C35.3741 7.16632 34.3574 6.42853 32.7924 6.42853C30.7627 6.42853 29.309 8.01359 29.309 10.0689C29.309 12.0614 30.5466 13.6998 32.8504 13.6998C34.0623 13.6998 35.0286 13.1286 35.4789 12.5013H34.0414C33.9921 12.502 33.9433 12.4929 33.8976 12.4744C33.852 12.4559 33.8106 12.4285 33.7758 12.3937C33.741 12.3589 33.7135 12.3174 33.695 12.2718C33.6765 12.2262 33.6674 12.1773 33.6682 12.1281V10.901C33.6674 10.8517 33.6765 10.8029 33.695 10.7572C33.7135 10.7116 33.741 10.6702 33.7758 10.6354C33.8106 10.6006 33.852 10.5731 33.8976 10.5546C33.9433 10.5361 33.9921 10.527 34.0414 10.5278H38.2539C38.3022 10.5253 38.3505 10.5327 38.3958 10.5496C38.4411 10.5665 38.4825 10.5924 38.5175 10.6258C38.5524 10.6593 38.5801 10.6995 38.599 10.744C38.6178 10.7885 38.6274 10.8364 38.6271 10.8848V10.8848ZM95.6168 6.14198V6.0325C95.6167 6.02483 95.6194 6.01738 95.6244 6.01156C95.6299 6.00669 95.637 6.00398 95.6444 6.00394H96.3403C96.344 6.00382 96.3476 6.00443 96.3511 6.00574C96.3545 6.00704 96.3576 6.00902 96.3603 6.01156C96.3653 6.01738 96.368 6.02483 96.3679 6.0325V6.14198C96.3679 6.14935 96.3652 6.15645 96.3603 6.16197C96.3576 6.16451 96.3545 6.16649 96.3511 6.1678C96.3476 6.16911 96.344 6.16971 96.3403 6.16959H96.0861V6.85597C96.0859 6.86347 96.0828 6.8706 96.0775 6.8759C96.0722 6.88121 96.0651 6.88429 96.0576 6.88453H95.9262C95.9226 6.88452 95.9191 6.88374 95.9158 6.88227C95.9125 6.88079 95.9096 6.87865 95.9072 6.87596C95.9045 6.87339 95.9023 6.87028 95.9008 6.86685C95.8994 6.86341 95.8986 6.85971 95.8986 6.85597V6.16959H95.6444C95.6407 6.16988 95.637 6.16936 95.6335 6.16807C95.63 6.16678 95.6269 6.16476 95.6242 6.16214C95.6216 6.15952 95.6196 6.15636 95.6183 6.15288C95.617 6.1494 95.6165 6.14568 95.6168 6.14198V6.14198ZM96.8334 6.0287L97.0238 6.46947L97.2142 6.0287C97.2171 6.02089 97.2225 6.01421 97.2295 6.00966C97.2374 6.00555 97.2463 6.00358 97.2552 6.00394H97.476C97.4796 6.00367 97.4833 6.00417 97.4867 6.0054C97.4901 6.00663 97.4932 6.00857 97.4958 6.01108C97.4984 6.0136 97.5005 6.01664 97.5018 6.02001C97.5032 6.02337 97.5038 6.02698 97.5036 6.0306V6.85692C97.5039 6.86054 97.5034 6.86417 97.5022 6.86758C97.501 6.87099 97.499 6.8741 97.4965 6.8767C97.494 6.87931 97.491 6.88135 97.4876 6.8827C97.4842 6.88405 97.4806 6.88468 97.477 6.88453H97.3532C97.3496 6.88466 97.3459 6.88405 97.3425 6.88274C97.339 6.88143 97.3359 6.87945 97.3332 6.87692C97.3306 6.87437 97.3285 6.87125 97.3272 6.86779C97.3258 6.86433 97.3253 6.86061 97.3256 6.85692V6.23337L97.1209 6.68652C97.118 6.69507 97.1127 6.70265 97.1057 6.70841C97.0979 6.71275 97.0889 6.71474 97.08 6.71413H96.9791C96.9705 6.7146 96.9619 6.71262 96.9543 6.70841C96.9471 6.70292 96.9417 6.69525 96.9391 6.68652L96.7354 6.23337V6.85692C96.7356 6.86052 96.7351 6.86413 96.7338 6.86751C96.7326 6.87089 96.7306 6.87398 96.7281 6.87657C96.7256 6.87917 96.7226 6.88121 96.7193 6.88258C96.7159 6.88395 96.7123 6.88462 96.7087 6.88453H96.5821C96.5786 6.88449 96.5751 6.88373 96.5719 6.8823C96.5687 6.88087 96.5658 6.8788 96.5634 6.87622C96.561 6.87364 96.5591 6.8706 96.5579 6.86729C96.5567 6.86397 96.5562 6.86044 96.5564 6.85692V6.0306C96.5563 6.02698 96.5569 6.02337 96.5582 6.02001C96.5596 6.01664 96.5616 6.0136 96.5642 6.01108C96.5668 6.00857 96.57 6.00663 96.5734 6.0054C96.5768 6.00417 96.5804 6.00367 96.584 6.00394H96.7982C96.8068 6.00371 96.8153 6.00567 96.823 6.00966C96.8282 6.01488 96.8318 6.02149 96.8334 6.0287V6.0287Z" fill="#1BDBDB"/>
</g>
<defs>
<clipPath id="clip0">
<rect width="97.5043" height="20" fill="white"/>
</clipPath>
</defs>
</svg>
