<svg width="42" height="42" viewBox="0 0 42 42" fill="none" xmlns="http://www.w3.org/2000/svg">
<rect width="42" height="42" rx="10" fill="url(#paint0_linear)"/>
<path d="M10.4697 20.0209L20.778 13.1937C21.2271 12.9354 21.7774 12.9354 22.2265 13.1937L32.5348 20.0209C32.939 20.2231 33.1187 20.7059 32.9166 21.1214C32.838 21.2898 32.7032 21.4246 32.5348 21.5032L31.1536 22.4127C27.7737 17.0789 20.7218 15.4957 15.3881 18.8644C13.962 19.7739 12.7492 20.9754 11.8397 22.4127L10.4473 21.5032C10.043 21.2898 9.88583 20.7958 10.0879 20.3915C10.1778 20.2343 10.3125 20.0996 10.4697 20.0209ZM21.4854 19.9423C18.5322 19.9536 15.7811 21.4695 14.209 23.9736L16.5783 25.5456C18.2065 22.8394 21.7212 21.9748 24.4162 23.603C25.2134 24.0859 25.876 24.7484 26.3588 25.5456L28.7281 23.9736C27.1785 21.4583 24.4386 19.9311 21.4854 19.9423ZM21.4854 25.6467C20.4411 25.6579 19.4866 26.2194 18.9701 27.1289L20.5646 28.1732C20.8229 28.3978 21.1485 28.5101 21.4854 28.5101C21.8223 28.5101 22.1592 28.3866 22.4062 28.1732L24.0007 27.1289C23.4954 26.2081 22.5297 25.6467 21.4854 25.6467Z" fill="white"/>
<defs>
<linearGradient id="paint0_linear" x1="-11.8125" y1="51.275" x2="60.4625" y2="-20.475" gradientUnits="userSpaceOnUse">
<stop stop-color="#EFC119"/>
<stop offset="0.3314" stop-color="#92C84E"/>
<stop offset="0.4859" stop-color="#71BF5B"/>
<stop offset="0.7506" stop-color="#15B158"/>
<stop offset="0.903" stop-color="#23AC69"/>
<stop offset="1" stop-color="#23AC69"/>
</linearGradient>
</defs>
</svg>
