<svg width="20" height="20" viewBox="0 0 20 20" fill="none" xmlns="http://www.w3.org/2000/svg">
<path d="M13.165 13.582C17.752 9.509 21.306 4.158 19.222 1.81101C18.561 1.06701 17.638 0.722005 16.647 0.828005C15.815 0.919005 14.96 1.33 14.098 2.02C12.7429 1.318 11.2305 0.975308 9.7052 1.02468C8.17991 1.07405 6.69278 1.51384 5.38598 2.30201C4.37009 2.90348 3.48375 3.70071 2.77839 4.64742C2.07303 5.59414 1.56269 6.6715 1.27698 7.81701C0.831675 9.5815 0.938481 11.4401 1.58298 13.142C0.517979 14.345 -0.471021 16.819 0.759979 18.205C1.27698 18.786 2.01698 19.046 2.90698 19.046C5.61398 19.046 9.71498 16.647 13.165 13.582ZM16.864 2.81501C17.222 2.78101 17.496 2.879 17.725 3.13801C17.956 3.399 17.894 4.084 17.473 5.067C17.0207 4.37871 16.4767 3.7553 15.856 3.21401C16.287 2.95201 16.632 2.84101 16.864 2.81501ZM2.63298 15.118C3.07764 15.7629 3.60478 16.3469 4.20098 16.855C3.17598 17.158 2.48698 17.138 2.25598 16.876C2.03898 16.633 2.25798 15.807 2.63298 15.118ZM18.943 9.249C17.728 11.046 16.037 12.92 14.165 14.582C12.231 16.301 10.099 17.79 8.11498 18.784C8.7306 18.9195 9.35865 18.9906 9.98898 18.996C11.6153 18.9943 13.2107 18.5512 14.605 17.714C16.0535 16.8565 17.2296 15.6064 17.9972 14.1084C18.7649 12.6104 19.0928 10.9256 18.943 9.249Z" fill="#8086AC"/>
</svg>
