<svg width="110" height="20" viewBox="0 0 110 20" fill="none" xmlns="http://www.w3.org/2000/svg">
<g clipPath="url(#clip0)">
<path d="M32.4127 0C31.8154 5.57112e-05 31.2289 0.159883 30.7141 0.462913C30.1994 0.765943 29.775 1.20115 29.4851 1.7234L29.417 1.86383L26.8085 7.0383L23.4893 13.5787L25.6638 17.8638L25.7829 18.0979C26.1182 18.6909 26.6237 19.1697 27.234 19.4723C27.8436 19.1686 28.3488 18.6901 28.6851 18.0979L28.8042 17.8638L35.3191 5.00851L35.4766 4.69787C35.6981 4.18941 35.7898 3.63382 35.7433 3.08113C35.6967 2.52844 35.5135 1.996 35.21 1.53173C34.9066 1.06747 34.4924 0.685955 34.0049 0.421543C33.5173 0.15713 32.9716 0.0181183 32.417 0.0170213L32.4127 0ZM12.2766 6.22553L10.1063 1.97021L9.98719 1.73617C9.6547 1.14354 9.1502 0.665758 8.54039 0.365957C7.93164 0.665292 7.42738 1.14136 7.09358 1.73191L6.97017 1.97021L0.446768 14.8128L0.289321 15.1191C-0.0624687 15.9069 -0.0962245 16.8002 0.195107 17.6123C0.486438 18.4244 1.08032 19.0925 1.85267 19.477C2.62501 19.8616 3.51608 19.9328 4.33968 19.6758C5.16329 19.4187 5.85572 18.8534 6.2723 18.0979L6.34464 17.9617L8.97017 12.7872L12.2851 6.25106L12.2766 6.22553V6.22553Z" fill="#FF5100"/>
<path d="M32.4043 0C31.8076 0.00036792 31.2218 0.160367 30.7078 0.463404C30.1937 0.766441 29.7701 1.20148 29.4809 1.7234L29.4085 1.86383L26.783 7.0383L23.4596 13.5787L25.6383 17.8638L25.7575 18.0979C26.0915 18.6919 26.5973 19.171 27.2085 19.4723C27.8198 19.171 28.3256 18.6919 28.6596 18.0979L28.783 17.8638L35.3192 5.00851L35.4724 4.69787C35.6939 4.18941 35.7856 3.63382 35.7391 3.08113C35.6925 2.52844 35.5093 1.996 35.2058 1.53173C34.9024 1.06747 34.4882 0.685955 34.0007 0.421543C33.5131 0.15713 32.9674 0.0181183 32.4128 0.0170213L32.4043 0V0Z" fill="url(#paint0_linear)"/>
<path d="M3.34471 19.8213C3.93931 19.8231 4.52362 19.6663 5.03747 19.3671C5.55131 19.0679 5.97611 18.6372 6.26812 18.1192L6.34046 17.9788L8.97024 12.8043L12.2894 6.26389L10.1149 1.95751L9.99577 1.72347C9.65938 1.12981 9.15235 0.650952 8.54046 0.348999C7.93014 0.651646 7.42466 1.13044 7.08939 1.72347L6.97024 1.95751L0.425562 14.8128L0.268116 15.1235C0.0465387 15.6319 -0.0451125 16.1875 0.00141283 16.7402C0.0479382 17.2929 0.231179 17.8253 0.53464 18.2896C0.838101 18.7539 1.25226 19.1354 1.73982 19.3998C2.22738 19.6642 2.77305 19.8032 3.32769 19.8043L3.34471 19.8213V19.8213Z" fill="url(#paint1_linear)"/>
<path d="M12.2766 6.22548L10.1063 1.97016L9.9872 1.73612C9.65319 1.14211 9.14736 0.662984 8.53613 0.361649C8.73937 0.262111 8.95169 0.182312 9.17018 0.123351C9.44838 0.0528552 9.73424 0.0171216 10.0212 0.0169678H14.5659C15.1593 0.0186068 15.7417 0.176864 16.2542 0.475741C16.7668 0.774619 17.1914 1.20352 17.4851 1.7191L17.6042 1.95314L23.4808 13.5957L25.6468 17.851L25.7659 18.0851C26.1037 18.6853 26.6156 19.169 27.234 19.4723C26.7737 19.696 26.2692 19.8138 25.7574 19.817H21.1872C20.5945 19.815 20.0128 19.6566 19.501 19.3577C18.9891 19.0588 18.5653 18.6301 18.2723 18.1148L18.1489 17.8808L12.2766 6.22548V6.22548Z" fill="#FF8C44"/>
<path d="M41.2766 10.1362C41.2711 10.0879 41.2767 10.0391 41.2927 9.99324C41.3088 9.94741 41.3349 9.90578 41.3693 9.87145C41.4036 9.83711 41.4452 9.81095 41.4911 9.7949C41.5369 9.77885 41.5857 9.77333 41.634 9.77874H41.8893C41.9364 9.77523 41.9837 9.78222 42.0277 9.7992C42.0718 9.81617 42.1116 9.84271 42.1441 9.87691C42.1767 9.9111 42.2013 9.95209 42.2161 9.99693C42.2309 10.0418 42.2355 10.0893 42.2297 10.1362V10.9617C42.2297 11.1349 42.211 11.3073 42.1744 11.4766H42.2042C42.4543 10.9188 42.8608 10.4455 43.3743 10.114C43.8879 9.78242 44.4865 9.60685 45.0978 9.60853C46.8808 9.60853 47.5063 10.6213 47.5063 12.3873V16.5958C47.5118 16.644 47.5062 16.6929 47.4902 16.7387C47.4741 16.7845 47.448 16.8262 47.4136 16.8605C47.3793 16.8948 47.3377 16.921 47.2918 16.9371C47.246 16.9531 47.1972 16.9586 47.1489 16.9532H46.8808C46.8332 16.9582 46.7851 16.9523 46.7401 16.9359C46.6951 16.9195 46.6544 16.8931 46.6212 16.8586C46.588 16.8242 46.563 16.7826 46.5483 16.737C46.5336 16.6915 46.5294 16.6432 46.5361 16.5958V12.6468C46.5361 11.5192 46.3531 10.5192 44.9702 10.5192C43.4425 10.5192 42.2468 11.7745 42.2468 13.4468V16.5958C42.2535 16.6432 42.2493 16.6915 42.2346 16.737C42.2198 16.7826 42.1949 16.8242 42.1617 16.8586C42.1284 16.8931 42.0878 16.9195 42.0428 16.9359C41.9978 16.9523 41.9497 16.9582 41.9021 16.9532H41.634C41.5857 16.9586 41.5369 16.9531 41.4911 16.9371C41.4452 16.921 41.4036 16.8948 41.3693 16.8605C41.3349 16.8262 41.3088 16.7845 41.2927 16.7387C41.2767 16.6929 41.2711 16.644 41.2766 16.5958V10.1362ZM52.7191 12.5617H53.1446V12.3319C53.1446 10.949 52.3872 10.4766 51.3744 10.4766C50.7596 10.4837 50.1581 10.6573 49.634 10.9787C49.5954 11.0046 49.5519 11.0223 49.5062 11.0305C49.4605 11.0388 49.4136 11.0375 49.3684 11.0267C49.3232 11.0159 49.2808 10.9958 49.2437 10.9678C49.2067 10.9398 49.1758 10.9044 49.1531 10.8638L49.0638 10.7192C49.0346 10.682 49.0139 10.6389 49.0032 10.5929C48.9924 10.5468 48.9919 10.499 49.0017 10.4528C49.0114 10.4065 49.0311 10.363 49.0595 10.3252C49.0879 10.2874 49.1242 10.2563 49.1659 10.2341C49.8549 9.82129 50.6436 9.60497 51.4468 9.60853C53.1489 9.60853 54.1148 10.5617 54.1148 12.3617V16.617C54.1216 16.6644 54.1174 16.7127 54.1027 16.7583C54.0879 16.8038 54.063 16.8454 54.0298 16.8799C53.9965 16.9144 53.9559 16.9408 53.9109 16.9572C53.8659 16.9736 53.8178 16.9795 53.7702 16.9745H53.5446C53.4962 16.9807 53.447 16.9758 53.4008 16.9601C53.3545 16.9443 53.3126 16.9182 53.278 16.8836C53.2435 16.8491 53.2174 16.8071 53.2016 16.7609C53.1859 16.7147 53.1809 16.6655 53.1872 16.617V16.0255C53.1852 15.8445 53.1995 15.6636 53.2297 15.4851H53.1914C52.995 15.9695 52.6601 16.3852 52.2287 16.6804C51.7973 16.9755 51.2886 17.137 50.7659 17.1447C49.5531 17.1447 48.3404 16.4341 48.3404 15.0511C48.3404 12.6894 51.3361 12.5617 52.7191 12.5617V12.5617ZM50.9361 16.2936C52.3191 16.2936 53.1319 14.8681 53.1319 13.6128V13.2724H52.7319C51.6042 13.2724 49.3276 13.3149 49.3276 14.9234C49.3361 15.6128 49.868 16.2936 50.9361 16.2936ZM55.4851 10.1362C55.4796 10.0879 55.4852 10.0391 55.5012 9.99324C55.5173 9.94741 55.5434 9.90578 55.5778 9.87145C55.6121 9.83711 55.6537 9.81095 55.6996 9.7949C55.7454 9.77885 55.7942 9.77333 55.8425 9.77874H56.0978C56.1449 9.77523 56.1922 9.78222 56.2363 9.7992C56.2803 9.81617 56.3201 9.84271 56.3526 9.87691C56.3852 9.9111 56.4098 9.95209 56.4246 9.99693C56.4394 10.0418 56.4441 10.0893 56.4383 10.1362V10.9617C56.4383 11.1349 56.4195 11.3073 56.3829 11.4766H56.4127C56.6325 10.9488 56.9966 10.4936 57.4632 10.1632C57.9299 9.83279 58.4802 9.64055 59.051 9.60853C60.3744 9.60853 61.0595 10.2213 61.2595 11.4043H61.2765C61.5073 10.8903 61.876 10.4503 62.3418 10.1333C62.8075 9.81632 63.3521 9.63465 63.9148 9.60853C65.6553 9.60853 66.2936 10.6213 66.2936 12.3873V16.5958C66.2989 16.6436 66.2934 16.6921 66.2776 16.7376C66.2618 16.783 66.236 16.8244 66.2022 16.8587C66.1683 16.8929 66.1273 16.9192 66.082 16.9355C66.0367 16.9519 65.9883 16.9579 65.9404 16.9532H65.6808C65.6326 16.9586 65.5837 16.9531 65.5379 16.9371C65.492 16.921 65.4504 16.8948 65.4161 16.8605C65.3817 16.8262 65.3556 16.7845 65.3395 16.7387C65.3235 16.6929 65.3179 16.644 65.3234 16.5958V12.6298C65.3234 11.4638 65.0851 10.5021 63.7872 10.5021C62.3446 10.5021 61.3744 12.0128 61.3744 13.4809V16.5873C61.3819 16.6344 61.3784 16.6827 61.3642 16.7282C61.35 16.7738 61.3255 16.8155 61.2926 16.8501C61.2596 16.8847 61.2192 16.9112 61.1743 16.9276C61.1295 16.944 61.0815 16.9499 61.034 16.9447H60.7617C60.7134 16.9501 60.6645 16.9446 60.6187 16.9285C60.5729 16.9125 60.5313 16.8863 60.4969 16.852C60.4626 16.8177 60.4364 16.776 60.4204 16.7302C60.4043 16.6844 60.3988 16.6355 60.4042 16.5873V12.6298C60.4042 11.549 60.2468 10.5021 58.8936 10.5021C57.4382 10.5021 56.4425 12.0426 56.4425 13.4809V16.5873C56.4492 16.6347 56.4451 16.683 56.4303 16.7285C56.4156 16.7741 56.3906 16.8156 56.3574 16.8501C56.3242 16.8846 56.2835 16.911 56.2386 16.9274C56.1936 16.9438 56.1454 16.9497 56.0978 16.9447H55.8297C55.7815 16.9501 55.7326 16.9446 55.6868 16.9285C55.641 16.9125 55.5993 16.8863 55.565 16.852C55.5307 16.8177 55.5045 16.776 55.4885 16.7302C55.4724 16.6844 55.4669 16.6355 55.4723 16.5873L55.4851 10.1362V10.1362ZM70.7574 9.60853C72.668 9.60853 73.7361 10.9915 73.7361 13.0128C73.7362 13.0612 73.7264 13.1091 73.7074 13.1536C73.6884 13.1981 73.6605 13.2383 73.6255 13.2717C73.5905 13.3052 73.549 13.3311 73.5037 13.3481C73.4583 13.365 73.41 13.3725 73.3617 13.3702H68.217C68.2595 15.1958 69.5148 16.2383 71 16.2383C71.6831 16.2352 72.3454 16.003 72.8808 15.5787C72.9147 15.5466 72.9557 15.5229 73.0005 15.5095C73.0452 15.4962 73.0925 15.4935 73.1385 15.5018C73.1845 15.5101 73.2279 15.5291 73.2652 15.5572C73.3024 15.5854 73.3326 15.6219 73.3531 15.6638L73.468 15.8383C73.493 15.8755 73.5102 15.9173 73.5186 15.9612C73.5269 16.0052 73.5263 16.0504 73.5168 16.0941C73.5073 16.1379 73.489 16.1792 73.463 16.2157C73.4371 16.2522 73.4041 16.283 73.3659 16.3064C72.6779 16.8355 71.838 17.1294 70.9702 17.1447C70.4722 17.1609 69.9763 17.0743 69.5134 16.8901C69.0505 16.7059 68.6306 16.4282 68.2799 16.0743C67.9292 15.7205 67.6554 15.298 67.4754 14.8335C67.2954 14.3689 67.2132 13.8722 67.234 13.3745C67.234 11.0213 68.817 9.60853 70.7574 9.60853V9.60853ZM72.7659 12.6596C72.7063 11.149 71.7957 10.4043 70.7234 10.4043C70.1046 10.4039 69.5081 10.6352 69.0513 11.0526C68.5945 11.47 68.3106 12.0433 68.2553 12.6596H72.7659V12.6596ZM78.3702 9.60853C79.2343 9.59769 80.0758 9.88469 80.7531 10.4213C80.7929 10.4465 80.8264 10.4806 80.8509 10.5208C80.8754 10.561 80.8903 10.6064 80.8944 10.6533C80.8985 10.7003 80.8917 10.7475 80.8746 10.7914C80.8575 10.8353 80.8305 10.8746 80.7957 10.9064L80.6978 11.0638C80.5702 11.2638 80.4127 11.2638 80.2127 11.1362C79.6984 10.7213 79.0606 10.4893 78.4 10.4766C78.0229 10.4721 77.6488 10.5448 77.3008 10.6902C76.9528 10.8355 76.6383 11.0505 76.3764 11.3219C76.1146 11.5933 75.911 11.9154 75.7782 12.2684C75.6454 12.6214 75.5862 12.9978 75.6042 13.3745C75.5885 13.7509 75.6499 14.1265 75.7845 14.4783C75.9192 14.8302 76.1243 15.1508 76.3872 15.4205C76.6502 15.6903 76.9655 15.9035 77.3138 16.047C77.6621 16.1906 78.0361 16.2615 78.4127 16.2553C79.1521 16.2487 79.8652 15.9803 80.4255 15.4979C80.458 15.4629 80.4988 15.4366 80.5441 15.4215C80.5895 15.4064 80.6379 15.4029 80.6849 15.4114C80.7319 15.4198 80.7761 15.44 80.8133 15.47C80.8505 15.5 80.8796 15.5388 80.8978 15.583L80.9957 15.7277C81.0223 15.7646 81.0413 15.8065 81.0514 15.8509C81.0616 15.8953 81.0627 15.9413 81.0548 15.9861C81.0468 16.0309 81.03 16.0737 81.0052 16.1119C80.9805 16.1501 80.9483 16.183 80.9106 16.2085C80.1935 16.8041 79.2895 17.128 78.3574 17.1234C77.8595 17.1418 77.3632 17.0575 76.8994 16.8758C76.4355 16.6941 76.014 16.4188 75.6612 16.0671C75.3083 15.7154 75.0316 15.2949 74.8483 14.8317C74.665 14.3684 74.579 13.8724 74.5957 13.3745C74.5803 12.875 74.6675 12.3777 74.8518 11.9133C75.0362 11.4489 75.3138 11.0272 75.6675 10.6742C76.0212 10.3213 76.4436 10.0446 76.9084 9.86134C77.3733 9.67805 77.8708 9.592 78.3702 9.60853V9.60853ZM81.9787 7.28512C81.9712 7.23796 81.9747 7.18971 81.9889 7.14413C82.0031 7.09854 82.0276 7.05683 82.0605 7.02226C82.0935 6.98768 82.1339 6.96116 82.1788 6.94476C82.2236 6.92835 82.2716 6.92251 82.3191 6.92768H82.5914C82.6397 6.92226 82.6886 6.92778 82.7344 6.94383C82.7802 6.95988 82.8218 6.98605 82.8562 7.02038C82.8905 7.05472 82.9167 7.09635 82.9327 7.14218C82.9488 7.18801 82.9543 7.23687 82.9489 7.28512V10.8638C82.9489 11.0596 82.9306 11.2549 82.8936 11.4468H82.9191C83.1718 10.8986 83.5761 10.4341 84.0844 10.1084C84.5926 9.78261 85.1835 9.60916 85.7872 9.60853C87.5702 9.60853 88.1957 10.6213 88.1957 12.3873V16.5958C88.1957 16.8255 88.0851 16.9532 87.8553 16.9532H87.5829C87.5347 16.9586 87.4858 16.9531 87.44 16.9371C87.3942 16.921 87.3525 16.8948 87.3182 16.8605C87.2839 16.8262 87.2577 16.7845 87.2416 16.7387C87.2256 16.6929 87.2201 16.644 87.2255 16.5958V12.6468C87.2255 11.5192 87.0553 10.5192 85.6595 10.5192C84.1489 10.5192 82.9489 11.7617 82.9489 13.4979V16.6043C82.9543 16.6525 82.9488 16.7014 82.9327 16.7472C82.9167 16.793 82.8905 16.8347 82.8562 16.869C82.8218 16.9034 82.7802 16.9295 82.7344 16.9456C82.6886 16.9616 82.6397 16.9671 82.5914 16.9617H82.3191C82.2716 16.9669 82.2236 16.961 82.1788 16.9446C82.1339 16.9282 82.0935 16.9017 82.0605 16.8671C82.0276 16.8326 82.0031 16.7909 81.9889 16.7453C81.9747 16.6997 81.9712 16.6514 81.9787 16.6043V7.28512ZM92.6595 9.60853C94.5702 9.60853 95.6382 10.9915 95.6382 13.0128C95.6383 13.0608 95.6286 13.1084 95.6099 13.1526C95.5911 13.1968 95.5636 13.2368 95.5291 13.2702C95.4945 13.3035 95.4536 13.3296 95.4087 13.3468C95.3639 13.364 95.316 13.3719 95.268 13.3702H90.1234C90.1659 15.1958 91.4212 16.2383 92.9021 16.2383C93.5865 16.2352 94.2501 16.003 94.7872 15.5787C94.8207 15.5466 94.8614 15.5229 94.9058 15.5095C94.9503 15.4961 94.9973 15.4934 95.043 15.5018C95.0886 15.5101 95.1317 15.5291 95.1686 15.5573C95.2055 15.5854 95.2352 15.622 95.2553 15.6638L95.3702 15.8383C95.3953 15.8752 95.4127 15.9168 95.4214 15.9606C95.4301 16.0044 95.4299 16.0495 95.4208 16.0932C95.4116 16.1369 95.3938 16.1783 95.3683 16.2149C95.3428 16.2516 95.3101 16.2827 95.2723 16.3064C94.5834 16.8339 93.744 17.1276 92.8765 17.1447C92.3792 17.1625 91.8836 17.0778 91.4204 16.8957C90.9573 16.7137 90.5366 16.4383 90.1845 16.0866C89.8324 15.7349 89.5565 15.3145 89.374 14.8516C89.1914 14.3887 89.1061 13.8931 89.1234 13.3958C89.1234 11.0213 90.7191 9.60853 92.6595 9.60853V9.60853ZM94.6723 12.6596C94.617 11.149 93.7021 10.4043 92.6297 10.4043C92.0111 10.403 91.4146 10.6341 90.9583 11.0518C90.502 11.4695 90.2192 12.0433 90.1659 12.6596H94.6723ZM100.477 12.5617H100.902V12.3319C100.902 10.949 100.145 10.4766 99.1319 10.4766C98.518 10.4813 97.9173 10.655 97.3957 10.9787C97.3568 11.0047 97.313 11.0224 97.2669 11.0307C97.2209 11.039 97.1736 11.0377 97.1281 11.0269C97.0826 11.0162 97.0398 10.9961 97.0024 10.9681C96.9649 10.94 96.9337 10.9045 96.9106 10.8638L96.8255 10.7192C96.7961 10.6823 96.7752 10.6394 96.7641 10.5936C96.7531 10.5477 96.7522 10.5001 96.7615 10.4538C96.7709 10.4076 96.7902 10.364 96.8181 10.326C96.8461 10.2881 96.882 10.2567 96.9234 10.2341C97.6123 9.82129 98.4011 9.60497 99.2042 9.60853C100.906 9.60853 101.872 10.5617 101.872 12.3617V16.617C101.879 16.6644 101.875 16.7127 101.86 16.7583C101.845 16.8038 101.82 16.8454 101.787 16.8799C101.754 16.9144 101.713 16.9408 101.668 16.9572C101.623 16.9736 101.575 16.9795 101.528 16.9745H101.277C101.228 16.9807 101.179 16.9758 101.133 16.9601C101.086 16.9443 101.044 16.9182 101.01 16.8836C100.975 16.8491 100.949 16.8071 100.934 16.7609C100.918 16.7147 100.913 16.6655 100.919 16.617V16.0255C100.917 15.8445 100.931 15.6636 100.962 15.4851H100.932C100.737 15.9669 100.404 16.3808 99.9762 16.6757C99.5482 16.9707 99.0431 17.1337 98.5234 17.1447C97.3106 17.1447 96.0978 16.4341 96.0978 15.0511C96.0978 12.6894 99.0936 12.5617 100.477 12.5617V12.5617ZM98.6936 16.2936C100.077 16.2936 100.889 14.8681 100.889 13.6128V13.2724H100.489C99.3617 13.2724 97.0851 13.3149 97.0851 14.9234C97.0936 15.6128 97.6212 16.2936 98.6936 16.2936ZM103.255 10.1362C103.249 10.0888 103.253 10.0405 103.267 9.99493C103.282 9.94938 103.307 9.90779 103.34 9.87333C103.374 9.83887 103.414 9.81244 103.459 9.79604C103.504 9.77965 103.552 9.77374 103.6 9.77874H103.83C103.875 9.77291 103.921 9.77722 103.964 9.79138C104.007 9.80553 104.047 9.82916 104.08 9.86054C104.113 9.89193 104.139 9.93028 104.155 9.97282C104.171 10.0153 104.178 10.061 104.174 10.1064V10.6213C104.176 10.784 104.161 10.9464 104.132 11.1064H104.157C104.385 10.6398 104.744 10.2497 105.19 9.9837C105.636 9.71769 106.149 9.58733 106.668 9.60853C108.596 9.60853 109.791 11.149 109.791 13.3745C109.791 15.6 108.434 17.1447 106.566 17.1447C106.074 17.1504 105.59 17.0168 105.171 16.7593C104.751 16.5018 104.413 16.1309 104.196 15.6894H104.17C104.208 15.897 104.227 16.1081 104.225 16.3192V19.4681C104.231 19.5164 104.225 19.5652 104.209 19.611C104.193 19.6569 104.167 19.6985 104.133 19.7328C104.098 19.7672 104.057 19.7933 104.011 19.8094C103.965 19.8254 103.916 19.831 103.868 19.8256H103.6C103.552 19.8306 103.504 19.8246 103.459 19.8082C103.414 19.7919 103.374 19.7654 103.34 19.731C103.307 19.6965 103.282 19.6549 103.267 19.6094C103.253 19.5638 103.249 19.5155 103.255 19.4681V10.1362V10.1362ZM106.464 16.2553C107.74 16.2553 108.791 15.2 108.791 13.3745C108.791 11.617 107.847 10.4936 106.523 10.4936C105.323 10.4936 104.196 11.3447 104.196 13.3873C104.196 14.8255 104.996 16.2553 106.464 16.2553Z" fill="#6E6F71"/>
</g>
<defs>
<linearGradient id="paint0_linear" x1="27.8111" y1="18.4894" x2="35.4149" y2="2.18425" gradientUnits="userSpaceOnUse">
<stop stop-color="#D4202C"/>
<stop offset="0.1" stop-color="#DC3D29" stop-opacity="0.79"/>
<stop offset="0.2" stop-color="#E45926" stop-opacity="0.58"/>
<stop offset="0.32" stop-color="#EA7123" stop-opacity="0.4"/>
<stop offset="0.43" stop-color="#F08521" stop-opacity="0.25"/>
<stop offset="0.55" stop-color="#F4941F" stop-opacity="0.14"/>
<stop offset="0.68" stop-color="#F79F1E" stop-opacity="0.06"/>
<stop offset="0.82" stop-color="#F8A51D" stop-opacity="0.02"/>
<stop offset="1" stop-color="#F9A71D" stop-opacity="0"/>
</linearGradient>
<linearGradient id="paint1_linear" x1="7.93786" y1="1.33196" x2="0.333246" y2="17.6389" gradientUnits="userSpaceOnUse">
<stop stop-color="#D4202C"/>
<stop offset="0.1" stop-color="#DC3D29" stop-opacity="0.79"/>
<stop offset="0.2" stop-color="#E45926" stop-opacity="0.58"/>
<stop offset="0.32" stop-color="#EA7123" stop-opacity="0.4"/>
<stop offset="0.43" stop-color="#F08521" stop-opacity="0.25"/>
<stop offset="0.55" stop-color="#F4941F" stop-opacity="0.14"/>
<stop offset="0.68" stop-color="#F79F1E" stop-opacity="0.06"/>
<stop offset="0.82" stop-color="#F8A51D" stop-opacity="0.02"/>
<stop offset="1" stop-color="#F9A71D" stop-opacity="0"/>
</linearGradient>
<clipPath id="clip0">
<rect width="109.787" height="20" fill="white"/>
</clipPath>
</defs>
</svg>
