<svg width="42" height="42" viewBox="0 0 400 400" fill="none" xmlns="http://www.w3.org/2000/svg">
<g clip-path="url(#clip0_203_6)">
<path d="M330.606 0H69.2525C31.0296 0 0 31.0187 0 69.2281V330.49C0 368.699 31.0296 399.718 69.2525 399.718H98.4485H131.05C162.665 399.718 188.293 374.089 188.293 342.474V342.474C188.293 295.806 183.442 258.23 157.053 240.441C148.042 234.367 140.48 225.323 140.48 214.457V214.457C140.48 200.059 153.016 188.43 166.748 192.758C215.898 208.248 240.338 254.749 240.338 324.85V345.698C240.338 375.688 264.65 400 294.64 400V400H330.748C368.97 400 400 368.981 400 330.772V69.2281C399.859 31.0187 368.829 0 330.606 0ZM201.975 144.378C180.818 144.378 163.611 127.177 163.611 106.027C163.611 84.8784 180.818 67.6771 201.975 67.6771C223.131 67.6771 240.197 84.8784 240.197 106.168C240.197 127.318 223.131 144.378 201.975 144.378Z" fill="black"/>
</g>
<defs>
<clipPath id="clip0_203_6">
<rect width="400" height="400" rx="100" fill="white"/>
</clipPath>
</defs>
</svg>
