<svg width="40" height="40" viewBox="0 0 40 40" fill="none" xmlns="http://www.w3.org/2000/svg">
<rect width="40" height="40" rx="5" fill="#179BD7"/>
<g clipPath="url(#clip0)">
<path opacity="0.4" d="M27.8027 14.5893C27.7823 14.7198 27.759 14.8532 27.7327 14.9903C26.8309 19.6204 23.7456 21.2199 19.8052 21.2199H17.7989C17.317 21.2199 16.911 21.5698 16.8359 22.0451L15.8087 28.5597L15.5178 30.4064C15.4689 30.7184 15.7095 30.9998 16.0245 30.9998H19.5829C20.0043 30.9998 20.3622 30.6936 20.4286 30.2781L20.4635 30.0973L21.1335 25.8456L21.1765 25.6123C21.2422 25.1953 21.6008 24.8891 22.0222 24.8891H22.5544C26.002 24.8891 28.7009 23.4893 29.4897 19.4388C29.8192 17.7467 29.6486 16.3339 28.7767 15.3402C28.5128 15.0406 28.1855 14.792 27.8027 14.5893Z" fill="white"/>
<path opacity="0.7" d="M26.8594 14.2133C26.7216 14.1732 26.5795 14.1368 26.4336 14.104C26.2871 14.0719 26.1369 14.0434 25.9824 14.0187C25.4414 13.9312 24.8487 13.8896 24.2137 13.8896H18.8539C18.7219 13.8896 18.5966 13.9195 18.4843 13.9735C18.2371 14.0923 18.0534 14.3263 18.009 14.6128L16.8687 21.8346L16.8359 22.0453C16.911 21.57 17.3171 21.22 17.799 21.22H19.8053C23.7457 21.22 26.831 19.6198 27.7328 14.9905C27.7598 14.8534 27.7824 14.72 27.8028 14.5895C27.5746 14.4685 27.3274 14.3649 27.0613 14.2767C26.9957 14.2549 26.9279 14.2337 26.8594 14.2133Z" fill="white"/>
<path d="M18.0089 14.6128C18.0534 14.3263 18.2371 14.0923 18.4842 13.9742C18.5972 13.9202 18.7219 13.8903 18.8539 13.8903H24.2137C24.8487 13.8903 25.4414 13.9319 25.9823 14.0194C26.1369 14.0442 26.2871 14.0726 26.4336 14.1047C26.5794 14.1375 26.7216 14.1739 26.8594 14.214C26.9279 14.2345 26.9957 14.2556 27.062 14.2767C27.3281 14.3649 27.5753 14.4692 27.8035 14.5895C28.0717 12.8785 27.8013 11.7135 26.8761 10.6585C25.8562 9.4972 24.0154 9 21.6599 9H14.8216C14.3404 9 13.93 9.34994 13.8556 9.82599L11.0073 27.8805C10.9511 28.2377 11.2267 28.5599 11.5869 28.5599H15.8087L16.8687 21.8346L18.0089 14.6128Z" fill="white"/>
</g>
<defs>
<clipPath id="clip0">
<rect width="18.646" height="22" fill="white" transform="translate(11 9)"/>
</clipPath>
</defs>
</svg>
