<svg width="71" height="20" viewBox="0 0 71 20" fill="none" xmlns="http://www.w3.org/2000/svg">
<g clipPath="url(#clip0)">
<path d="M15.2052 3.788C15.1915 3.68866 15.1048 3.63354 15.0327 3.62754C14.9612 3.62154 13.5608 3.60026 13.5608 3.60026C13.5608 3.60026 12.3895 2.46287 12.2738 2.34716C12.1582 2.23146 11.9322 2.26639 11.8443 2.29259C11.8432 2.29313 11.6244 2.36081 11.256 2.47488C11.1943 2.27512 11.1037 2.02952 10.9744 1.78284C10.5574 0.987102 9.94669 0.566311 9.20879 0.565223C9.2077 0.565223 9.20715 0.565223 9.20607 0.565223C9.15475 0.565223 9.104 0.570134 9.05272 0.574498C9.03089 0.548302 9.00905 0.522652 8.98613 0.497544C8.66466 0.15371 8.25262 -0.013842 7.75869 0.00089381C6.80577 0.0281824 5.85669 0.7164 5.08715 1.93893C4.54574 2.79906 4.13367 3.8797 4.01689 4.71636C2.92261 5.05528 2.15743 5.29213 2.14051 5.29761C1.58819 5.47115 1.57073 5.48807 1.49869 6.00875C1.4452 6.40223 0 17.5775 0 17.5775L12.1112 19.6721L17.3604 18.3672C17.3604 18.3672 15.2188 3.88734 15.2052 3.788ZM10.6496 2.66262C10.3708 2.74885 10.0536 2.84709 9.7098 2.95352C9.70272 2.47106 9.64541 1.79976 9.42056 1.2196C10.1437 1.35659 10.4995 2.1747 10.6496 2.66262ZM9.07616 3.14999C8.44144 3.34646 7.74885 3.56095 7.0541 3.776C7.24948 3.02774 7.62007 2.28276 8.07525 1.7943C8.24443 1.61256 8.48128 1.41008 8.7618 1.29437C9.02541 1.84451 9.08272 2.62332 9.07616 3.14999ZM7.77777 0.635079C8.00154 0.630167 8.18984 0.679288 8.35085 0.785167C8.09325 0.918882 7.84436 1.11099 7.61079 1.3615C7.00551 2.01097 6.54161 3.01901 6.35659 3.99157C5.7797 4.17003 5.21538 4.34525 4.6958 4.5057C5.02384 2.9748 6.30692 0.677649 7.77777 0.635079Z" fill="#95BF47"/>
<path d="M15.0332 3.6281C14.9617 3.6221 13.5613 3.60082 13.5613 3.60082C13.5613 3.60082 12.3901 2.46342 12.2744 2.34772C12.2312 2.3046 12.1728 2.28222 12.1117 2.27295L12.1123 19.6716L17.3609 18.3672C17.3609 18.3672 15.2193 3.8879 15.2057 3.78856C15.192 3.68921 15.1047 3.6341 15.0332 3.6281Z" fill="#5E8E3E"/>
<path d="M9.2022 6.32697L8.5926 8.60772C8.5926 8.60772 7.91257 8.29828 7.10647 8.34903C5.9243 8.42382 5.91175 9.16933 5.92378 9.35654C5.98817 10.3766 8.67171 10.5993 8.82237 12.9886C8.9408 14.8683 7.82522 16.1541 6.21794 16.2556C4.28863 16.3773 3.22656 15.2394 3.22656 15.2394L3.63535 13.5006C3.63535 13.5006 4.7045 14.3072 5.56027 14.2532C6.11916 14.2177 6.31889 13.7631 6.2987 13.4416C6.21466 12.111 4.02939 12.1896 3.89132 10.0033C3.77506 8.16349 4.98342 6.29913 7.64948 6.13103C8.67663 6.065 9.2022 6.32697 9.2022 6.32697Z" fill="white"/>
<path d="M24.2729 11.1029C23.6693 10.7754 23.3591 10.4993 23.3591 10.1198C23.3591 9.63698 23.79 9.32678 24.4629 9.32678C25.2462 9.32678 25.9455 9.65429 25.9455 9.65429L26.4972 7.96429C26.4972 7.96429 25.9899 7.5675 24.497 7.5675C22.4194 7.5675 20.9795 8.75731 20.9795 10.43C20.9795 11.3784 21.6518 12.1027 22.5488 12.6196C23.2731 13.0332 23.5318 13.3266 23.5318 13.7575C23.5318 14.2057 23.1697 14.5679 22.4974 14.5679C21.4954 14.5679 20.5491 14.0504 20.5491 14.0504L19.9629 15.7404C19.9629 15.7404 20.8371 16.3266 22.3079 16.3266C24.4461 16.3266 25.9808 15.2748 25.9808 13.378C25.9802 12.3614 25.2045 11.6371 24.2729 11.1029Z" fill="black"/>
<path d="M32.7911 7.55069C31.7393 7.55069 30.9116 8.05089 30.2739 8.80928L30.2393 8.79193L31.153 4.01587H28.7734L26.463 16.1718H28.8427L29.6357 12.0166C29.9459 10.4473 30.7562 9.48213 31.5152 9.48213C32.0494 9.48213 32.2568 9.84426 32.2568 10.3618C32.2568 10.6893 32.2221 11.0861 32.1534 11.4136L31.2569 16.1723H33.6367L34.5675 11.2582C34.6711 10.7407 34.7403 10.1204 34.7403 9.70623C34.7393 8.36105 34.0325 7.55069 32.7911 7.55069Z" fill="black"/>
<path d="M40.119 7.55078C37.2564 7.55078 35.3604 10.1372 35.3604 13.0165C35.3604 14.8613 36.4981 16.344 38.6364 16.344C41.4469 16.344 43.3436 13.8269 43.3436 10.8783C43.3436 9.1715 42.3433 7.55078 40.119 7.55078ZM38.9466 14.517C38.1361 14.517 37.7912 13.8274 37.7912 12.9651C37.7912 11.6031 38.4984 9.37885 39.7915 9.37885C40.6364 9.37885 40.9118 10.1031 40.9118 10.8101C40.9118 12.2754 40.2056 14.517 38.9466 14.517Z" fill="black"/>
<path d="M49.4302 7.55078C47.824 7.55078 46.9125 8.96472 46.9125 8.96472H46.8784L47.0164 7.68881H44.9128C44.8095 8.55114 44.6194 9.86114 44.4302 10.8442L42.7748 19.5513H45.1545L45.8092 16.0338H45.8613C45.8613 16.0338 46.3495 16.344 47.2581 16.344C50.0512 16.344 51.8787 13.4821 51.8787 10.5849C51.8787 8.98206 51.1715 7.55078 49.4302 7.55078ZM47.1541 14.5511C46.5364 14.5511 46.1708 14.2063 46.1708 14.2063L46.5676 11.9821C46.8436 10.4994 47.6194 9.51632 48.4472 9.51632C49.1715 9.51632 49.3954 10.1887 49.3954 10.8269C49.3954 12.3615 48.4817 14.5511 47.1541 14.5511Z" fill="black"/>
<path d="M55.2754 4.1366C54.5171 4.1366 53.9135 4.74017 53.9135 5.51588C53.9135 6.22286 54.3616 6.70571 55.0341 6.70571H55.0685C55.8102 6.70571 56.4479 6.20552 56.4653 5.32643C56.4653 4.63676 55.9997 4.1366 55.2754 4.1366Z" fill="black"/>
<path d="M51.9479 16.1718H54.3269L55.9482 7.74072H53.5512L51.9479 16.1718Z" fill="black"/>
<path d="M62.0003 7.72339H60.3449L60.4308 7.3266C60.5688 6.51624 61.0518 5.79195 61.8449 5.79195C62.2682 5.79195 62.6032 5.91267 62.6032 5.91267L63.0688 4.05054C63.0688 4.05054 62.655 3.84375 61.7754 3.84375C60.9305 3.84375 60.0862 4.08516 59.4478 4.63677C58.6373 5.32644 58.258 6.32624 58.0685 7.3266L58 7.72339H56.896L56.5511 9.5168H57.6551L56.3964 16.1723H58.776L60.0347 9.5168H61.6728L62.0003 7.72339Z" fill="black"/>
<path d="M67.7246 7.74067C67.7246 7.74067 66.237 11.4882 65.5692 13.5339H65.5344C65.4892 12.8751 64.9482 7.74067 64.9482 7.74067H62.4479L63.8797 15.4821C63.9144 15.6542 63.897 15.7582 63.8279 15.8789C63.5515 16.4132 63.0862 16.9307 62.5344 17.3101C62.0862 17.6376 61.5862 17.8444 61.1898 17.9824L61.8449 20C62.3279 19.8966 63.3275 19.4998 64.1724 18.7067C65.259 17.6896 66.2587 16.1203 67.2931 13.9821L70.2072 7.74011H67.7246V7.74067Z" fill="black"/>
</g>
<defs>
<clipPath id="clip0">
<rect width="70.4918" height="20" fill="white"/>
</clipPath>
</defs>
</svg>
