<svg width="40" height="40" viewBox="0 0 40 40" fill="none" xmlns="http://www.w3.org/2000/svg">
<rect width="40" height="40" rx="5" fill="#6772E5"/>
<path fill-rule="evenodd" clip-rule="evenodd" d="M18.5604 15.956C18.5604 15.0989 19.2637 14.7692 20.4286 14.7692C22.0989 14.7692 24.2088 15.2747 25.8791 16.1758V11.011C24.0549 10.2857 22.2527 10 20.4286 10C15.967 10 13 12.3297 13 16.2198C13 22.2857 21.3516 21.3187 21.3516 23.9341C21.3516 24.9451 20.4725 25.2747 19.2418 25.2747C17.4176 25.2747 15.0879 24.5275 13.2418 23.5165V28.7473C15.2857 29.6264 17.3516 30 19.2418 30C23.8132 30 26.956 27.7363 26.956 23.8022C26.9341 17.2527 18.5604 18.4176 18.5604 15.956Z" fill="white"/>
</svg>
