<svg width="48" height="20" viewBox="0 0 48 20" fill="none" xmlns="http://www.w3.org/2000/svg">
<path d="M8.91075 2.57911C9.46582 1.88483 9.8425 0.952613 9.74315 0C8.9306 0.0404037 7.93903 0.536071 7.36496 1.2309C6.84951 1.82591 6.39329 2.79716 6.51222 3.70984C7.42436 3.78895 8.33565 3.25391 8.91075 2.57911Z" fill="black"/>
<path d="M9.73263 3.88788C8.40799 3.80898 7.28172 4.63968 6.64914 4.63968C6.01621 4.63968 5.04752 3.92765 3.9998 3.94684C2.63612 3.96687 1.37079 4.7379 0.678788 5.9642C-0.744551 8.41741 0.303169 12.0564 1.68729 14.0544C2.35945 15.0428 3.16952 16.1312 4.23691 16.0921C5.24541 16.0526 5.6407 15.4391 6.86658 15.4391C8.09156 15.4391 8.44763 16.0921 9.5152 16.0723C10.6223 16.0526 11.3144 15.0834 11.9866 14.0939C12.7577 12.9671 13.0733 11.8791 13.0932 11.8194C13.0733 11.7996 10.9584 10.9883 10.9388 8.55544C10.9188 6.51841 12.5992 5.54948 12.6783 5.4894C11.7294 4.0859 10.2467 3.92765 9.73263 3.88788Z" fill="black"/>
<path d="M21.2661 1.1312C24.1452 1.1312 26.15 3.11578 26.15 6.00517C26.15 8.90488 24.104 10.8998 21.1939 10.8998H18.0062V15.9691H15.7031V1.1312H21.2661V1.1312ZM18.0062 8.96657H20.6489C22.6541 8.96657 23.7953 7.88701 23.7953 6.01548C23.7953 4.14416 22.6541 3.07472 20.6592 3.07472H18.0062V8.96657Z" fill="black"/>
<path d="M26.752 12.8947C26.752 11.0025 28.2018 9.84068 30.7727 9.69669L33.7339 9.52195V8.68913C33.7339 7.486 32.9215 6.76623 31.5644 6.76623C30.2788 6.76623 29.4767 7.38307 29.2816 8.34977H27.1839C27.3073 6.39593 28.9729 4.95639 31.6466 4.95639C34.2686 4.95639 35.9446 6.34456 35.9446 8.51419V15.9691H33.816V14.1902H33.7648C33.1377 15.3934 31.7699 16.1542 30.351 16.1542C28.2327 16.1542 26.752 14.838 26.752 12.8947ZM33.7339 11.9179V11.0644L31.0706 11.2289C29.7441 11.3215 28.9936 11.9076 28.9936 12.833C28.9936 13.7789 29.775 14.3959 30.9678 14.3959C32.5204 14.3959 33.7339 13.3265 33.7339 11.9179Z" fill="black"/>
<path d="M37.9542 19.9487V18.1492C38.1184 18.1902 38.4885 18.1902 38.6738 18.1902C39.702 18.1902 40.2573 17.7585 40.5965 16.648C40.5965 16.6273 40.792 15.9899 40.792 15.9796L36.8848 5.15186H39.2906L42.0261 13.9539H42.067L44.8024 5.15186H47.1468L43.0951 16.5347C42.1701 19.1569 41.1006 20.0001 38.859 20.0001C38.6738 20.0001 38.1184 19.9795 37.9542 19.9487Z" fill="black"/>
</svg>
