<svg width="51" height="20" viewBox="0 0 51 20" fill="none" xmlns="http://www.w3.org/2000/svg">
<path d="M23.7913 9.7271V15.6238H21.9199V1.06238H26.8809C28.1382 1.06238 29.2104 1.48148 30.0876 2.31969C30.9843 3.1579 31.4326 4.18129 31.4326 5.38987C31.4326 6.62768 30.9843 7.65107 30.0876 8.47953C29.2201 9.30799 28.148 9.71735 26.8809 9.71735H23.7913V9.7271ZM23.7913 2.85575V7.93372H26.9199C27.6607 7.93372 28.2844 7.68031 28.7718 7.18324C29.2689 6.68616 29.5223 6.08187 29.5223 5.39961C29.5223 4.7271 29.2689 4.13256 28.7718 3.63548C28.2844 3.11891 27.6704 2.8655 26.9199 2.8655H23.7913V2.85575Z" fill="black"/>
<path d="M36.3255 5.33151C37.7095 5.33151 38.8011 5.70188 39.6003 6.44262C40.3996 7.18336 40.7992 8.19701 40.7992 9.48356V15.6239H39.0156V14.2399H38.9376C38.1676 15.3802 37.1345 15.9455 35.8479 15.9455C34.7465 15.9455 33.8304 15.6239 33.0896 14.9709C32.3489 14.3179 31.9785 13.5089 31.9785 12.5342C31.9785 11.5011 32.3684 10.6824 33.1481 10.0781C33.9278 9.46406 34.9707 9.16192 36.267 9.16192C37.3781 9.16192 38.2943 9.3666 39.0058 9.77596V9.34711C39.0058 8.69408 38.7524 8.14827 38.2358 7.69019C37.7193 7.2321 37.115 7.00792 36.423 7.00792C35.3801 7.00792 34.5516 7.44652 33.9473 8.33346L32.3002 7.30032C33.2066 5.98453 34.5516 5.33151 36.3255 5.33151ZM33.9083 12.5635C33.9083 13.0508 34.113 13.4602 34.5321 13.7818C34.9415 14.1034 35.4288 14.2691 35.9844 14.2691C36.7738 14.2691 37.4756 13.9767 38.0896 13.3919C38.7037 12.8071 39.0156 12.1249 39.0156 11.3354C38.4308 10.8773 37.6218 10.6434 36.5789 10.6434C35.8187 10.6434 35.1851 10.8286 34.6783 11.1892C34.1618 11.5693 33.9083 12.0274 33.9083 12.5635Z" fill="black"/>
<path d="M50.9747 5.65314L44.7369 20.0001H42.807L45.1267 14.9806L41.0137 5.65314H43.0507L46.0137 12.8071H46.0527L48.9376 5.65314H50.9747Z" fill="black"/>
<path d="M16.3477 8.53802C16.3477 7.92788 16.2931 7.34406 16.1917 6.78265H8.34766V9.99903L12.8652 10C12.682 11.0702 12.0923 11.9825 11.1888 12.5906V14.6774H13.8779C15.448 13.2242 16.3477 11.076 16.3477 8.53802Z" fill="#4285F4"/>
<path d="M11.1898 12.5907C10.4413 13.0955 9.47736 13.3909 8.34968 13.3909C6.17132 13.3909 4.32337 11.923 3.66157 9.94446H0.887695V12.0965C2.26196 14.8236 5.08653 16.6949 8.34968 16.6949C10.605 16.6949 12.4998 15.9532 13.8789 14.6764L11.1898 12.5907Z" fill="#34A853"/>
<path d="M3.40058 8.34793C3.40058 7.79238 3.49317 7.25534 3.66179 6.75047V4.59842H0.887913C0.319687 5.7261 0 6.999 0 8.34793C0 9.69686 0.320661 10.9698 0.887913 12.0974L3.66179 9.9454C3.49317 9.44053 3.40058 8.90349 3.40058 8.34793Z" fill="#FABB05"/>
<path d="M8.34968 3.30409C9.58068 3.30409 10.683 3.72807 11.5534 4.55653L13.9364 2.17544C12.4891 0.827486 10.6021 0 8.34968 0C5.0875 0 2.26196 1.87134 0.887695 4.59844L3.66157 6.75049C4.32337 4.77193 6.17132 3.30409 8.34968 3.30409Z" fill="#E94235"/>
</svg>
