<svg width="71" height="20" viewBox="0 0 71 20" fill="none" xmlns="http://www.w3.org/2000/svg">
<g clipPath="url(#clip0)">
<path d="M34.3617 11.7402H35.8277L33.6229 19.8261H31.9822L30.3583 13.7252H30.3244L28.7005 19.8261H27.026L24.7705 11.7402H26.3043L27.8772 18.1347H27.9111L29.6705 11.7402H31.1701L32.8111 18.1233H32.845L34.3617 11.7402Z" fill="black"/>
<path d="M40.4034 16.195C40.4034 17.1498 40.4042 17.9024 40.4066 18.4531C40.4085 19.0038 40.4373 19.4617 40.4939 19.826H39.1348L39.067 19.206H39.0446C38.8718 19.4391 38.6451 19.6167 38.3651 19.7388C38.0851 19.861 37.7325 19.9221 37.3079 19.9221C36.7967 19.9221 36.3689 19.7671 36.0248 19.4569C35.6808 19.1468 35.5088 18.7289 35.5088 18.2024C35.5088 17.6389 35.7296 17.1866 36.1715 16.8463C36.6129 16.5065 37.3058 16.2777 38.2493 16.1614L39.078 16.06C39.078 15.6765 38.9876 15.4037 38.8073 15.2424C38.6267 15.0807 38.356 14.9981 37.9952 14.9943C37.6042 14.9943 37.234 15.0535 36.8844 15.1719C36.5345 15.2901 36.2659 15.4304 36.0782 15.5917V14.3455C36.2659 14.2441 36.5574 14.1417 36.9521 14.0385C37.3466 13.935 37.7621 13.8835 38.1981 13.8835C38.9198 13.8835 39.4679 14.0828 39.8418 14.4809C40.2168 14.8791 40.4034 15.4506 40.4034 16.195ZM38.4694 17.0575C37.868 17.1292 37.4439 17.2455 37.1978 17.4074C36.9516 17.5687 36.8287 17.7909 36.8287 18.0728C36.8287 18.3131 36.9009 18.5051 37.0455 18.6475C37.19 18.7905 37.409 18.8622 37.7024 18.8622C38.1272 18.8622 38.4635 18.7315 38.7115 18.4699C38.9596 18.2088 39.0857 17.8808 39.0894 17.4861V16.9844L38.4694 17.0575Z" fill="black"/>
<path d="M43.0483 11.2779H41.6836V19.826H43.0483V11.2779Z" fill="black"/>
<path d="M45.7316 11.2779H44.3672V19.826H45.7316V11.2779Z" fill="black"/>
<path d="M51.5397 18.3656V19.4876C51.3141 19.6305 51.0194 19.7463 50.6549 19.8345C50.29 19.9228 49.9009 19.9668 49.4875 19.9668C48.604 19.9668 47.917 19.7057 47.4265 19.1833C46.9358 18.6608 46.6904 17.933 46.6904 17.0009C46.6904 16.1024 46.9526 15.3629 47.4769 14.7823C48.0015 14.2011 48.6658 13.9107 49.4705 13.9107C50.2711 13.9107 50.8941 14.1561 51.3395 14.6465C51.7854 15.1375 52.0081 15.8149 52.0081 16.6795V17.3393H48.038C48.0986 17.9221 48.2855 18.329 48.5992 18.56C48.9128 18.791 49.3182 18.907 49.8142 18.907C50.1417 18.907 50.4532 18.8568 50.7503 18.7574C51.0472 18.6579 51.3107 18.5275 51.5397 18.3656ZM50.6661 16.3414C50.6661 15.8904 50.5612 15.5463 50.353 15.3095C50.1444 15.0727 49.85 14.9543 49.4705 14.9543C49.1432 14.9543 48.8501 15.0716 48.5906 15.3066C48.3314 15.5415 48.1583 15.8864 48.0719 16.3414H50.6661Z" fill="black"/>
<path d="M55.3452 18.8336C55.4242 18.8336 55.5188 18.8149 55.6298 18.7773C55.7405 18.7394 55.8373 18.6943 55.9205 18.6418V19.7697C55.8338 19.8185 55.6901 19.8638 55.489 19.9049C55.2879 19.9462 55.0897 19.967 54.8942 19.967C54.319 19.967 53.888 19.8139 53.6002 19.5072C53.3125 19.2011 53.1687 18.7394 53.1687 18.1231V15.146H52.2158V14.0296H53.1687V12.7268L54.539 12.3097V14.0296H55.9207V15.146H54.539V17.858C54.539 18.2154 54.6038 18.4671 54.7334 18.6135C54.863 18.7602 55.0671 18.8336 55.3452 18.8336Z" fill="black"/>
<path d="M33.7572 0.62397V8.70963H32.353V2.37189H32.3304L29.8213 8.70963H28.8908L26.3199 2.37189H26.3031V8.70963H25.0059V0.62397H27.0189L29.3421 6.61794H29.3757L31.8287 0.62397H33.7572ZM34.9315 1.2387C34.9315 1.01308 35.0133 0.823991 35.1768 0.671975C35.3403 0.519692 35.5347 0.443417 35.7603 0.443417C36.0009 0.443417 36.2001 0.521559 36.358 0.677576C36.5159 0.833592 36.5951 1.02055 36.5951 1.2387C36.5951 1.46033 36.514 1.64648 36.3527 1.79663C36.1911 1.94704 35.9934 2.02225 35.7603 2.02225C35.5275 2.02225 35.331 1.94624 35.1715 1.79396C35.0109 1.64168 34.9315 1.45659 34.9315 1.2387ZM36.4367 8.70963H35.0723V2.91328H36.4367V8.70963ZM40.5758 7.71726C40.7787 7.71726 41.0022 7.67032 41.2468 7.57644C41.4911 7.4823 41.7164 7.35829 41.9234 7.20414V8.47281C41.7052 8.59682 41.4583 8.69096 41.1817 8.7547C40.906 8.81871 40.6019 8.85071 40.2712 8.85071C39.4181 8.85071 38.7244 8.58109 38.1907 8.04156C37.6568 7.5023 37.3898 6.81343 37.3898 5.97494C37.3898 5.04284 37.6624 4.27503 38.2075 3.67149C38.7527 3.06823 39.5247 2.7666 40.5248 2.7666C40.7803 2.7666 41.039 2.79967 41.3001 2.86528C41.5612 2.93115 41.769 3.00716 41.9231 3.09357V4.40197C41.7124 4.24756 41.4972 4.12834 41.2775 4.0438C41.0577 3.95926 40.8329 3.91685 40.6035 3.91685C40.0661 3.91685 39.632 4.09154 39.3013 4.44118C38.9703 4.79081 38.8052 5.2626 38.8052 5.85653C38.8052 6.44299 38.9639 6.89984 39.2812 7.22681C39.5992 7.55378 40.0307 7.71726 40.5758 7.71726ZM45.8083 2.81754C45.9169 2.81754 46.0148 2.825 46.1014 2.83994C46.1879 2.85487 46.2612 2.87381 46.3215 2.89621V4.27769C46.2497 4.22515 46.1457 4.17528 46.0086 4.12834C45.871 4.08141 45.7046 4.05794 45.5094 4.05794C45.1749 4.05794 44.892 4.19875 44.6605 4.48065C44.4298 4.76281 44.3138 5.19672 44.3138 5.78319V8.70963H42.9491V2.91328H44.3138V3.82671H44.3365C44.4605 3.51094 44.6482 3.26372 44.9002 3.08503C45.1523 2.90688 45.455 2.81754 45.8083 2.81754ZM46.3953 5.896C46.3953 4.9375 46.6658 4.17822 47.2072 3.61816C47.7483 3.05783 48.5004 2.7778 49.4626 2.7778C50.3683 2.7778 51.0764 3.04769 51.5858 3.58695C52.0946 4.12648 52.3493 4.85482 52.3493 5.77199C52.3493 6.71182 52.0786 7.4599 51.5375 8.01622C50.9964 8.57255 50.2592 8.85071 49.3271 8.85071C48.4289 8.85071 47.7152 8.58669 47.1874 8.05836C46.6591 7.53031 46.3953 6.80943 46.3953 5.896ZM47.816 5.85093C47.816 6.45633 47.9534 6.91851 48.2275 7.23801C48.502 7.55778 48.8948 7.71726 49.4063 7.71726C49.9024 7.71726 50.28 7.55778 50.5393 7.23801C50.799 6.91851 50.9284 6.44486 50.9284 5.81706C50.9284 5.19326 50.7939 4.72227 50.5254 4.40464C50.2566 4.08701 49.8797 3.92832 49.3949 3.92832C48.8948 3.92832 48.507 4.09447 48.2307 4.42731C47.9542 4.75988 47.816 5.23459 47.816 5.85093ZM54.3791 4.43558C54.3791 4.63106 54.4413 4.78441 54.5653 4.89536C54.6893 5.00604 54.9637 5.14605 55.3886 5.31514C55.9334 5.53329 56.3161 5.77865 56.5359 6.05122C56.7559 6.32378 56.8658 6.65341 56.8658 7.04065C56.8658 7.58578 56.6562 8.02369 56.2372 8.35439C55.8179 8.68536 55.2512 8.85071 54.537 8.85071C54.2967 8.85071 54.0308 8.82164 53.7391 8.76324C53.4478 8.7051 53.2006 8.63069 52.9979 8.54055V7.19854C53.2462 7.37162 53.5129 7.5087 53.7988 7.61005C54.0842 7.71166 54.3437 7.7626 54.5768 7.7626C54.8851 7.7626 55.1125 7.71913 55.2592 7.63272C55.4056 7.54631 55.479 7.40149 55.479 7.19854C55.479 7.01052 55.403 6.85183 55.2507 6.72222C55.0987 6.59234 54.8101 6.44299 54.3853 6.27391C53.8815 6.06322 53.5244 5.82639 53.3137 5.56343C53.1033 5.3002 52.9979 4.96577 52.9979 4.55959C52.9979 4.03713 53.2054 3.60775 53.6209 3.27119C54.0364 2.93488 54.5749 2.7666 55.2366 2.7666C55.4395 2.7666 55.667 2.78927 55.919 2.83434C56.1708 2.87941 56.3812 2.93782 56.5503 3.00902V4.30596C56.37 4.18568 56.1593 4.08247 55.919 3.9958C55.6785 3.90939 55.4395 3.86618 55.2027 3.86618C54.9435 3.86618 54.7416 3.91685 54.5968 4.01847C54.4517 4.11981 54.3791 4.25902 54.3791 4.43558ZM57.4523 5.896C57.4523 4.9375 57.723 4.17822 58.2643 3.61816C58.8052 3.05783 59.5573 2.7778 60.5198 2.7778C61.4255 2.7778 62.1333 3.04769 62.6427 3.58695C63.1518 4.12648 63.4065 4.85482 63.4065 5.77199C63.4065 6.71182 63.1358 7.4599 62.5944 8.01622C62.0535 8.57255 61.3164 8.85071 60.384 8.85071C59.4858 8.85071 58.7724 8.58669 58.2446 8.05836C57.716 7.53031 57.4523 6.80943 57.4523 5.896ZM58.8729 5.85093C58.8729 6.45633 59.0106 6.91851 59.2847 7.23801C59.5589 7.55778 59.9517 7.71726 60.4632 7.71726C60.9593 7.71726 61.3372 7.55778 61.5967 7.23801C61.8559 6.91851 61.9858 6.44486 61.9858 5.81706C61.9858 5.19326 61.8511 4.72227 61.5823 4.40464C61.3135 4.08701 60.9366 3.92832 60.4518 3.92832C59.9517 3.92832 59.5639 4.09447 59.2877 4.42731C59.0114 4.75988 58.8729 5.23459 58.8729 5.85093ZM67.9336 4.02967H65.9014V8.70963H64.5199V4.02967H63.5497V2.91328H64.5199V2.10706C64.5199 1.49793 64.7178 0.998943 65.1147 0.609835C65.511 0.220727 66.0198 0.0263062 66.6396 0.0263062C66.8053 0.0263062 66.9517 0.0348404 67.0797 0.0516422C67.2074 0.068444 67.3202 0.0940467 67.4179 0.12765V1.30618C67.3728 1.27977 67.2938 1.24804 67.181 1.21043C67.0682 1.17283 66.9386 1.15389 66.7922 1.15389C66.5063 1.15389 66.2865 1.24324 66.1324 1.42192C65.978 1.60034 65.9012 1.86437 65.9012 2.21401V2.91328H67.9334V1.61074L69.3037 1.19336V2.91328H70.6851V4.02967H69.3037V6.74169C69.3037 7.09906 69.3685 7.35082 69.4981 7.49724C69.6277 7.64392 69.8317 7.71726 70.1099 7.71726C70.1888 7.71726 70.2835 7.69859 70.3944 7.66099C70.5054 7.62338 70.6019 7.57831 70.6849 7.52551V8.65336C70.5985 8.70216 70.4547 8.74724 70.2536 8.78857C70.0523 8.83018 69.8544 8.85071 69.6589 8.85071C69.0836 8.85071 68.6524 8.69763 68.3649 8.3912C68.0771 8.08477 67.9334 7.62338 67.9334 7.00678V4.02967H67.9336Z" fill="black"/>
<path d="M9.16972 0.624573H0.0439453V9.75035H9.16972V0.624573Z" fill="#F05124"/>
<path d="M19.2449 0.624573H10.1191V9.75035H19.2449V0.624573Z" fill="#7EBB42"/>
<path d="M9.16972 10.7H0.0439453V19.8258H9.16972V10.7Z" fill="#32A0DA"/>
<path d="M19.2449 10.7H10.1191V19.8258H19.2449V10.7Z" fill="#FDB813"/>
</g>
<defs>
<clipPath id="clip0">
<rect width="70.6974" height="20" fill="white"/>
</clipPath>
</defs>
</svg>
