<svg width="360" height="40" viewBox="0 0 360 40" fill="none" xmlns="http://www.w3.org/2000/svg">
<rect x="0.5" y="1.5" width="53.6" height="36.7" rx="3.5" fill="white" stroke="white"/>
<path fill-rule="evenodd" clip-rule="evenodd" d="M7.36569 25.8333L7.78233 25.7912C7.80738 25.9319 7.85828 26.0351 7.9349 26.1012C8.01166 26.1672 8.11508 26.2001 8.2453 26.2001C8.38319 26.2001 8.48701 26.1708 8.55704 26.1123C8.62693 26.0536 8.6618 25.9851 8.6618 25.9066C8.6618 25.8563 8.64712 25.8135 8.6179 25.778C8.58855 25.7427 8.53738 25.7121 8.46426 25.6858C8.41416 25.6686 8.30024 25.6379 8.12235 25.5936C7.89329 25.537 7.73278 25.4671 7.6404 25.3841C7.51059 25.2676 7.44568 25.1254 7.44568 24.9576C7.44568 24.8498 7.47625 24.7488 7.53752 24.6549C7.59866 24.5609 7.68699 24.4893 7.80213 24.4402C7.9174 24.3911 8.0565 24.3664 8.21944 24.3664C8.48553 24.3664 8.68577 24.4251 8.8203 24.5422C8.95482 24.6594 9.02539 24.8157 9.03212 25.0113L8.60296 25.0282C8.58464 24.9189 8.54532 24.8404 8.48499 24.7924C8.4248 24.7445 8.33444 24.7205 8.21392 24.7205C8.08949 24.7205 7.99227 24.7461 7.92184 24.7974C7.87646 24.8301 7.85384 24.8741 7.85384 24.9292C7.85384 24.9795 7.87511 25.0224 7.91753 25.0582C7.9714 25.1036 8.10242 25.1509 8.31061 25.1999C8.51866 25.249 8.67258 25.2998 8.77236 25.3527C8.87201 25.4055 8.95011 25.4776 9.00653 25.5691C9.06282 25.6608 9.0911 25.7738 9.0911 25.9085C9.0911 26.0307 9.0573 26.1449 8.9897 26.2515C8.9221 26.358 8.82663 26.4372 8.70314 26.489C8.57966 26.5408 8.42574 26.5669 8.24139 26.5669C7.97315 26.5669 7.76712 26.5044 7.6233 26.3795C7.47962 26.2546 7.3937 26.0726 7.36569 25.8333" fill="#0B4A8E"/>
<path fill-rule="evenodd" clip-rule="evenodd" d="M9.53598 24.9903H9.94414V26.5288H9.53598V24.9903ZM9.53598 24.4043H9.94414V24.7796H9.53598V24.4043Z" fill="#0B4A8E"/>
<path fill-rule="evenodd" clip-rule="evenodd" d="M11.8492 26.5289H11.4411V25.7419C11.4411 25.5754 11.4323 25.4678 11.4151 25.419C11.3977 25.3701 11.3697 25.332 11.3308 25.3049C11.2919 25.2779 11.245 25.2643 11.1903 25.2643C11.1202 25.2643 11.0573 25.2837 11.0015 25.3224C10.9458 25.3611 10.9077 25.4124 10.8871 25.4763C10.8663 25.5401 10.8561 25.6581 10.8561 25.8305V26.5289H10.4479V24.9903H10.8266V25.2164C10.9606 25.0403 11.1295 24.9524 11.3328 24.9524C11.4225 24.9524 11.5045 24.9687 11.5787 25.0011C11.6529 25.0335 11.709 25.0749 11.7471 25.1252C11.7853 25.1755 11.8118 25.2326 11.8267 25.2965C11.8417 25.3603 11.8492 25.4518 11.8492 25.5707V26.5289" fill="#0B4A8E"/>
<path fill-rule="evenodd" clip-rule="evenodd" d="M12.6746 25.7264C12.6746 25.8901 12.7059 26.0101 12.7686 26.086C12.8312 26.1622 12.9085 26.2001 13.0005 26.2001C13.099 26.2001 13.1822 26.1611 13.2502 26.0832C13.318 26.0052 13.3521 25.8896 13.3521 25.7365C13.3521 25.5768 13.3195 25.4581 13.2545 25.3805C13.1893 25.3031 13.1072 25.2643 13.0077 25.2643C12.911 25.2643 12.8312 25.3024 12.7686 25.3784C12.7059 25.4546 12.6746 25.5705 12.6746 25.7264V25.7264ZM12.3086 26.63L12.7714 26.6806C12.7792 26.7379 12.7971 26.7773 12.8251 26.7989C12.8639 26.8297 12.9249 26.845 13.0081 26.845C13.1146 26.845 13.1945 26.8291 13.2478 26.7973C13.2835 26.776 13.3107 26.7417 13.3291 26.6944C13.3417 26.6604 13.348 26.5982 13.348 26.5073L13.3492 26.2827C13.2288 26.4468 13.0761 26.5289 12.8908 26.5289C12.6841 26.5289 12.5206 26.4414 12.4 26.2662C12.3053 26.1278 12.2581 25.9554 12.2581 25.7493C12.2581 25.4909 12.32 25.2935 12.444 25.157C12.568 25.0206 12.7224 24.9524 12.9067 24.9524C13.0969 24.9524 13.2537 25.0362 13.3774 25.2034V24.9903H13.7562V26.3733C13.7562 26.5553 13.7412 26.6913 13.7112 26.7811C13.6813 26.8712 13.6393 26.9417 13.5851 26.993C13.531 27.0443 13.4588 27.0845 13.3685 27.1135C13.2781 27.1425 13.1639 27.157 13.0259 27.157C12.7651 27.157 12.58 27.112 12.4708 27.022C12.3616 26.932 12.3071 26.8179 12.3071 26.6797C12.3071 26.666 12.3076 26.6496 12.3086 26.63V26.63Z" fill="#0B4A8E"/>
<path fill-rule="evenodd" clip-rule="evenodd" d="M14.2449 24.4043H14.653V26.5288H14.2449V24.4043Z" fill="#0B4A8E"/>
<path fill-rule="evenodd" clip-rule="evenodd" d="M16.0742 25.631C16.0714 25.5112 16.0408 25.4203 15.9825 25.3579C15.9243 25.2956 15.8535 25.2643 15.77 25.2643C15.6807 25.2643 15.6069 25.2973 15.5487 25.363C15.4904 25.4287 15.4619 25.5181 15.4628 25.631H16.0742V25.631ZM16.0532 26.0442L16.4571 26.1116C16.4049 26.2599 16.3223 26.3729 16.2096 26.4505C16.0969 26.5282 15.9558 26.5669 15.7865 26.5669C15.5184 26.5669 15.3201 26.4791 15.1915 26.3036C15.0898 26.163 15.039 25.9856 15.039 25.7712C15.039 25.5154 15.1057 25.3148 15.2393 25.1698C15.3727 25.0248 15.5415 24.9524 15.7455 24.9524C15.9748 24.9524 16.1556 25.0285 16.2881 25.1805C16.4207 25.3328 16.4839 25.5657 16.4782 25.8798H15.4557C15.4585 26.0009 15.4916 26.095 15.5549 26.1625C15.6182 26.2297 15.6971 26.2634 15.7917 26.2634C15.8559 26.2634 15.91 26.2461 15.9538 26.2115C15.9975 26.1769 16.0308 26.1211 16.0532 26.0442V26.0442Z" fill="#0B4A8E"/>
<path fill-rule="evenodd" clip-rule="evenodd" d="M17.8137 26.5288V24.4043H19.3834V24.7627H18.243V25.2348H19.3034V25.5931H18.243V26.1705H19.4254V26.5288H17.8137" fill="#0B4A8E"/>
<path fill-rule="evenodd" clip-rule="evenodd" d="M20.8844 26.5289V26.2985C20.8282 26.3806 20.7546 26.4459 20.6632 26.4943C20.5717 26.5426 20.4753 26.5669 20.3738 26.5669C20.2702 26.5669 20.1776 26.5441 20.0953 26.4986C20.0131 26.4532 19.9536 26.3892 19.9169 26.3071C19.8801 26.2248 19.8618 26.1111 19.8618 25.966V24.9903H20.2699V25.6979C20.2699 25.9146 20.2773 26.0473 20.2924 26.096C20.3074 26.1451 20.3346 26.1837 20.3742 26.2123C20.4138 26.2407 20.4639 26.2549 20.5247 26.2549C20.5942 26.2549 20.6566 26.236 20.7115 26.1977C20.7666 26.1595 20.8041 26.1122 20.8245 26.0555C20.8447 25.999 20.8549 25.8605 20.8549 25.6401V24.9903H21.2631V26.5289H20.8844" fill="#0B4A8E"/>
<path fill-rule="evenodd" clip-rule="evenodd" d="M22.16 26.5289H21.7519V24.9903H22.1306V25.2091C22.1953 25.1058 22.2535 25.0372 22.3052 25.0032C22.3569 24.9694 22.4155 24.9524 22.4812 24.9524C22.5739 24.9524 22.6633 24.9782 22.7492 25.0295L22.625 25.3858C22.5564 25.3414 22.4923 25.3192 22.4333 25.3192C22.376 25.3192 22.3277 25.3349 22.288 25.3662C22.2483 25.3978 22.217 25.4546 22.1943 25.5367C22.1715 25.6189 22.16 25.7911 22.16 26.0531V26.5289" fill="#0B4A8E"/>
<path fill-rule="evenodd" clip-rule="evenodd" d="M23.3304 25.7596C23.3304 25.9129 23.3666 26.0302 23.4392 26.1116C23.5118 26.1931 23.6012 26.2338 23.7077 26.2338C23.8141 26.2338 23.9033 26.1931 23.9754 26.1116C24.0474 26.0302 24.0835 25.9119 24.0835 25.7567C24.0835 25.6055 24.0474 25.489 23.9754 25.4076C23.9033 25.3262 23.8141 25.2854 23.7077 25.2854C23.6012 25.2854 23.5118 25.3262 23.4392 25.4076C23.3666 25.489 23.3304 25.6065 23.3304 25.7596V25.7596ZM22.9138 25.7377C22.9138 25.602 22.947 25.4706 23.0137 25.3436C23.0802 25.2166 23.1745 25.1197 23.2966 25.0528C23.4186 24.9858 23.555 24.9524 23.7056 24.9524C23.9382 24.9524 24.1287 25.0282 24.2774 25.18C24.4259 25.3317 24.5002 25.5235 24.5002 25.7553C24.5002 25.9889 24.4251 26.1827 24.2751 26.3364C24.1251 26.49 23.9361 26.5669 23.7084 26.5669C23.5676 26.5669 23.4332 26.5348 23.3054 26.471C23.1775 26.4069 23.0802 26.3132 23.0137 26.1895C22.947 26.0658 22.9138 25.9154 22.9138 25.7377V25.7377Z" fill="#0B4A8E"/>
<path fill-rule="evenodd" clip-rule="evenodd" d="M26.2585 24.7627V25.3697H26.4923C26.6606 25.3697 26.7732 25.3586 26.83 25.3363C26.8867 25.3139 26.9313 25.2788 26.9634 25.231C26.9956 25.1834 27.0118 25.128 27.0118 25.0647C27.0118 24.9869 26.9892 24.9227 26.9439 24.8721C26.8987 24.8215 26.8414 24.7899 26.7722 24.7773C26.7212 24.7676 26.6188 24.7627 26.4648 24.7627H26.2585V24.7627ZM25.8293 26.5288V24.4043H26.5163C26.7766 24.4043 26.9464 24.4151 27.0255 24.4363C27.1469 24.4681 27.2486 24.5376 27.3306 24.6444C27.4126 24.7511 27.4536 24.8891 27.4536 25.0582C27.4536 25.1887 27.43 25.2982 27.3827 25.3874C27.3356 25.4761 27.2755 25.546 27.2028 25.5967C27.1301 25.6476 27.0562 25.681 26.981 25.6975C26.8788 25.7179 26.731 25.728 26.5375 25.728H26.2584V26.5288H25.8293V26.5288Z" fill="#0B4A8E"/>
<path fill-rule="evenodd" clip-rule="evenodd" d="M28.7359 25.7913C28.6838 25.8088 28.6015 25.8296 28.489 25.8539C28.3764 25.878 28.3027 25.9019 28.2682 25.9251C28.2152 25.963 28.1889 26.011 28.1889 26.0691C28.1889 26.1265 28.2099 26.1758 28.2522 26.2177C28.2946 26.2593 28.3485 26.2803 28.4141 26.2803C28.4872 26.2803 28.5568 26.256 28.6233 26.2075C28.6724 26.1706 28.7047 26.1255 28.72 26.0721C28.7305 26.0372 28.7359 25.9707 28.7359 25.8726V25.7913V25.7913ZM28.189 25.4582L27.8228 25.3908C27.8643 25.2417 27.9357 25.1315 28.0369 25.0599C28.1383 24.9883 28.2889 24.9524 28.4886 24.9524C28.67 24.9524 28.8052 24.974 28.8939 25.0169C28.9827 25.0602 29.0453 25.1148 29.0814 25.181C29.1176 25.2473 29.1358 25.3691 29.1358 25.5462L29.1316 26.0223C29.1316 26.1578 29.1381 26.2579 29.151 26.3221C29.164 26.3864 29.1884 26.4553 29.2241 26.5289H28.8201C28.8093 26.5023 28.7964 26.4628 28.7809 26.4104C28.7742 26.3865 28.7694 26.3709 28.7667 26.3632C28.6972 26.4311 28.623 26.482 28.5439 26.516C28.4649 26.5499 28.3807 26.5669 28.291 26.5669C28.1329 26.5669 28.0082 26.5237 27.9172 26.4377C27.8262 26.3515 27.7807 26.2425 27.7807 26.1108C27.7807 26.0238 27.8014 25.9461 27.8427 25.8779C27.8844 25.8096 27.9425 25.7573 28.0173 25.721C28.0921 25.6848 28.2 25.6529 28.3409 25.6258C28.5309 25.59 28.6626 25.5567 28.736 25.5257V25.4845C28.736 25.4052 28.7166 25.3487 28.6778 25.3148C28.6389 25.2811 28.5657 25.2643 28.458 25.2643C28.3853 25.2643 28.3286 25.2787 28.2878 25.3073C28.247 25.336 28.214 25.3863 28.189 25.4582V25.4582Z" fill="#0B4A8E"/>
<path fill-rule="evenodd" clip-rule="evenodd" d="M29.4289 24.9903H29.8622L30.2305 26.0826L30.5903 24.9903H31.0111L30.371 26.7416C30.3351 26.8317 30.3011 26.9003 30.2687 26.9478C30.2364 26.9952 30.1991 27.0337 30.1571 27.0631C30.115 27.0927 30.0635 27.1159 30.0021 27.1322C29.9407 27.1488 29.8714 27.157 29.7941 27.157C29.7158 27.157 29.6388 27.1488 29.5635 27.1323L29.5255 26.8133C29.5895 26.8261 29.6474 26.8324 29.6987 26.8324C29.7939 26.8324 29.8641 26.8042 29.9097 26.748C29.9554 26.6917 29.9903 26.62 30.0145 26.5332L29.4289 24.9903" fill="#0B4A8E"/>
<path fill-rule="evenodd" clip-rule="evenodd" d="M31.3293 24.9903H31.7038V25.2005C31.8384 25.0351 31.9985 24.9524 32.1843 24.9524C32.2829 24.9524 32.3685 24.9726 32.4411 25.0132C32.5137 25.054 32.5732 25.1155 32.6195 25.1976C32.6871 25.1155 32.7603 25.054 32.8384 25.0132C32.9167 24.9726 33.0001 24.9524 33.089 24.9524C33.2021 24.9524 33.2977 24.9753 33.3759 25.0215C33.4542 25.0672 33.5127 25.1348 33.5514 25.2239C33.5793 25.2896 33.5933 25.396 33.5933 25.5432V26.5289H33.1851V25.6476C33.1851 25.4946 33.1711 25.396 33.1432 25.3515C33.1055 25.2933 33.0478 25.2643 32.9698 25.2643C32.9128 25.2643 32.8592 25.2817 32.8091 25.3166C32.759 25.3515 32.723 25.4025 32.7009 25.4698C32.6786 25.537 32.6675 25.6433 32.6675 25.7884V26.5289H32.2593V25.684C32.2593 25.5338 32.2522 25.4372 32.2376 25.3935C32.2232 25.3499 32.2009 25.3175 32.1704 25.2962C32.14 25.275 32.0989 25.2643 32.0468 25.2643C31.9842 25.2643 31.9278 25.2813 31.8777 25.3151C31.8276 25.349 31.7918 25.3979 31.77 25.4617C31.7483 25.5257 31.7375 25.6316 31.7375 25.7797V26.5289H31.3293V24.9903" fill="#0B4A8E"/>
<path fill-rule="evenodd" clip-rule="evenodd" d="M34.9993 25.631C34.9963 25.5112 34.9659 25.4203 34.9074 25.3579C34.8494 25.2956 34.7784 25.2643 34.6949 25.2643C34.6058 25.2643 34.5319 25.2973 34.4738 25.363C34.4155 25.4287 34.387 25.5181 34.3879 25.631H34.9993V25.631ZM34.9783 26.0442L35.3823 26.1116C35.3299 26.2599 35.2475 26.3729 35.1348 26.4505C35.0219 26.5282 34.8809 26.5669 34.7115 26.5669C34.4435 26.5669 34.2452 26.4791 34.1165 26.3036C34.0148 26.163 33.964 25.9856 33.964 25.7712C33.964 25.5154 34.0309 25.3148 34.1643 25.1698C34.2978 25.0248 34.4664 24.9524 34.6706 24.9524C34.8999 24.9524 35.0806 25.0285 35.2131 25.1805C35.3456 25.3328 35.4091 25.5657 35.4033 25.8798H34.3807C34.3836 26.0009 34.4167 26.095 34.48 26.1625C34.5432 26.2297 34.6221 26.2634 34.7168 26.2634C34.781 26.2634 34.835 26.2461 34.8788 26.2115C34.9228 26.1769 34.9559 26.1211 34.9783 26.0442V26.0442Z" fill="#0B4A8E"/>
<path fill-rule="evenodd" clip-rule="evenodd" d="M37.2197 26.5289H36.8115V25.7419C36.8115 25.5754 36.8028 25.4678 36.7857 25.419C36.7683 25.3701 36.7401 25.332 36.7012 25.3049C36.6623 25.2779 36.6154 25.2643 36.5608 25.2643C36.4908 25.2643 36.4277 25.2837 36.3721 25.3224C36.3164 25.3611 36.2783 25.4124 36.2575 25.4763C36.2369 25.5401 36.2265 25.6581 36.2265 25.8305V26.5289H35.8184V24.9903H36.1971V25.2164C36.3312 25.0403 36.4999 24.9524 36.7032 24.9524C36.7929 24.9524 36.8751 24.9687 36.9491 25.0011C37.0233 25.0335 37.0796 25.0749 37.1177 25.1252C37.1558 25.1755 37.1822 25.2326 37.1972 25.2965C37.2123 25.3603 37.2197 25.4518 37.2197 25.5707V26.5289" fill="#0B4A8E"/>
<path fill-rule="evenodd" clip-rule="evenodd" d="M38.424 24.9902V25.3148H38.1462V25.9373C38.1462 26.0633 38.1488 26.1368 38.154 26.1576C38.1592 26.1785 38.171 26.1956 38.1895 26.2092C38.208 26.2227 38.2304 26.2296 38.2569 26.2296C38.2941 26.2296 38.3474 26.2165 38.4177 26.1905L38.4534 26.5059C38.3593 26.5465 38.2527 26.5668 38.1338 26.5668C38.0607 26.5668 37.9951 26.5544 37.9366 26.5297C37.8781 26.5052 37.8352 26.4731 37.8077 26.4338C37.7804 26.3947 37.7615 26.3417 37.751 26.2749C37.7423 26.2275 37.7381 26.1315 37.7381 25.9874V25.3148H37.5529V24.9902H37.7381V24.6826L38.1462 24.4423V24.9902H38.424" fill="#0B4A8E"/>
<path fill-rule="evenodd" clip-rule="evenodd" d="M38.6535 26.0948L39.0617 26.0315C39.0791 26.1102 39.1142 26.1698 39.1671 26.2106C39.2202 26.2515 39.2943 26.2718 39.3896 26.2718C39.4948 26.2718 39.5738 26.2523 39.6267 26.2135C39.6624 26.1861 39.6803 26.1498 39.6803 26.1039C39.6803 26.0729 39.6705 26.047 39.6511 26.0268C39.6306 26.0072 39.5851 25.9893 39.5143 25.9727C39.1845 25.8997 38.9754 25.8332 38.8873 25.7732C38.765 25.69 38.704 25.5741 38.704 25.4261C38.704 25.2923 38.7567 25.18 38.8624 25.089C38.9682 24.998 39.1321 24.9524 39.3542 24.9524C39.5656 24.9524 39.7226 24.9865 39.8255 25.0546C39.9282 25.1229 39.9991 25.2237 40.038 25.3571L39.655 25.4287C39.6384 25.3689 39.6069 25.3229 39.5606 25.2911C39.5142 25.2591 39.448 25.2432 39.3623 25.2432C39.254 25.2432 39.1763 25.2582 39.1296 25.2885C39.0982 25.3099 39.0827 25.3375 39.0827 25.3715C39.0827 25.4008 39.0962 25.4256 39.1234 25.4461C39.1601 25.4732 39.2874 25.5116 39.5049 25.5613C39.7223 25.6109 39.8742 25.6716 39.9606 25.7435C40.0457 25.8164 40.0885 25.9179 40.0885 26.0481C40.0885 26.1899 40.0295 26.3118 39.9119 26.4138C39.7941 26.5159 39.6201 26.5669 39.3896 26.5669C39.1805 26.5669 39.0148 26.5244 38.8928 26.4398C38.7708 26.355 38.6911 26.2402 38.6535 26.0948" fill="#0B4A8E"/>
<path fill-rule="evenodd" clip-rule="evenodd" d="M42.5727 25.6901L42.2761 24.9018L41.9896 25.6901H42.5727V25.6901ZM43.3597 26.5288H42.8976L42.7141 26.0483H41.8593L41.6845 26.5288H41.2303L42.0519 24.4043H42.5033L43.3597 26.5288V26.5288Z" fill="#0B4A8E"/>
<path fill-rule="evenodd" clip-rule="evenodd" d="M44.0603 26.5289H43.6522V24.9903H44.0308V25.2091C44.0956 25.1058 44.1536 25.0372 44.2055 25.0032C44.2571 24.9694 44.3156 24.9524 44.3815 24.9524C44.4741 24.9524 44.5634 24.9782 44.6495 25.0295L44.5253 25.3858C44.4565 25.3414 44.3925 25.3192 44.3335 25.3192C44.2762 25.3192 44.2278 25.3349 44.1881 25.3662C44.1484 25.3978 44.1171 25.4546 44.0945 25.5367C44.0716 25.6189 44.0603 25.7911 44.0603 26.0531V26.5289" fill="#0B4A8E"/>
<path fill-rule="evenodd" clip-rule="evenodd" d="M45.8282 25.631C45.8252 25.5112 45.7946 25.4203 45.7365 25.3579C45.6782 25.2956 45.6073 25.2643 45.524 25.2643C45.4346 25.2643 45.3609 25.2973 45.3027 25.363C45.2444 25.4287 45.2157 25.5181 45.2168 25.631H45.8282V25.631ZM45.8072 26.0442L46.2112 26.1116C46.1589 26.2599 46.0764 26.3729 45.9637 26.4505C45.851 26.5282 45.7098 26.5669 45.5406 26.5669C45.2725 26.5669 45.074 26.4791 44.9454 26.3036C44.8437 26.163 44.7929 25.9856 44.7929 25.7712C44.7929 25.5154 44.8597 25.3148 44.9933 25.1698C45.1266 25.0248 45.2955 24.9524 45.4995 24.9524C45.7287 24.9524 45.9095 25.0285 46.0422 25.1805C46.1746 25.3328 46.238 25.5657 46.2322 25.8798H45.2096C45.2125 26.0009 45.2457 26.095 45.3088 26.1625C45.3722 26.2297 45.4512 26.2634 45.5456 26.2634C45.6099 26.2634 45.6639 26.2461 45.7078 26.2115C45.7516 26.1769 45.7847 26.1211 45.8072 26.0442V26.0442Z" fill="#0B4A8E"/>
<path fill-rule="evenodd" clip-rule="evenodd" d="M47.4974 25.7913C47.4454 25.8088 47.363 25.8296 47.2504 25.8539C47.1378 25.878 47.0643 25.9019 47.0297 25.9251C46.9767 25.963 46.9504 26.011 46.9504 26.0691C46.9504 26.1265 46.9714 26.1758 47.0138 26.2177C47.0561 26.2593 47.11 26.2803 47.1756 26.2803C47.2487 26.2803 47.3183 26.256 47.3848 26.2075C47.4338 26.1706 47.4661 26.1255 47.4815 26.0721C47.492 26.0372 47.4974 25.9707 47.4974 25.8726V25.7913V25.7913ZM46.9504 25.4582L46.5843 25.3908C46.6257 25.2417 46.6971 25.1315 46.7984 25.0599C46.8998 24.9883 47.0503 24.9524 47.25 24.9524C47.4314 24.9524 47.5666 24.974 47.6553 25.0169C47.7441 25.0602 47.8067 25.1148 47.8428 25.181C47.879 25.2473 47.8972 25.3691 47.8972 25.5462L47.893 26.0223C47.893 26.1578 47.8995 26.2579 47.9124 26.3221C47.9255 26.3864 47.9498 26.4553 47.9854 26.5289H47.5815C47.5708 26.5023 47.558 26.4628 47.5424 26.4104C47.5358 26.3865 47.5308 26.3709 47.5281 26.3632C47.4586 26.4311 47.3845 26.482 47.3055 26.516C47.2264 26.5499 47.1422 26.5669 47.0525 26.5669C46.8944 26.5669 46.7697 26.5237 46.6786 26.4377C46.5878 26.3515 46.5422 26.2425 46.5422 26.1108C46.5422 26.0238 46.5628 25.9461 46.6043 25.8779C46.6458 25.8096 46.704 25.7573 46.7787 25.721C46.8536 25.6848 46.9614 25.6529 47.1023 25.6258C47.2923 25.59 47.424 25.5567 47.4974 25.5257V25.4845C47.4974 25.4052 47.478 25.3487 47.4392 25.3148C47.4004 25.2811 47.3272 25.2643 47.2194 25.2643C47.1467 25.2643 47.09 25.2787 47.0492 25.3073C47.0086 25.336 46.9754 25.3863 46.9504 25.4582V25.4582Z" fill="#0B4A8E"/>
<path fill-rule="evenodd" clip-rule="evenodd" d="M16.3793 16.0564H13.6002C13.6002 15.5995 13.5466 15.2929 13.4399 15.1369C13.2746 14.9059 12.8181 14.7903 12.071 14.7903C11.3454 14.7903 10.8644 14.8568 10.6297 14.99C10.3951 15.1235 10.2777 15.4139 10.2777 15.8611C10.2777 16.2659 10.3816 16.5324 10.5901 16.6602C10.7394 16.7508 10.9367 16.8041 11.1827 16.82L11.7432 16.8597C12.9444 16.9395 13.6946 16.9958 13.9938 17.0277C14.9437 17.1237 15.6323 17.3767 16.0596 17.7868C16.3959 18.1067 16.5964 18.5249 16.6603 19.0412C16.6978 19.3501 16.7164 19.6996 16.7164 20.088C16.7164 20.9831 16.6311 21.6387 16.4604 22.0541C16.1509 22.8164 15.4558 23.2978 14.3742 23.5C13.9211 23.5856 13.2278 23.6283 12.2954 23.6283C10.739 23.6283 9.65433 23.5355 9.04189 23.349C8.29022 23.1205 7.79467 22.6575 7.55484 21.9604C7.42125 21.5723 7.35513 20.9261 7.35513 20.0214H10.1343C10.1343 20.1223 10.1345 20.1994 10.1345 20.2526C10.1345 20.7353 10.2731 21.0458 10.5496 21.1841C10.7412 21.2795 10.9725 21.3295 11.2445 21.3355H12.2662C12.7876 21.3355 13.1204 21.3087 13.2639 21.2551C13.5194 21.1544 13.687 20.9924 13.7671 20.7682C13.8097 20.6302 13.8308 20.4517 13.8308 20.2331C13.8308 19.7436 13.6524 19.4458 13.2962 19.3389C13.1631 19.2967 12.5433 19.2379 11.4372 19.1633C10.549 19.0998 9.932 19.0387 9.58646 18.9795C8.67656 18.809 8.07018 18.4584 7.7676 17.9261C7.50164 17.4738 7.3686 16.7895 7.3686 15.8742C7.3686 15.1771 7.44051 14.6181 7.58419 14.1976C7.72801 13.777 7.95976 13.4577 8.27958 13.2394C8.74806 12.9042 9.34758 12.7074 10.0773 12.6485C10.6845 12.5955 11.3581 12.5684 12.099 12.5684C13.2654 12.5684 14.0967 12.6356 14.5922 12.7687C15.8016 13.0942 16.4062 14.0059 16.4062 15.5042C16.4062 15.627 16.3972 15.8108 16.3793 16.0564" fill="#0B4A8E"/>
<path fill-rule="evenodd" clip-rule="evenodd" d="M31.588 18.1783H33.4504C34.0409 18.157 34.4 18.1116 34.5293 18.0403C34.7058 17.9431 34.8243 17.7484 34.8833 17.4564C34.921 17.262 34.9399 16.9731 34.9399 16.5892C34.9399 16.119 34.9024 15.7704 34.8271 15.5427C34.7197 15.2238 34.4623 15.0296 34.0547 14.959C33.9742 14.9484 33.7812 14.9427 33.4756 14.9427H31.588V18.1783V18.1783ZM28.6006 23.6283V12.5096H34.1662C34.9296 12.5096 35.5122 12.572 35.9124 12.6968C36.8278 12.9841 37.442 13.5724 37.7566 14.4614C37.919 14.928 38.0002 15.6305 38.0002 16.5686C38.0002 17.6964 37.9101 18.5069 37.7319 19.0003C37.3749 19.9761 36.6401 20.5382 35.5305 20.6839C35.4 20.7058 34.8448 20.7253 33.8649 20.741L33.3689 20.7576H31.5879V23.6283H28.6006V23.6283Z" fill="#0B4A8E"/>
<path fill-rule="evenodd" clip-rule="evenodd" d="M43.7835 19.5406L42.3839 14.7208L41.0255 19.5406H43.7835V19.5406ZM44.3768 21.7066H40.3827L39.846 23.6283H36.7553L40.0903 12.5096H44.5966L47.9726 23.6283H44.9467L44.3768 21.7066V21.7066Z" fill="#0B4A8E"/>
<path fill-rule="evenodd" clip-rule="evenodd" d="M24.4774 14.0739C25.7095 14.0739 26.8092 14.6425 27.532 15.533L28.176 14.15C27.1689 13.1964 25.7981 12.6086 24.2863 12.6086C21.9324 12.6086 19.9188 14.0326 19.0924 16.0484H17.8367L17.0953 17.6406H18.7107C18.6985 17.7884 18.6907 17.9362 18.6907 18.087C18.6907 18.2695 18.7002 18.4499 18.7182 18.628H17.9063L17.165 20.2208H19.1309C19.9809 22.1856 21.9693 23.565 24.2863 23.565C25.4539 23.565 26.5374 23.2146 27.4345 22.6159V20.6639C26.7121 21.4878 25.6554 22.0085 24.4774 22.0085C23.1003 22.0085 21.8891 21.2972 21.1837 20.2208H25.3004L26.0417 18.628H20.578C20.5499 18.4364 20.5348 18.2405 20.5348 18.041C20.5348 17.9061 20.5418 17.7726 20.5547 17.6406H26.5012L27.2425 16.0484H21.069C21.7517 14.8681 23.0222 14.0739 24.4774 14.0739" fill="#F6BC25"/>
<rect x="168.2" y="2.14996" width="53.6" height="36.7" rx="3.5" fill="#C2FAE5" stroke="white"/>
<g filter="url(#filter0_d_831_242)">
<mask id="path-29-inside-1_831_242" fill="white">
<path d="M174.366 20.6665C174.366 19.8337 173.742 19.2488 172.976 19.2488C172.21 19.2488 171.586 19.8439 171.586 20.6665C171.586 21.4792 172.21 22.0836 172.976 22.0836C173.743 22.0836 174.366 21.4992 174.366 20.6665ZM174.377 23.1442V22.5C173.999 22.946 173.436 23.2229 172.763 23.2229C171.363 23.2229 170.3 22.1327 170.3 20.6665C170.3 19.2094 171.403 18.0998 172.794 18.0998C173.448 18.0998 173.999 18.3777 174.377 18.813V18.1887H175.634V23.1442H174.377ZM181.739 22.0438C181.299 22.0438 181.177 21.8854 181.177 21.4695V19.2692H181.984V18.1882H181.177V16.9795H179.888V18.1882H178.229V17.8872C178.229 17.4704 178.393 17.3115 178.843 17.3115H179.125V16.3505H178.506C177.443 16.3505 176.943 16.6877 176.943 17.7182V18.1878H176.227V19.2692H176.943V23.1437H178.231V19.2692H179.89V21.6974C179.89 22.7084 180.288 23.1447 181.33 23.1447H181.994V22.0443H181.738L181.739 22.0438ZM186.358 20.22C186.266 19.5762 185.724 19.1895 185.09 19.1895C184.457 19.1895 183.936 19.5661 183.803 20.22H186.357H186.358ZM183.792 20.9934C183.885 21.7266 184.426 22.1434 185.111 22.1434C185.652 22.1434 186.072 21.8951 186.317 21.4987H187.635C187.328 22.5491 186.358 23.2229 185.08 23.2229C183.538 23.2229 182.454 22.173 182.454 20.6762C182.454 19.1798 183.599 18.0993 185.112 18.0993C186.634 18.0993 187.737 19.1895 187.737 20.6762C187.737 20.7855 187.728 20.8939 187.707 20.9934H183.792V20.9934ZM195.926 20.6665C195.926 19.8634 195.303 19.2488 194.537 19.2488C193.77 19.2488 193.147 19.8439 193.147 20.6665C193.147 21.4792 193.77 22.0836 194.537 22.0836C195.303 22.0836 195.926 21.4695 195.926 20.6665ZM191.879 18.1887H193.136V18.8329C193.514 18.3767 194.076 18.0998 194.751 18.0998C196.13 18.0998 197.213 19.2002 197.213 20.6563C197.213 22.1137 196.109 23.2239 194.72 23.2239C194.076 23.2239 193.544 22.9756 193.177 22.5597V25.1834H191.879V18.1887V18.1887ZM201.743 20.6665C201.743 19.8337 201.12 19.2488 200.353 19.2488C199.587 19.2488 198.963 19.8439 198.963 20.6665C198.963 21.4792 199.587 22.0836 200.353 22.0836C201.12 22.0836 201.743 21.4992 201.743 20.6665ZM201.754 23.1442V22.5C201.376 22.946 200.813 23.2229 200.139 23.2229C198.739 23.2229 197.677 22.1327 197.677 20.6665C197.677 19.2094 198.78 18.0998 200.17 18.0998C200.824 18.0998 201.376 18.3777 201.754 18.813V18.1887H203.01V23.1442H201.754ZM189.614 18.6745C189.614 18.6745 189.934 18.1003 190.717 18.1003C191.052 18.1003 191.269 18.2114 191.269 18.2114V19.4757C191.269 19.4757 190.797 19.1928 190.362 19.2497C189.928 19.3067 189.653 19.6934 189.655 20.2112V23.1451H188.357V18.1896H189.614V18.6745ZM208.88 18.1887L205.707 25.1676H204.369L205.614 22.4694L203.508 18.1887H205.024L206.257 21.049L207.521 18.1887H208.88V18.1887ZM219.008 18.0762L215.862 16.3158C214.94 15.799 213.785 16.4446 213.785 17.4792V17.6598C213.785 17.8228 213.875 17.9738 214.02 18.0549L214.615 18.3874C214.789 18.4856 215.006 18.3633 215.006 18.1683V17.7191C215.006 17.4945 215.257 17.3537 215.457 17.4662L218.182 18.9918C218.382 19.1039 218.382 19.3845 218.182 19.4966L215.457 21.0217C215.257 21.1338 215.007 20.9939 215.007 20.7688V20.5298C215.007 19.4957 213.852 18.8487 212.928 19.3664L209.782 21.1273C209.573 21.2417 209.398 21.4101 209.276 21.6148C209.154 21.8194 209.09 22.0529 209.09 22.2906C209.09 22.5284 209.154 22.7619 209.276 22.9665C209.398 23.1712 209.573 23.3395 209.782 23.454L212.928 25.2144C213.851 25.7312 215.007 25.0856 215.007 24.051V23.8704C215.006 23.7897 214.984 23.7106 214.943 23.6411C214.901 23.5717 214.842 23.5145 214.771 23.4753L214.177 23.1419C214.003 23.0442 213.785 23.1664 213.785 23.3614V23.8106C213.785 24.0353 213.534 24.1756 213.334 24.063L210.61 22.538C210.564 22.513 210.526 22.4765 210.5 22.432C210.473 22.3876 210.459 22.3369 210.459 22.2853C210.459 22.2337 210.473 22.1831 210.5 22.1386C210.526 22.0942 210.564 22.0576 210.61 22.0327L213.334 20.5071C213.535 20.3946 213.785 20.5349 213.785 20.76V20.999C213.785 22.0331 214.939 22.6801 215.862 22.1624L219.008 20.4015C219.218 20.2871 219.392 20.1189 219.514 19.9144C219.636 19.7099 219.7 19.4767 219.7 19.2391C219.7 19.0015 219.636 18.7683 219.514 18.5638C219.392 18.3593 219.218 18.1911 219.008 18.0766V18.0762Z"/>
</mask>
<path d="M174.366 20.6665C174.366 19.8337 173.742 19.2488 172.976 19.2488C172.21 19.2488 171.586 19.8439 171.586 20.6665C171.586 21.4792 172.21 22.0836 172.976 22.0836C173.743 22.0836 174.366 21.4992 174.366 20.6665ZM174.377 23.1442V22.5C173.999 22.946 173.436 23.2229 172.763 23.2229C171.363 23.2229 170.3 22.1327 170.3 20.6665C170.3 19.2094 171.403 18.0998 172.794 18.0998C173.448 18.0998 173.999 18.3777 174.377 18.813V18.1887H175.634V23.1442H174.377ZM181.739 22.0438C181.299 22.0438 181.177 21.8854 181.177 21.4695V19.2692H181.984V18.1882H181.177V16.9795H179.888V18.1882H178.229V17.8872C178.229 17.4704 178.393 17.3115 178.843 17.3115H179.125V16.3505H178.506C177.443 16.3505 176.943 16.6877 176.943 17.7182V18.1878H176.227V19.2692H176.943V23.1437H178.231V19.2692H179.89V21.6974C179.89 22.7084 180.288 23.1447 181.33 23.1447H181.994V22.0443H181.738L181.739 22.0438ZM186.358 20.22C186.266 19.5762 185.724 19.1895 185.09 19.1895C184.457 19.1895 183.936 19.5661 183.803 20.22H186.357H186.358ZM183.792 20.9934C183.885 21.7266 184.426 22.1434 185.111 22.1434C185.652 22.1434 186.072 21.8951 186.317 21.4987H187.635C187.328 22.5491 186.358 23.2229 185.08 23.2229C183.538 23.2229 182.454 22.173 182.454 20.6762C182.454 19.1798 183.599 18.0993 185.112 18.0993C186.634 18.0993 187.737 19.1895 187.737 20.6762C187.737 20.7855 187.728 20.8939 187.707 20.9934H183.792V20.9934ZM195.926 20.6665C195.926 19.8634 195.303 19.2488 194.537 19.2488C193.77 19.2488 193.147 19.8439 193.147 20.6665C193.147 21.4792 193.77 22.0836 194.537 22.0836C195.303 22.0836 195.926 21.4695 195.926 20.6665ZM191.879 18.1887H193.136V18.8329C193.514 18.3767 194.076 18.0998 194.751 18.0998C196.13 18.0998 197.213 19.2002 197.213 20.6563C197.213 22.1137 196.109 23.2239 194.72 23.2239C194.076 23.2239 193.544 22.9756 193.177 22.5597V25.1834H191.879V18.1887V18.1887ZM201.743 20.6665C201.743 19.8337 201.12 19.2488 200.353 19.2488C199.587 19.2488 198.963 19.8439 198.963 20.6665C198.963 21.4792 199.587 22.0836 200.353 22.0836C201.12 22.0836 201.743 21.4992 201.743 20.6665ZM201.754 23.1442V22.5C201.376 22.946 200.813 23.2229 200.139 23.2229C198.739 23.2229 197.677 22.1327 197.677 20.6665C197.677 19.2094 198.78 18.0998 200.17 18.0998C200.824 18.0998 201.376 18.3777 201.754 18.813V18.1887H203.01V23.1442H201.754ZM189.614 18.6745C189.614 18.6745 189.934 18.1003 190.717 18.1003C191.052 18.1003 191.269 18.2114 191.269 18.2114V19.4757C191.269 19.4757 190.797 19.1928 190.362 19.2497C189.928 19.3067 189.653 19.6934 189.655 20.2112V23.1451H188.357V18.1896H189.614V18.6745ZM208.88 18.1887L205.707 25.1676H204.369L205.614 22.4694L203.508 18.1887H205.024L206.257 21.049L207.521 18.1887H208.88V18.1887ZM219.008 18.0762L215.862 16.3158C214.94 15.799 213.785 16.4446 213.785 17.4792V17.6598C213.785 17.8228 213.875 17.9738 214.02 18.0549L214.615 18.3874C214.789 18.4856 215.006 18.3633 215.006 18.1683V17.7191C215.006 17.4945 215.257 17.3537 215.457 17.4662L218.182 18.9918C218.382 19.1039 218.382 19.3845 218.182 19.4966L215.457 21.0217C215.257 21.1338 215.007 20.9939 215.007 20.7688V20.5298C215.007 19.4957 213.852 18.8487 212.928 19.3664L209.782 21.1273C209.573 21.2417 209.398 21.4101 209.276 21.6148C209.154 21.8194 209.09 22.0529 209.09 22.2906C209.09 22.5284 209.154 22.7619 209.276 22.9665C209.398 23.1712 209.573 23.3395 209.782 23.454L212.928 25.2144C213.851 25.7312 215.007 25.0856 215.007 24.051V23.8704C215.006 23.7897 214.984 23.7106 214.943 23.6411C214.901 23.5717 214.842 23.5145 214.771 23.4753L214.177 23.1419C214.003 23.0442 213.785 23.1664 213.785 23.3614V23.8106C213.785 24.0353 213.534 24.1756 213.334 24.063L210.61 22.538C210.564 22.513 210.526 22.4765 210.5 22.432C210.473 22.3876 210.459 22.3369 210.459 22.2853C210.459 22.2337 210.473 22.1831 210.5 22.1386C210.526 22.0942 210.564 22.0576 210.61 22.0327L213.334 20.5071C213.535 20.3946 213.785 20.5349 213.785 20.76V20.999C213.785 22.0331 214.939 22.6801 215.862 22.1624L219.008 20.4015C219.218 20.2871 219.392 20.1189 219.514 19.9144C219.636 19.7099 219.7 19.4767 219.7 19.2391C219.7 19.0015 219.636 18.7683 219.514 18.5638C219.392 18.3593 219.218 18.1911 219.008 18.0766V18.0762Z" fill="black"/>
<path d="M174.366 20.6665C174.366 19.8337 173.742 19.2488 172.976 19.2488C172.21 19.2488 171.586 19.8439 171.586 20.6665C171.586 21.4792 172.21 22.0836 172.976 22.0836C173.743 22.0836 174.366 21.4992 174.366 20.6665ZM174.377 23.1442V22.5C173.999 22.946 173.436 23.2229 172.763 23.2229C171.363 23.2229 170.3 22.1327 170.3 20.6665C170.3 19.2094 171.403 18.0998 172.794 18.0998C173.448 18.0998 173.999 18.3777 174.377 18.813V18.1887H175.634V23.1442H174.377ZM181.739 22.0438C181.299 22.0438 181.177 21.8854 181.177 21.4695V19.2692H181.984V18.1882H181.177V16.9795H179.888V18.1882H178.229V17.8872C178.229 17.4704 178.393 17.3115 178.843 17.3115H179.125V16.3505H178.506C177.443 16.3505 176.943 16.6877 176.943 17.7182V18.1878H176.227V19.2692H176.943V23.1437H178.231V19.2692H179.89V21.6974C179.89 22.7084 180.288 23.1447 181.33 23.1447H181.994V22.0443H181.738L181.739 22.0438ZM186.358 20.22C186.266 19.5762 185.724 19.1895 185.09 19.1895C184.457 19.1895 183.936 19.5661 183.803 20.22H186.357H186.358ZM183.792 20.9934C183.885 21.7266 184.426 22.1434 185.111 22.1434C185.652 22.1434 186.072 21.8951 186.317 21.4987H187.635C187.328 22.5491 186.358 23.2229 185.08 23.2229C183.538 23.2229 182.454 22.173 182.454 20.6762C182.454 19.1798 183.599 18.0993 185.112 18.0993C186.634 18.0993 187.737 19.1895 187.737 20.6762C187.737 20.7855 187.728 20.8939 187.707 20.9934H183.792V20.9934ZM195.926 20.6665C195.926 19.8634 195.303 19.2488 194.537 19.2488C193.77 19.2488 193.147 19.8439 193.147 20.6665C193.147 21.4792 193.77 22.0836 194.537 22.0836C195.303 22.0836 195.926 21.4695 195.926 20.6665ZM191.879 18.1887H193.136V18.8329C193.514 18.3767 194.076 18.0998 194.751 18.0998C196.13 18.0998 197.213 19.2002 197.213 20.6563C197.213 22.1137 196.109 23.2239 194.72 23.2239C194.076 23.2239 193.544 22.9756 193.177 22.5597V25.1834H191.879V18.1887V18.1887ZM201.743 20.6665C201.743 19.8337 201.12 19.2488 200.353 19.2488C199.587 19.2488 198.963 19.8439 198.963 20.6665C198.963 21.4792 199.587 22.0836 200.353 22.0836C201.12 22.0836 201.743 21.4992 201.743 20.6665ZM201.754 23.1442V22.5C201.376 22.946 200.813 23.2229 200.139 23.2229C198.739 23.2229 197.677 22.1327 197.677 20.6665C197.677 19.2094 198.78 18.0998 200.17 18.0998C200.824 18.0998 201.376 18.3777 201.754 18.813V18.1887H203.01V23.1442H201.754ZM189.614 18.6745C189.614 18.6745 189.934 18.1003 190.717 18.1003C191.052 18.1003 191.269 18.2114 191.269 18.2114V19.4757C191.269 19.4757 190.797 19.1928 190.362 19.2497C189.928 19.3067 189.653 19.6934 189.655 20.2112V23.1451H188.357V18.1896H189.614V18.6745ZM208.88 18.1887L205.707 25.1676H204.369L205.614 22.4694L203.508 18.1887H205.024L206.257 21.049L207.521 18.1887H208.88V18.1887ZM219.008 18.0762L215.862 16.3158C214.94 15.799 213.785 16.4446 213.785 17.4792V17.6598C213.785 17.8228 213.875 17.9738 214.02 18.0549L214.615 18.3874C214.789 18.4856 215.006 18.3633 215.006 18.1683V17.7191C215.006 17.4945 215.257 17.3537 215.457 17.4662L218.182 18.9918C218.382 19.1039 218.382 19.3845 218.182 19.4966L215.457 21.0217C215.257 21.1338 215.007 20.9939 215.007 20.7688V20.5298C215.007 19.4957 213.852 18.8487 212.928 19.3664L209.782 21.1273C209.573 21.2417 209.398 21.4101 209.276 21.6148C209.154 21.8194 209.09 22.0529 209.09 22.2906C209.09 22.5284 209.154 22.7619 209.276 22.9665C209.398 23.1712 209.573 23.3395 209.782 23.454L212.928 25.2144C213.851 25.7312 215.007 25.0856 215.007 24.051V23.8704C215.006 23.7897 214.984 23.7106 214.943 23.6411C214.901 23.5717 214.842 23.5145 214.771 23.4753L214.177 23.1419C214.003 23.0442 213.785 23.1664 213.785 23.3614V23.8106C213.785 24.0353 213.534 24.1756 213.334 24.063L210.61 22.538C210.564 22.513 210.526 22.4765 210.5 22.432C210.473 22.3876 210.459 22.3369 210.459 22.2853C210.459 22.2337 210.473 22.1831 210.5 22.1386C210.526 22.0942 210.564 22.0576 210.61 22.0327L213.334 20.5071C213.535 20.3946 213.785 20.5349 213.785 20.76V20.999C213.785 22.0331 214.939 22.6801 215.862 22.1624L219.008 20.4015C219.218 20.2871 219.392 20.1189 219.514 19.9144C219.636 19.7099 219.7 19.4767 219.7 19.2391C219.7 19.0015 219.636 18.7683 219.514 18.5638C219.392 18.3593 219.218 18.1911 219.008 18.0766V18.0762Z" stroke="black" stroke-width="2" mask="url(#path-29-inside-1_831_242)"/>
</g>
<rect x="224.1" y="2.14996" width="53.6" height="36.7" rx="3.5" fill="white" stroke="white"/>
<path fill-rule="evenodd" clip-rule="evenodd" d="M230.972 26.0133V15.2655C230.974 14.3715 231.791 13.6482 232.801 13.6466H251.828V27.6321H232.801C231.791 27.6304 230.974 26.9069 230.972 26.0133V26.0133ZM269.216 12.4379H232.801C231.037 12.4382 229.608 13.7032 229.607 15.2655V26.0133C229.608 27.575 231.037 28.8401 232.801 28.8407H269.216C270.981 28.8401 272.41 27.575 272.41 26.0133V15.2655C272.41 13.7032 270.981 12.4382 269.216 12.4379V12.4379Z" fill="#0F3365"/>
<path fill-rule="evenodd" clip-rule="evenodd" d="M251.828 13.6466H232.801C231.791 13.6482 230.974 14.3716 230.972 15.2655V26.0133C230.974 26.9069 231.791 27.6304 232.801 27.6322H251.828V13.6466" fill="#FFFFFE"/>
<path fill-rule="evenodd" clip-rule="evenodd" d="M264.658 24.2552C264.987 24.3182 265.315 24.3497 265.653 24.3497C267.118 24.3497 267.463 23.3512 267.916 22.3225L269.611 18.5108H268.014L267.064 21.1825H267.046L266.052 18.5108H264.331L266.203 22.6992C266.088 23.0607 265.786 23.2651 265.396 23.2651C265.173 23.2651 264.978 23.242 264.765 23.1785L264.658 24.2552" fill="#FFFFFE"/>
<path fill-rule="evenodd" clip-rule="evenodd" d="M263.941 22.6047C263.87 22.2826 263.852 21.9606 263.852 21.6382V20.1137C263.852 18.8643 262.831 18.4166 261.651 18.4166C260.967 18.4166 260.372 18.5026 259.804 18.7074L259.831 19.6659C260.275 19.4461 260.79 19.3595 261.304 19.3595C261.881 19.3595 262.352 19.5088 262.361 20.0669C262.157 20.0352 261.873 20.0113 261.615 20.0113C260.763 20.0113 259.228 20.1611 259.228 21.4105C259.228 22.2988 260.044 22.6995 260.959 22.6995C261.615 22.6995 262.059 22.4712 262.423 21.9606H262.44C262.44 22.1728 262.467 22.3853 262.476 22.6047H263.941V22.6047ZM260.719 21.3085C260.719 20.9156 261.145 20.7663 261.686 20.7663C261.926 20.7663 262.157 20.7819 262.361 20.7897C262.361 21.2689 261.979 21.7567 261.375 21.7567C261.003 21.7567 260.719 21.591 260.719 21.3085V21.3085Z" fill="#FFFFFE"/>
<path fill-rule="evenodd" clip-rule="evenodd" d="M253.345 24.2552H254.942V22.0316H254.96C255.262 22.5188 255.866 22.6992 256.425 22.6992C257.8 22.6992 258.537 21.6934 258.537 20.4831C258.537 19.4932 257.836 18.4166 256.558 18.4166C255.83 18.4166 255.155 18.6759 254.836 19.2496H254.818V18.5108H253.345V24.2552V24.2552ZM256.886 20.5147C256.886 21.1671 256.522 21.6148 255.919 21.6148C255.386 21.6148 254.942 21.1671 254.942 20.5696C254.942 19.9568 255.333 19.501 255.919 19.501C256.54 19.501 256.886 19.9722 256.886 20.5147V20.5147Z" fill="#FFFFFE"/>
<path fill-rule="evenodd" clip-rule="evenodd" d="M248.257 22.6992C249.783 22.6992 250.946 21.9136 250.946 20.562C250.946 19.2022 249.783 18.4166 248.257 18.4166C246.73 18.4166 245.568 19.2022 245.568 20.562C245.568 21.9136 246.73 22.6992 248.257 22.6992M248.257 21.7091C247.52 21.7091 247.219 21.1671 247.219 20.562C247.219 19.9489 247.52 19.4067 248.257 19.4067C248.994 19.4067 249.296 19.9489 249.296 20.562C249.296 21.1671 248.994 21.7091 248.257 21.7091" fill="#D8232A"/>
<path fill-rule="evenodd" clip-rule="evenodd" d="M245.506 18.4633C245.346 18.4401 245.151 18.4166 244.965 18.4166C244.273 18.4166 243.873 18.7466 243.598 19.265H243.58V18.5108H242.125V22.6047H243.722V20.8763C243.722 20.0745 244.139 19.5951 244.885 19.5951C245.071 19.5951 245.249 19.5951 245.426 19.6421L245.506 18.4633" fill="#D8232A"/>
<path fill-rule="evenodd" clip-rule="evenodd" d="M239.46 22.6047H241.058V18.5108H239.46V22.6047ZM239.46 17.8428H241.058V16.8055H239.46V17.8428Z" fill="#D8232A"/>
<path fill-rule="evenodd" clip-rule="evenodd" d="M238.358 18.5108H236.911V19.2493H236.893C236.556 18.7466 236.005 18.4166 235.322 18.4166C233.884 18.4166 233.236 19.3279 233.236 20.546C233.236 21.7567 234.026 22.6047 235.296 22.6047C235.935 22.6047 236.467 22.3853 236.848 21.9053H236.866V22.1258C236.866 22.9274 236.37 23.3123 235.446 23.3123C234.781 23.3123 234.372 23.1867 233.884 22.9745L233.804 24.0905C234.177 24.2079 234.807 24.3497 235.571 24.3497C237.435 24.3497 238.358 23.8072 238.358 22.1258V18.5108V18.5108ZM234.887 20.5224C234.887 19.9646 235.198 19.501 235.793 19.501C236.511 19.501 236.813 20.0113 236.813 20.4673C236.813 21.0963 236.36 21.5206 235.793 21.5206C235.313 21.5206 234.887 21.1587 234.887 20.5224V20.5224Z" fill="#D8232A"/>
<rect x="112.3" y="2.14996" width="53.6" height="36.7" rx="3.5" fill="white" stroke="white"/>
<path d="M120.9 6.76845V34.2124C120.9 35.526 121.97 36.6008 123.278 36.6008H139.605C151.949 36.6008 157.3 29.6622 157.3 20.4545C157.3 11.2947 151.949 4.37994 139.605 4.37994H123.278C121.97 4.37994 120.9 5.45477 120.9 6.76845Z" fill="white"/>
<path d="M131.828 11.1156V31.3939H140.616C148.595 31.3939 152.056 26.8677 152.056 20.4665C152.056 14.34 148.595 9.58691 140.616 9.58691H133.35C132.506 9.58691 131.828 10.2796 131.828 11.1156Z" fill="#CC0066"/>
<path d="M139.605 34.4154H125.407C124.146 34.4154 123.124 33.3883 123.124 32.1224V8.87036C123.124 7.60445 124.146 6.57739 125.407 6.57739H139.605C153.079 6.57739 155.088 15.2835 155.088 20.4665C155.088 29.4592 149.582 34.4154 139.605 34.4154ZM125.407 7.34171C124.563 7.34171 123.885 8.02243 123.885 8.87036V32.1224C123.885 32.9704 124.563 33.6511 125.407 33.6511H139.605C149.095 33.6511 154.327 28.9696 154.327 20.4665C154.327 9.0495 145.099 7.34171 139.605 7.34171H125.407Z" fill="black"/>
<path d="M134.92 17.7317C135.229 17.7317 135.515 17.7794 135.788 17.875C136.062 17.9705 136.288 18.1258 136.49 18.3168C136.68 18.5198 136.835 18.7707 136.954 19.0573C137.061 19.3558 137.12 19.7022 137.12 20.1082C137.12 20.4665 137.073 20.7889 136.989 21.0875C136.894 21.3861 136.763 21.6488 136.585 21.8638C136.407 22.0787 136.181 22.2459 135.907 22.3773C135.634 22.4967 135.313 22.5684 134.944 22.5684H132.863V17.7197H134.92V17.7317ZM134.849 21.6846C135.003 21.6846 135.146 21.6607 135.301 21.613C135.443 21.5652 135.574 21.4816 135.681 21.3622C135.788 21.2428 135.883 21.0994 135.955 20.9084C136.026 20.7173 136.062 20.5023 136.062 20.2277C136.062 19.9888 136.038 19.7619 135.99 19.5708C135.943 19.3797 135.86 19.2006 135.753 19.0692C135.646 18.9379 135.503 18.8184 135.324 18.7468C135.146 18.6751 134.932 18.6393 134.67 18.6393H133.909V21.6966H134.849V21.6846Z" fill="white"/>
<path d="M141.413 17.7317V18.6273H138.868V19.6663H141.211V20.4904H138.868V21.6727H141.472V22.5684H137.81V17.7197H141.413V17.7317Z" fill="white"/>
<path d="M145.052 17.7317L146.859 22.5803H145.753L145.385 21.5055H143.577L143.197 22.5803H142.126L143.946 17.7317H145.052ZM145.111 20.7054L144.505 18.9259H144.493L143.863 20.7054H145.111Z" fill="white"/>
<path d="M148.584 17.7317V21.6847H150.938V22.5803H147.525V17.7317H148.584Z" fill="white"/>
<path d="M127.857 22.3893C129.085 22.3893 130.08 21.3894 130.08 20.156C130.08 18.9226 129.085 17.9228 127.857 17.9228C126.628 17.9228 125.633 18.9226 125.633 20.156C125.633 21.3894 126.628 22.3893 127.857 22.3893Z" fill="black"/>
<path d="M129.533 31.394C127.666 31.394 126.168 29.8772 126.168 28.0142V25.3749C126.168 24.4434 126.917 23.6791 127.857 23.6791C128.784 23.6791 129.545 24.4314 129.545 25.3749V31.394H129.533Z" fill="black"/>
<rect x="56.4" y="1.5" width="53.6" height="36.7" rx="3.5" fill="#F4B6C7" stroke="white"/>
<path fill-rule="evenodd" clip-rule="evenodd" d="M62.8785 25.313H60.6069V15.1375H62.8785V25.313ZM68.552 15.1375H66.329C66.329 17.0101 65.4913 18.7288 64.0308 19.8532L63.1501 20.5311L66.5626 25.3134H69.3682L66.2283 20.9129C67.7167 19.3897 68.552 17.3404 68.552 15.1375ZM72.1755 25.3096H70.0303V15.1389H72.1755V25.3096ZM78.6595 18.2747V18.7248C78.0805 18.3188 77.3816 18.0802 76.6278 18.0802C74.6329 18.0802 73.0157 19.7423 73.0157 21.7926C73.0157 23.8429 74.6329 25.505 76.6278 25.505C77.3816 25.505 78.0805 25.2664 78.6595 24.8606V25.3102H80.7091V18.2747H78.6595ZM78.6527 21.7926C78.6527 22.7923 77.8212 23.6028 76.7955 23.6028C75.7699 23.6028 74.9384 22.7923 74.9384 21.7926C74.9384 20.7929 75.7699 19.9826 76.7955 19.9826C77.8212 19.9826 78.6527 20.7929 78.6527 21.7926ZM100.282 18.7248V18.2747H102.331V25.3102H100.282V24.8606C99.7028 25.2664 99.004 25.505 98.2501 25.505C96.2552 25.505 94.638 23.8429 94.638 21.7926C94.638 19.7423 96.2552 18.0802 98.2501 18.0802C99.004 18.0802 99.7028 18.3188 100.282 18.7248ZM98.4179 23.6028C99.4436 23.6028 100.275 22.7923 100.275 21.7926C100.275 20.7929 99.4436 19.9826 98.4179 19.9826C97.3922 19.9826 96.5608 20.7929 96.5608 21.7926C96.5608 22.7923 97.3922 23.6028 98.4179 23.6028ZM103.221 24.1367C103.221 23.4066 103.797 22.8148 104.507 22.8148C105.217 22.8148 105.793 23.4066 105.793 24.1367C105.793 24.8666 105.217 25.4585 104.507 25.4585C103.797 25.4585 103.221 24.8666 103.221 24.1367ZM90.996 18.0855C90.1773 18.0855 89.4025 18.3467 88.8844 19.0674V18.2751H86.8437V25.3102H88.9095V21.613C88.9095 20.5432 89.6076 20.0193 90.448 20.0193C91.3488 20.0193 91.8666 20.5723 91.8666 21.5985V25.3102H93.9137V20.8362C93.9137 19.1989 92.6471 18.0855 90.996 18.0855ZM83.8796 18.2748V19.1911C84.2904 18.6415 85.056 18.2752 85.8882 18.2752V20.3224C85.8844 20.3224 85.8806 20.3222 85.8768 20.322L85.8732 20.3218L85.8639 20.3215C85.053 20.3215 83.8843 20.9172 83.8843 22.0255V25.3102H81.7812V18.2748H83.8796Z" fill="#17120F"/>
<path d="M282.909 18.4847C282.596 17.8597 281.991 17.4886 281.209 17.4886C279.881 17.4886 278.983 18.5629 278.983 20.1254C278.983 21.6879 279.862 22.723 281.209 22.723C281.991 22.723 282.616 22.3715 282.909 21.7269V22.6449H283.709V17.6058H282.909V18.4847ZM282.909 20.1058C282.909 21.3363 282.362 22.0394 281.366 22.0394C280.37 22.0394 279.803 21.3558 279.803 20.1254C279.803 18.8949 280.37 18.1722 281.366 18.1722C282.362 18.1722 282.909 18.8558 282.909 20.1058ZM289.295 19.4808C289.295 18.1527 288.69 17.4886 287.479 17.4886C286.698 17.4886 286.053 17.8597 285.741 18.5238L285.663 17.6058H284.901C284.94 18.0355 284.979 18.5043 284.979 19.0316V22.6449H285.78V19.7738C285.78 18.7972 286.405 18.1722 287.323 18.1722C288.123 18.1722 288.495 18.6019 288.495 19.5199V22.6449H289.295V19.4808ZM294.393 18.4652C294.1 17.8597 293.495 17.4886 292.713 17.4886C291.366 17.4886 290.487 18.5238 290.487 20.0863C290.487 21.6488 291.385 22.723 292.713 22.723C293.495 22.723 294.12 22.3715 294.413 21.7269V22.6449H295.213V15.2816H294.393V18.4652ZM294.413 20.1058C294.413 21.3363 293.866 22.0394 292.87 22.0394C291.873 22.0394 291.307 21.3168 291.307 20.0863C291.307 18.8754 291.873 18.1722 292.87 18.1722C293.866 18.1722 294.413 18.8754 294.413 20.1058ZM307.635 19.4808C307.635 18.1527 307.069 17.4886 305.975 17.4886C305.213 17.4886 304.588 17.8793 304.295 18.4652C304.041 17.8011 303.553 17.4886 302.752 17.4886C302.01 17.4886 301.444 17.8597 301.151 18.5043L301.073 17.6058H300.311C300.35 18.0355 300.389 18.5043 300.389 19.0316V22.6449H301.19V19.7738C301.19 18.7777 301.717 18.1722 302.577 18.1722C303.299 18.1722 303.612 18.6019 303.612 19.5199V22.6449H304.432V19.7738C304.432 18.7777 304.94 18.1722 305.78 18.1722C306.522 18.1722 306.834 18.5824 306.834 19.5199V22.6449H307.635V19.4808ZM308.827 20.1058C308.827 21.6879 309.764 22.723 311.19 22.723C312.635 22.723 313.573 21.6879 313.573 20.1058C313.573 18.5238 312.635 17.4886 311.19 17.4886C309.764 17.4886 308.827 18.5238 308.827 20.1058ZM312.752 20.1058C312.752 21.3754 312.205 22.0394 311.19 22.0394C310.194 22.0394 309.647 21.3754 309.647 20.1058C309.647 18.8754 310.213 18.1722 311.19 18.1722C312.166 18.1722 312.752 18.8754 312.752 20.1058ZM317.635 17.5472C317.498 17.5082 317.342 17.4886 317.186 17.4886C316.463 17.4886 315.858 17.8597 315.604 18.5433L315.526 17.6058H314.764C314.803 18.0355 314.842 18.5043 314.842 19.0316V22.6449H315.643V19.7738C315.643 19.3441 315.78 18.973 315.995 18.6801C316.248 18.3676 316.6 18.2113 317.088 18.2113C317.284 18.2113 317.479 18.2504 317.616 18.2894L317.635 17.5472ZM323.319 19.9496C323.319 18.4261 322.518 17.4886 321.19 17.4886C319.803 17.4886 318.827 18.5629 318.827 20.1058C318.827 21.7269 319.764 22.723 321.346 22.723C322.049 22.723 322.791 22.4496 323.241 22.0394L322.967 21.4535C322.479 21.8441 321.932 22.0394 321.346 22.0394C320.233 22.0394 319.647 21.3754 319.647 20.1058H323.319V19.9496ZM319.666 19.5785C319.823 18.6605 320.35 18.1332 321.19 18.1332C322.03 18.1332 322.518 18.6215 322.596 19.5785H319.666ZM325.487 22.6449V21.6097H324.452V22.6449H325.487ZM327.811 22.6449V21.6097H326.776V22.6449H327.811ZM330.135 22.6449V21.6097H329.1V22.6449H330.135Z" fill="black"/>
<defs>
<filter id="filter0_d_831_242" x="166.3" y="16.1339" width="57.4" height="17.2625" filterUnits="userSpaceOnUse" color-interpolation-filters="sRGB">
<feFlood flood-opacity="0" result="BackgroundImageFix"/>
<feColorMatrix in="SourceAlpha" type="matrix" values="0 0 0 0 0 0 0 0 0 0 0 0 0 0 0 0 0 0 127 0" result="hardAlpha"/>
<feOffset dy="4"/>
<feGaussianBlur stdDeviation="2"/>
<feComposite in2="hardAlpha" operator="out"/>
<feColorMatrix type="matrix" values="0 0 0 0 0 0 0 0 0 0 0 0 0 0 0 0 0 0 0.25 0"/>
<feBlend mode="normal" in2="BackgroundImageFix" result="effect1_dropShadow_831_242"/>
<feBlend mode="normal" in="SourceGraphic" in2="effect1_dropShadow_831_242" result="shape"/>
</filter>
</defs>
</svg>
