<svg width="139" height="34" viewBox="0 0 139 34" fill="none" xmlns="http://www.w3.org/2000/svg">
<g style="mix-blend-mode:multiply">
<path d="M28.3295 25.6071L12.8901 16.9883L0 24.7094L14.4009 34.0001L28.3295 25.6071Z" fill="#1C2260"/>
</g>
<path d="M27.8221 8.07612L14.4831 0L0.108643 9.35516V24.7095L27.8221 8.07612Z" fill="#5C6AC4"/>
<path d="M37.1712 22.8554C35.905 22.189 34.8472 21.186 34.1145 19.957C33.3654 18.6895 32.9807 17.24 33.0026 15.7679C32.9818 14.2978 33.3665 12.8504 34.1145 11.5846C34.8489 10.3569 35.9062 9.35435 37.1712 8.68623C38.5171 7.97839 40.0189 7.61933 41.5393 7.64188C42.8076 7.62311 44.066 7.86681 45.2356 8.35767C46.3087 8.81405 47.2586 9.51769 48.0078 10.4112L45.661 12.5673C45.1827 11.9828 44.5787 11.5137 43.8941 11.1947C43.2095 10.8758 42.4618 10.7152 41.7065 10.7251C40.7975 10.7094 39.8999 10.9297 39.1015 11.3646C38.3505 11.7812 37.7316 12.4001 37.315 13.1511C36.8801 13.9496 36.6598 14.8471 36.6755 15.7561C36.6598 16.6652 36.8801 17.5627 37.315 18.3611C37.7299 19.1134 38.3493 19.7328 39.1015 20.1477C39.8992 20.5848 40.7971 20.8063 41.7065 20.7901C42.4641 20.8 43.2139 20.637 43.8991 20.3138C44.5843 19.9905 45.1869 19.5153 45.661 18.9244L48.0078 21.0806C47.2636 21.9929 46.308 22.7099 45.2239 23.1693C44.052 23.6683 42.7895 23.919 41.5159 23.9056C40.0024 23.9264 38.5081 23.5652 37.1712 22.8554Z" fill="#2A2B31"/>
<path d="M61.6344 12.7138C62.5516 13.6115 63.0112 14.9443 63.0132 16.7122V23.6296H59.5105V17.252C59.5105 16.2927 59.2993 15.577 58.8827 15.1046C58.6489 14.8613 58.3647 14.6719 58.05 14.5498C57.7353 14.4276 57.3978 14.3757 57.061 14.3977C56.671 14.379 56.2815 14.4425 55.9176 14.584C55.5538 14.7255 55.2237 14.9418 54.9488 15.2191C54.4266 15.7647 54.1626 16.5773 54.1626 17.6539V23.6296H50.6599V6.96399H54.1626V12.8018C54.6417 12.3296 55.2171 11.9664 55.8494 11.7369C56.5398 11.4837 57.2703 11.3575 58.0056 11.3643C59.5017 11.3643 60.7113 11.8142 61.6344 12.7138Z" fill="#2A2B31"/>
<path d="M78.5376 18.5749H69.3937C69.5438 19.2908 69.9641 19.9212 70.5671 20.3351C71.2429 20.7886 72.0449 21.0166 72.8583 20.9863C73.429 20.9974 73.9969 20.903 74.5333 20.7076C75.0406 20.5085 75.5025 20.2092 75.8916 19.8276L77.7397 21.8517C76.6015 23.1562 74.9391 23.8084 72.7526 23.8084C71.5058 23.8359 70.2703 23.5675 69.1473 23.0252C68.1446 22.5337 67.3029 21.7664 66.7212 20.8132C66.1423 19.8379 65.8467 18.7204 65.8676 17.5863C65.8524 16.4619 66.1435 15.3545 66.7095 14.3829C67.261 13.4452 68.0624 12.6794 69.0241 12.1709C70.0285 11.6522 71.1416 11.3787 72.2721 11.3731C73.4025 11.3675 74.5183 11.6299 75.5278 12.1387C76.4741 12.6367 77.2572 13.3963 77.7837 14.3271C78.3471 15.3395 78.6307 16.4837 78.6051 17.6421C78.6198 17.6773 78.5816 17.9912 78.5376 18.5749ZM70.3236 14.6909C69.7737 15.1584 69.4206 15.8164 69.335 16.5332H75.2873C75.1967 15.8213 74.8442 15.1687 74.2986 14.7026C73.7456 14.2399 73.0422 13.9957 72.3214 14.0162C71.6009 13.9961 70.8971 14.2356 70.3383 14.6909H70.3236Z" fill="#2A2B31"/>
<path d="M83.7592 23.0254C82.768 22.5262 81.9359 21.7601 81.3566 20.8134C80.7699 19.8408 80.4699 18.7222 80.4912 17.5865C80.4703 16.4509 80.7702 15.3324 81.3566 14.3596C81.9392 13.4216 82.771 12.6639 83.7592 12.1711C84.8344 11.6282 86.0253 11.3543 87.2296 11.3732C88.3917 11.3467 89.5409 11.6216 90.5651 12.1711C91.4931 12.6779 92.2251 13.4802 92.645 14.4505L89.9256 15.9173C89.2978 14.8084 88.3913 14.254 87.2062 14.254C86.7868 14.2416 86.3692 14.3151 85.9793 14.4699C85.5893 14.6248 85.2351 14.8578 84.9385 15.1546C84.6307 15.4807 84.3924 15.8661 84.2381 16.2872C84.0838 16.7082 84.0167 17.1563 84.0409 17.6041C84.0169 18.0515 84.0841 18.499 84.2385 18.9196C84.3928 19.3402 84.6309 19.725 84.9385 20.0507C85.2353 20.3471 85.5896 20.5797 85.9795 20.734C86.3695 20.8884 86.787 20.9614 87.2062 20.9484C87.7712 20.963 88.3285 20.8141 88.811 20.5196C89.2934 20.225 89.6805 19.7973 89.9256 19.288L92.645 20.7694C92.2137 21.7242 91.4837 22.5128 90.5651 23.0166C89.5435 23.5742 88.3932 23.8534 87.2296 23.8262C86.0251 23.8442 84.8341 23.5694 83.7592 23.0254Z" fill="#2A2B31"/>
<path d="M100.214 18.8919L98.5299 20.5523V23.6296H95.0243V6.96399H98.5299V16.3984L103.652 11.5462H107.829L102.798 16.6682L108.278 23.6296H104.033L100.214 18.8919Z" fill="#2A2B31"/>
<path d="M110.39 9.29919C110.198 9.12125 110.045 8.90565 109.941 8.66588C109.836 8.42611 109.782 8.16734 109.782 7.90574C109.782 7.64415 109.836 7.38537 109.941 7.1456C110.045 6.90583 110.198 6.69023 110.39 6.5123C110.822 6.12896 111.386 5.9281 111.963 5.95198C112.534 5.92874 113.093 6.12144 113.529 6.49176C113.724 6.6571 113.879 6.86371 113.984 7.0966C114.089 7.32949 114.141 7.58284 114.136 7.83827C114.144 8.1091 114.094 8.37843 113.989 8.62832C113.884 8.8782 113.727 9.10291 113.529 9.28745C113.087 9.65329 112.531 9.85345 111.957 9.85345C111.383 9.85345 110.827 9.65329 110.384 9.28745L110.39 9.29919ZM110.211 11.5463H113.714V23.6297H110.211V11.5463Z" fill="#2A2B31"/>
<path d="M121.262 11.8162H124.363V14.518H121.353V23.6297H117.847V14.518H115.985V11.8162H117.847V11.2911C117.847 9.91231 118.255 8.81907 119.071 8.01136C119.886 7.20365 121.036 6.79882 122.521 6.79686C123.023 6.79392 123.525 6.85104 124.014 6.96701C124.43 7.05731 124.827 7.22016 125.187 7.44811L124.266 9.98859C123.852 9.7003 123.357 9.55039 122.852 9.56029C121.788 9.56029 121.256 10.147 121.256 11.3204L121.262 11.8162Z" fill="#2A2B31"/>
<path d="M138.784 11.5463L133.325 24.3719C132.769 25.7663 132.085 26.7442 131.271 27.3054C130.4 27.8911 129.367 28.1896 128.317 28.1591C127.685 28.1575 127.057 28.0586 126.454 27.8658C125.902 27.7038 125.389 27.428 124.95 27.0561L126.229 24.5626C126.503 24.8047 126.819 24.9946 127.161 25.1229C127.494 25.254 127.848 25.3226 128.206 25.3253C128.625 25.346 129.039 25.224 129.379 24.9791C129.74 24.6589 130.017 24.2564 130.189 23.8057L130.233 23.6942L124.999 11.5199H128.608L132.011 19.7456L135.414 11.5463H138.784Z" fill="#2A2B31"/>
</svg>
