<?xml version="1.0" encoding="UTF-8"?>
<svg xmlns="http://www.w3.org/2000/svg" xmlns:xlink="http://www.w3.org/1999/xlink" width="342px" height="42px" viewBox="0 0 339 42" version="1.1">
<g id="surface1">
<path style=" stroke:none;fill-rule:nonzero;fill:rgb(100%,100%,100%);fill-opacity:1;" d="M 116.859375 23.84375 C 117.253906 23.84375 117.578125 23.800781 117.828125 23.71875 C 118.28125 23.570312 118.652344 23.277344 118.941406 22.84375 C 119.167969 22.496094 119.335938 22.050781 119.4375 21.507812 C 119.496094 21.183594 119.523438 20.882812 119.523438 20.605469 C 119.523438 19.539062 119.3125 18.714844 118.886719 18.125 C 118.464844 17.535156 117.789062 17.238281 116.847656 17.238281 L 114.785156 17.238281 L 114.785156 23.84375 Z M 113.617188 16.238281 L 117.09375 16.238281 C 118.273438 16.238281 119.1875 16.65625 119.839844 17.496094 C 120.421875 18.253906 120.710938 19.222656 120.710938 20.40625 C 120.710938 21.320312 120.539062 22.144531 120.195312 22.882812 C 119.59375 24.1875 118.554688 24.839844 117.082031 24.839844 L 113.617188 24.839844 Z M 124.675781 18.429688 C 125.121094 18.429688 125.550781 18.535156 125.96875 18.746094 C 126.382812 18.949219 126.703125 19.21875 126.921875 19.550781 C 127.128906 19.867188 127.269531 20.238281 127.339844 20.660156 C 127.402344 20.949219 127.433594 21.410156 127.433594 22.039062 L 122.847656 22.039062 C 122.867188 22.675781 123.019531 23.1875 123.296875 23.574219 C 123.578125 23.957031 124.011719 24.148438 124.601562 24.148438 C 125.148438 24.148438 125.589844 23.964844 125.914062 23.605469 C 126.101562 23.394531 126.234375 23.148438 126.3125 22.871094 L 127.347656 22.871094 C 127.320312 23.101562 127.226562 23.359375 127.070312 23.644531 C 126.921875 23.925781 126.75 24.15625 126.558594 24.335938 C 126.238281 24.648438 125.84375 24.859375 125.371094 24.96875 C 125.117188 25.03125 124.832031 25.0625 124.511719 25.0625 C 123.734375 25.0625 123.074219 24.777344 122.53125 24.210938 C 121.992188 23.644531 121.722656 22.847656 121.722656 21.824219 C 121.722656 20.816406 121.992188 20 122.539062 19.371094 C 123.082031 18.742188 123.796875 18.429688 124.675781 18.429688 Z M 126.351562 21.203125 C 126.3125 20.746094 126.210938 20.382812 126.054688 20.109375 C 125.769531 19.601562 125.285156 19.347656 124.613281 19.347656 C 124.128906 19.347656 123.722656 19.523438 123.398438 19.875 C 123.070312 20.222656 122.898438 20.664062 122.878906 21.203125 Z M 128.648438 16.210938 L 129.671875 16.210938 L 129.671875 19.328125 C 129.902344 19.027344 130.175781 18.800781 130.496094 18.644531 C 130.820312 18.484375 131.175781 18.402344 131.535156 18.40625 C 132.3125 18.40625 132.945312 18.671875 133.429688 19.210938 C 133.914062 19.746094 134.160156 20.539062 134.160156 21.582031 C 134.160156 22.574219 133.917969 23.398438 133.441406 24.054688 C 132.960938 24.710938 132.296875 25.039062 131.449219 25.039062 C 130.972656 25.039062 130.570312 24.921875 130.246094 24.691406 C 130.050781 24.554688 129.839844 24.335938 129.617188 24.035156 L 129.617188 24.839844 L 128.648438 24.839844 Z M 131.382812 24.105469 C 131.953125 24.105469 132.375 23.882812 132.65625 23.429688 C 132.9375 22.976562 133.082031 22.378906 133.082031 21.636719 C 133.082031 20.976562 132.941406 20.429688 132.65625 19.996094 C 132.375 19.5625 131.960938 19.347656 131.414062 19.347656 C 130.933594 19.347656 130.511719 19.523438 130.152344 19.878906 C 129.792969 20.234375 129.613281 20.820312 129.613281 21.636719 C 129.613281 22.226562 129.6875 22.703125 129.835938 23.070312 C 130.113281 23.761719 130.628906 24.105469 131.382812 24.105469 Z M 135.390625 18.597656 L 136.460938 18.597656 L 136.460938 24.839844 L 135.390625 24.839844 Z M 135.390625 16.238281 L 136.460938 16.238281 L 136.460938 17.433594 L 135.390625 17.433594 Z M 138.265625 16.816406 L 139.328125 16.816406 L 139.328125 18.570312 L 140.328125 18.570312 L 140.328125 19.429688 L 139.328125 19.429688 L 139.328125 23.519531 C 139.328125 23.742188 139.402344 23.886719 139.550781 23.960938 C 139.632812 24.003906 139.769531 24.023438 139.960938 24.023438 L 140.125 24.023438 L 140.328125 24.007812 L 140.328125 24.839844 C 140.207031 24.875 140.082031 24.898438 139.949219 24.914062 C 139.820312 24.929688 139.679688 24.9375 139.527344 24.9375 C 139.035156 24.9375 138.703125 24.8125 138.527344 24.5625 C 138.351562 24.308594 138.265625 23.980469 138.265625 23.578125 L 138.265625 19.429688 L 137.417969 19.429688 L 137.417969 18.570312 L 138.265625 18.570312 Z M 147.199219 24.160156 C 147.894531 24.160156 148.371094 23.894531 148.628906 23.371094 C 148.890625 22.839844 149.019531 22.25 149.019531 21.601562 C 149.019531 21.015625 148.925781 20.539062 148.742188 20.171875 C 148.445312 19.59375 147.933594 19.304688 147.210938 19.304688 C 146.566406 19.304688 146.101562 19.550781 145.808594 20.042969 C 145.515625 20.535156 145.371094 21.128906 145.371094 21.824219 C 145.371094 22.492188 145.515625 23.046875 145.808594 23.492188 C 146.101562 23.9375 146.5625 24.160156 147.199219 24.160156 Z M 147.238281 18.386719 C 148.046875 18.386719 148.726562 18.65625 149.285156 19.195312 C 149.839844 19.734375 150.121094 20.527344 150.121094 21.570312 C 150.121094 22.582031 149.875 23.417969 149.382812 24.078125 C 148.894531 24.738281 148.132812 25.066406 147.097656 25.066406 C 146.238281 25.066406 145.554688 24.777344 145.046875 24.195312 C 144.542969 23.609375 144.289062 22.824219 144.289062 21.839844 C 144.289062 20.789062 144.554688 19.949219 145.089844 19.324219 C 145.625 18.699219 146.339844 18.386719 147.238281 18.386719 Z M 151.40625 18.570312 L 152.402344 18.570312 L 152.402344 19.652344 C 152.484375 19.441406 152.6875 19.183594 153.003906 18.886719 C 153.324219 18.578125 153.691406 18.429688 154.109375 18.429688 C 154.144531 18.429688 154.175781 18.429688 154.210938 18.433594 L 154.449219 18.457031 L 154.449219 19.570312 C 154.386719 19.558594 154.328125 19.550781 154.273438 19.546875 L 154.101562 19.539062 C 153.574219 19.539062 153.167969 19.710938 152.882812 20.054688 C 152.597656 20.398438 152.457031 20.789062 152.457031 21.234375 L 152.457031 24.839844 L 151.40625 24.839844 Z M 162.445312 16.003906 C 163.53125 16.003906 164.375 16.292969 164.976562 16.863281 C 165.578125 17.4375 165.910156 18.089844 165.976562 18.820312 L 164.839844 18.820312 C 164.710938 18.265625 164.457031 17.828125 164.070312 17.503906 C 163.683594 17.179688 163.152344 17.015625 162.457031 17.015625 C 161.613281 17.015625 160.929688 17.316406 160.40625 17.914062 C 159.890625 18.507812 159.628906 19.417969 159.628906 20.648438 C 159.628906 21.652344 159.863281 22.472656 160.332031 23.101562 C 160.804688 23.722656 161.503906 24.035156 162.433594 24.035156 C 163.292969 24.035156 163.945312 23.707031 164.390625 23.046875 C 164.628906 22.699219 164.804688 22.242188 164.921875 21.675781 L 166.058594 21.675781 C 165.957031 22.582031 165.621094 23.34375 165.050781 23.953125 C 164.371094 24.691406 163.453125 25.0625 162.292969 25.0625 C 161.296875 25.0625 160.460938 24.757812 159.78125 24.152344 C 158.890625 23.355469 158.445312 22.117188 158.445312 20.449219 C 158.445312 19.179688 158.78125 18.140625 159.449219 17.328125 C 160.171875 16.445312 161.171875 16.003906 162.445312 16.003906 Z M 167.367188 18.570312 L 168.363281 18.570312 L 168.363281 19.652344 C 168.445312 19.441406 168.648438 19.183594 168.964844 18.886719 C 169.285156 18.578125 169.652344 18.429688 170.070312 18.429688 C 170.089844 18.429688 170.121094 18.429688 170.167969 18.433594 L 170.410156 18.457031 L 170.410156 19.570312 C 170.347656 19.558594 170.289062 19.550781 170.234375 19.546875 L 170.0625 19.539062 C 169.535156 19.539062 169.128906 19.710938 168.84375 20.054688 C 168.558594 20.398438 168.417969 20.789062 168.417969 21.234375 L 168.417969 24.839844 L 167.367188 24.839844 Z M 173.925781 18.429688 C 174.371094 18.429688 174.800781 18.535156 175.21875 18.746094 C 175.632812 18.949219 175.953125 19.21875 176.167969 19.550781 C 176.378906 19.867188 176.519531 20.238281 176.589844 20.660156 C 176.652344 20.949219 176.683594 21.410156 176.683594 22.039062 L 172.097656 22.039062 C 172.117188 22.675781 172.265625 23.1875 172.546875 23.574219 C 172.828125 23.957031 173.261719 24.148438 173.851562 24.148438 C 174.398438 24.148438 174.835938 23.964844 175.164062 23.605469 C 175.351562 23.394531 175.484375 23.148438 175.5625 22.871094 L 176.597656 22.871094 C 176.570312 23.101562 176.476562 23.359375 176.320312 23.644531 C 176.167969 23.925781 176 24.15625 175.808594 24.335938 C 175.488281 24.648438 175.09375 24.859375 174.621094 24.96875 C 174.367188 25.03125 174.082031 25.0625 173.761719 25.0625 C 172.984375 25.0625 172.324219 24.777344 171.78125 24.210938 C 171.242188 23.644531 170.96875 22.847656 170.96875 21.824219 C 170.96875 20.816406 171.242188 20 171.789062 19.371094 C 172.332031 18.742188 173.046875 18.429688 173.925781 18.429688 Z M 175.601562 21.203125 C 175.558594 20.746094 175.460938 20.382812 175.304688 20.109375 C 175.015625 19.601562 174.535156 19.347656 173.863281 19.347656 C 173.378906 19.347656 172.972656 19.523438 172.648438 19.875 C 172.320312 20.222656 172.144531 20.664062 172.125 21.203125 Z M 178.644531 21.777344 C 178.644531 22.449219 178.789062 23.011719 179.074219 23.464844 C 179.359375 23.917969 179.8125 24.140625 180.441406 24.140625 C 180.925781 24.140625 181.324219 23.933594 181.636719 23.515625 C 181.953125 23.09375 182.109375 22.492188 182.109375 21.707031 C 182.109375 20.914062 181.949219 20.328125 181.625 19.949219 C 181.300781 19.566406 180.902344 19.375 180.429688 19.375 C 179.898438 19.375 179.46875 19.578125 179.136719 19.984375 C 178.804688 20.390625 178.644531 20.988281 178.644531 21.777344 Z M 180.230469 18.457031 C 180.707031 18.457031 181.109375 18.558594 181.433594 18.761719 C 181.621094 18.878906 181.832031 19.082031 182.070312 19.375 L 182.070312 16.210938 L 183.082031 16.210938 L 183.082031 24.839844 L 182.132812 24.839844 L 182.132812 23.964844 C 181.890625 24.351562 181.597656 24.632812 181.265625 24.804688 C 180.929688 24.976562 180.546875 25.0625 180.113281 25.0625 C 179.414062 25.0625 178.8125 24.769531 178.300781 24.183594 C 177.792969 23.59375 177.535156 22.8125 177.535156 21.835938 C 177.535156 20.921875 177.769531 20.132812 178.230469 19.464844 C 178.699219 18.792969 179.363281 18.457031 180.230469 18.457031 Z M 184.640625 18.597656 L 185.710938 18.597656 L 185.710938 24.839844 L 184.640625 24.839844 Z M 184.640625 16.238281 L 185.710938 16.238281 L 185.710938 17.433594 L 184.640625 17.433594 Z M 187.515625 16.816406 L 188.578125 16.816406 L 188.578125 18.570312 L 189.578125 18.570312 L 189.578125 19.429688 L 188.578125 19.429688 L 188.578125 23.519531 C 188.578125 23.742188 188.652344 23.886719 188.800781 23.960938 C 188.882812 24.003906 189.019531 24.023438 189.210938 24.023438 L 189.371094 24.023438 L 189.578125 24.007812 L 189.578125 24.839844 C 189.457031 24.875 189.332031 24.898438 189.195312 24.914062 C 189.070312 24.929688 188.929688 24.9375 188.777344 24.9375 C 188.285156 24.9375 187.953125 24.8125 187.777344 24.5625 C 187.601562 24.308594 187.515625 23.980469 187.515625 23.578125 L 187.515625 19.429688 L 186.667969 19.429688 L 186.667969 18.570312 L 187.515625 18.570312 Z M 197.722656 16.003906 C 198.808594 16.003906 199.652344 16.292969 200.25 16.863281 C 200.851562 17.4375 201.183594 18.089844 201.25 18.820312 L 200.117188 18.820312 C 199.988281 18.265625 199.730469 17.828125 199.34375 17.503906 C 198.964844 17.179688 198.425781 17.015625 197.734375 17.015625 C 196.886719 17.015625 196.203125 17.316406 195.683594 17.914062 C 195.164062 18.507812 194.90625 19.417969 194.90625 20.648438 C 194.90625 21.652344 195.140625 22.472656 195.605469 23.101562 C 196.078125 23.722656 196.777344 24.035156 197.710938 24.035156 C 198.566406 24.035156 199.21875 23.707031 199.667969 23.046875 C 199.90625 22.699219 200.082031 22.242188 200.199219 21.675781 L 201.332031 21.675781 C 201.230469 22.582031 200.894531 23.34375 200.328125 23.953125 C 199.644531 24.691406 198.726562 25.0625 197.570312 25.0625 C 196.570312 25.0625 195.734375 24.757812 195.058594 24.152344 C 194.164062 23.355469 193.71875 22.117188 193.71875 20.449219 C 193.71875 19.179688 194.054688 18.140625 194.722656 17.328125 C 195.449219 16.445312 196.449219 16.003906 197.722656 16.003906 Z M 203.417969 23.171875 C 203.417969 23.476562 203.527344 23.714844 203.75 23.890625 C 203.972656 24.066406 204.234375 24.152344 204.539062 24.152344 C 204.910156 24.152344 205.265625 24.066406 205.613281 23.894531 C 206.199219 23.609375 206.488281 23.144531 206.488281 22.496094 L 206.488281 21.648438 C 206.363281 21.730469 206.195312 21.796875 205.992188 21.851562 C 205.796875 21.90625 205.597656 21.945312 205.398438 21.96875 L 204.761719 22.050781 C 204.378906 22.101562 204.09375 22.183594 203.902344 22.292969 C 203.578125 22.476562 203.417969 22.769531 203.417969 23.171875 Z M 205.964844 21.039062 C 206.207031 21.007812 206.367188 20.90625 206.449219 20.734375 C 206.496094 20.640625 206.519531 20.507812 206.519531 20.332031 C 206.519531 19.972656 206.390625 19.710938 206.132812 19.550781 C 205.878906 19.386719 205.515625 19.304688 205.042969 19.304688 C 204.492188 19.304688 204.101562 19.453125 203.871094 19.75 C 203.746094 19.914062 203.660156 20.160156 203.621094 20.484375 L 202.640625 20.484375 C 202.660156 19.710938 202.910156 19.171875 203.386719 18.871094 C 203.871094 18.570312 204.429688 18.417969 205.0625 18.417969 C 205.800781 18.417969 206.398438 18.554688 206.859375 18.835938 C 207.3125 19.117188 207.542969 19.554688 207.542969 20.148438 L 207.542969 23.761719 C 207.542969 23.871094 207.5625 23.960938 207.605469 24.023438 C 207.648438 24.089844 207.746094 24.125 207.890625 24.125 L 208.050781 24.117188 L 208.238281 24.089844 L 208.238281 24.867188 L 207.863281 24.957031 C 207.777344 24.96875 207.660156 24.972656 207.511719 24.972656 C 207.148438 24.972656 206.886719 24.84375 206.722656 24.585938 C 206.636719 24.449219 206.578125 24.257812 206.542969 24.007812 C 206.328125 24.289062 206.019531 24.53125 205.621094 24.738281 C 205.21875 24.945312 204.777344 25.050781 204.292969 25.050781 C 203.714844 25.050781 203.238281 24.875 202.867188 24.523438 C 202.5 24.171875 202.320312 23.722656 202.320312 23.195312 C 202.320312 22.613281 202.5 22.160156 202.863281 21.839844 C 203.222656 21.523438 203.699219 21.324219 204.289062 21.25 Z M 209.300781 18.570312 L 210.300781 18.570312 L 210.300781 19.652344 C 210.378906 19.441406 210.582031 19.183594 210.902344 18.886719 C 211.21875 18.578125 211.589844 18.429688 212.003906 18.429688 C 212.023438 18.429688 212.058594 18.429688 212.105469 18.433594 L 212.34375 18.457031 L 212.34375 19.570312 C 212.28125 19.558594 212.222656 19.550781 212.167969 19.546875 L 212 19.539062 C 211.46875 19.539062 211.0625 19.710938 210.777344 20.054688 C 210.492188 20.398438 210.351562 20.789062 210.351562 21.234375 L 210.351562 24.839844 L 209.300781 24.839844 Z M 213.921875 21.777344 C 213.921875 22.449219 214.0625 23.011719 214.347656 23.464844 C 214.632812 23.917969 215.085938 24.140625 215.714844 24.140625 C 216.203125 24.140625 216.601562 23.933594 216.914062 23.515625 C 217.226562 23.09375 217.386719 22.492188 217.386719 21.707031 C 217.386719 20.914062 217.222656 20.328125 216.902344 19.949219 C 216.578125 19.566406 216.179688 19.375 215.703125 19.375 C 215.171875 19.375 214.742188 19.578125 214.414062 19.984375 C 214.085938 20.390625 213.921875 20.988281 213.921875 21.777344 Z M 215.503906 18.457031 C 215.984375 18.457031 216.386719 18.558594 216.707031 18.761719 C 216.894531 18.878906 217.109375 19.082031 217.34375 19.375 L 217.34375 16.210938 L 218.355469 16.210938 L 218.355469 24.839844 L 217.410156 24.839844 L 217.410156 23.964844 C 217.164062 24.351562 216.875 24.632812 216.539062 24.804688 C 216.203125 24.976562 215.820312 25.0625 215.386719 25.0625 C 214.691406 25.0625 214.085938 24.769531 213.578125 24.183594 C 213.066406 23.59375 212.8125 22.8125 212.8125 21.835938 C 212.8125 20.921875 213.042969 20.132812 213.507812 19.464844 C 213.972656 18.792969 214.640625 18.457031 215.503906 18.457031 Z M 97.792969 20.007812 C 97.609375 20.007812 97.460938 19.859375 97.460938 19.675781 C 97.460938 19.492188 97.609375 19.339844 97.792969 19.339844 L 106.574219 19.339844 C 107 19.339844 107.351562 19.691406 107.351562 20.121094 L 107.351562 25.214844 C 107.351562 25.648438 107 25.996094 106.574219 25.996094 L 96.164062 25.996094 C 95.734375 25.996094 95.386719 25.648438 95.386719 25.214844 L 95.386719 17.449219 C 95.386719 17.019531 95.734375 16.671875 96.164062 16.671875 L 106.574219 16.671875 C 107 16.671875 107.351562 17.023438 107.351562 17.453125 L 107.351562 18.261719 C 107.351562 18.445312 107.199219 18.59375 107.019531 18.59375 C 106.835938 18.59375 106.683594 18.445312 106.683594 18.261719 L 106.683594 17.453125 C 106.683594 17.390625 106.636719 17.339844 106.574219 17.339844 L 96.164062 17.335938 C 96.132812 17.335938 96.105469 17.347656 96.082031 17.371094 C 96.0625 17.390625 96.050781 17.421875 96.050781 17.449219 L 96.050781 25.214844 C 96.050781 25.246094 96.0625 25.273438 96.082031 25.296875 C 96.105469 25.316406 96.132812 25.328125 96.164062 25.328125 L 106.574219 25.328125 C 106.601562 25.328125 106.632812 25.316406 106.652344 25.296875 C 106.671875 25.273438 106.683594 25.246094 106.683594 25.214844 L 106.683594 20.121094 C 106.683594 20.058594 106.632812 20.007812 106.574219 20.007812 Z M 97.792969 20.007812 "/>
<path style=" stroke:none;fill-rule:nonzero;fill:rgb(17.254902%,18.039216%,18.431373%);fill-opacity:1;" d="M 2.328125 5.34375 C 2.328125 3.871094 3.511719 2.679688 4.984375 2.679688 L 332.019531 2.679688 C 333.492188 2.679688 334.679688 3.871094 334.679688 5.34375 L 334.679688 36.65625 C 334.679688 38.128906 333.492188 39.320312 332.019531 39.320312 L 4.984375 39.320312 C 3.511719 39.320312 2.328125 38.128906 2.328125 36.65625 Z M 2.328125 5.34375 "/>
<path style=" stroke:none;fill-rule:nonzero;fill:rgb(100%,100%,100%);fill-opacity:1;" d="M 107.097656 20.007812 C 106.914062 20.007812 106.765625 19.859375 106.765625 19.675781 C 106.765625 19.492188 106.914062 19.339844 107.097656 19.339844 L 115.878906 19.339844 C 116.308594 19.339844 116.65625 19.691406 116.65625 20.121094 L 116.65625 25.214844 C 116.65625 25.648438 116.308594 25.996094 115.878906 25.996094 L 105.46875 25.996094 C 105.039062 25.996094 104.691406 25.648438 104.691406 25.214844 L 104.691406 17.449219 C 104.691406 17.019531 105.039062 16.671875 105.46875 16.671875 L 115.878906 16.671875 C 116.308594 16.671875 116.65625 17.023438 116.65625 17.453125 L 116.65625 18.261719 C 116.65625 18.445312 116.507812 18.59375 116.324219 18.59375 C 116.140625 18.59375 115.992188 18.445312 115.992188 18.261719 L 115.992188 17.453125 C 115.992188 17.390625 115.941406 17.339844 115.878906 17.339844 L 105.46875 17.335938 C 105.4375 17.335938 105.410156 17.347656 105.390625 17.371094 C 105.367188 17.390625 105.355469 17.421875 105.355469 17.449219 L 105.355469 25.214844 C 105.355469 25.246094 105.367188 25.273438 105.390625 25.296875 C 105.410156 25.316406 105.4375 25.328125 105.46875 25.328125 L 115.878906 25.328125 C 115.910156 25.328125 115.9375 25.316406 115.957031 25.296875 C 115.980469 25.273438 115.992188 25.246094 115.992188 25.214844 L 115.992188 20.121094 C 115.992188 20.058594 115.941406 20.007812 115.878906 20.007812 Z M 126.179688 23.667969 C 126.574219 23.667969 126.894531 23.628906 127.148438 23.546875 C 127.601562 23.394531 127.972656 23.101562 128.257812 22.667969 C 128.488281 22.320312 128.65625 21.875 128.757812 21.332031 C 128.816406 21.007812 128.84375 20.707031 128.84375 20.429688 C 128.84375 19.367188 128.632812 18.539062 128.207031 17.949219 C 127.785156 17.359375 127.105469 17.0625 126.167969 17.0625 L 124.105469 17.0625 L 124.105469 23.667969 Z M 122.9375 16.0625 L 126.414062 16.0625 C 127.59375 16.0625 128.507812 16.484375 129.160156 17.320312 C 129.738281 18.078125 130.03125 19.050781 130.03125 20.230469 C 130.03125 21.144531 129.859375 21.96875 129.515625 22.707031 C 128.910156 24.011719 127.875 24.664062 126.402344 24.664062 L 122.9375 24.664062 Z M 133.996094 18.253906 C 134.441406 18.253906 134.871094 18.359375 135.289062 18.570312 C 135.703125 18.777344 136.023438 19.042969 136.238281 19.375 C 136.449219 19.691406 136.589844 20.0625 136.660156 20.484375 C 136.722656 20.773438 136.753906 21.234375 136.753906 21.867188 L 132.167969 21.867188 C 132.1875 22.5 132.335938 23.011719 132.617188 23.398438 C 132.898438 23.78125 133.332031 23.972656 133.921875 23.972656 C 134.46875 23.972656 134.90625 23.792969 135.234375 23.429688 C 135.421875 23.21875 135.554688 22.972656 135.632812 22.695312 L 136.667969 22.695312 C 136.640625 22.925781 136.546875 23.183594 136.390625 23.46875 C 136.238281 23.75 136.070312 23.980469 135.878906 24.160156 C 135.558594 24.472656 135.164062 24.683594 134.691406 24.792969 C 134.4375 24.855469 134.152344 24.886719 133.832031 24.886719 C 133.054688 24.886719 132.394531 24.601562 131.851562 24.039062 C 131.3125 23.46875 131.039062 22.671875 131.039062 21.648438 C 131.039062 20.640625 131.3125 19.824219 131.859375 19.195312 C 132.402344 18.566406 133.117188 18.253906 133.996094 18.253906 Z M 135.671875 21.027344 C 135.628906 20.570312 135.53125 20.207031 135.375 19.933594 C 135.085938 19.425781 134.605469 19.171875 133.933594 19.171875 C 133.449219 19.171875 133.042969 19.347656 132.71875 19.699219 C 132.390625 20.046875 132.214844 20.488281 132.199219 21.027344 Z M 137.96875 16.035156 L 138.992188 16.035156 L 138.992188 19.152344 C 139.222656 18.855469 139.496094 18.625 139.816406 18.46875 C 140.140625 18.308594 140.496094 18.226562 140.855469 18.230469 C 141.632812 18.230469 142.265625 18.5 142.75 19.039062 C 143.234375 19.570312 143.480469 20.363281 143.480469 21.410156 C 143.480469 22.398438 143.238281 23.222656 142.757812 23.878906 C 142.28125 24.535156 141.617188 24.863281 140.765625 24.863281 C 140.292969 24.863281 139.890625 24.746094 139.5625 24.515625 C 139.371094 24.378906 139.160156 24.164062 138.9375 23.863281 L 138.9375 24.664062 L 137.96875 24.664062 Z M 140.703125 23.933594 C 141.273438 23.933594 141.695312 23.707031 141.976562 23.253906 C 142.257812 22.800781 142.402344 22.203125 142.402344 21.460938 C 142.402344 20.800781 142.261719 20.253906 141.976562 19.820312 C 141.691406 19.386719 141.28125 19.171875 140.734375 19.171875 C 140.253906 19.171875 139.832031 19.347656 139.46875 19.703125 C 139.113281 20.058594 138.933594 20.644531 138.933594 21.460938 C 138.933594 22.050781 139.007812 22.527344 139.15625 22.894531 C 139.433594 23.585938 139.949219 23.933594 140.703125 23.933594 Z M 144.710938 18.421875 L 145.78125 18.421875 L 145.78125 24.664062 L 144.710938 24.664062 Z M 144.710938 16.0625 L 145.78125 16.0625 L 145.78125 17.257812 L 144.710938 17.257812 Z M 147.585938 16.644531 L 148.648438 16.644531 L 148.648438 18.394531 L 149.648438 18.394531 L 149.648438 19.253906 L 148.648438 19.253906 L 148.648438 23.347656 C 148.648438 23.566406 148.722656 23.710938 148.871094 23.785156 C 148.953125 23.828125 149.089844 23.851562 149.28125 23.851562 L 149.441406 23.851562 L 149.648438 23.832031 L 149.648438 24.664062 C 149.527344 24.699219 149.402344 24.722656 149.269531 24.738281 C 149.140625 24.753906 149 24.761719 148.847656 24.761719 C 148.355469 24.761719 148.023438 24.636719 147.847656 24.390625 C 147.671875 24.136719 147.585938 23.808594 147.585938 23.40625 L 147.585938 19.253906 L 146.738281 19.253906 L 146.738281 18.394531 L 147.585938 18.394531 Z M 156.519531 23.984375 C 157.214844 23.984375 157.691406 23.722656 157.949219 23.195312 C 158.210938 22.664062 158.339844 22.074219 158.339844 21.425781 C 158.339844 20.839844 158.246094 20.363281 158.058594 19.996094 C 157.765625 19.417969 157.253906 19.128906 156.53125 19.128906 C 155.886719 19.128906 155.417969 19.375 155.128906 19.867188 C 154.835938 20.359375 154.691406 20.953125 154.691406 21.648438 C 154.691406 22.316406 154.835938 22.871094 155.128906 23.316406 C 155.421875 23.761719 155.882812 23.984375 156.519531 23.984375 Z M 156.558594 18.210938 C 157.363281 18.210938 158.046875 18.480469 158.601562 19.019531 C 159.160156 19.558594 159.4375 20.351562 159.4375 21.398438 C 159.4375 22.40625 159.195312 23.242188 158.703125 23.902344 C 158.210938 24.5625 157.449219 24.890625 156.417969 24.890625 C 155.558594 24.890625 154.875 24.601562 154.367188 24.019531 C 153.863281 23.433594 153.609375 22.648438 153.609375 21.667969 C 153.609375 20.613281 153.875 19.773438 154.410156 19.148438 C 154.941406 18.523438 155.660156 18.210938 156.558594 18.210938 Z M 160.722656 18.394531 L 161.722656 18.394531 L 161.722656 19.476562 C 161.804688 19.265625 162.007812 19.011719 162.324219 18.710938 C 162.644531 18.40625 163.011719 18.253906 163.429688 18.253906 C 163.460938 18.253906 163.496094 18.253906 163.527344 18.257812 L 163.769531 18.28125 L 163.769531 19.394531 C 163.707031 19.382812 163.648438 19.375 163.59375 19.371094 L 163.421875 19.367188 C 162.894531 19.367188 162.488281 19.539062 162.203125 19.878906 C 161.917969 20.222656 161.777344 20.613281 161.777344 21.058594 L 161.777344 24.664062 L 160.722656 24.664062 Z M 171.765625 15.828125 C 172.851562 15.828125 173.695312 16.117188 174.296875 16.6875 C 174.894531 17.261719 175.226562 17.914062 175.292969 18.644531 L 174.160156 18.644531 C 174.03125 18.089844 173.777344 17.652344 173.390625 17.328125 C 173.003906 17.003906 172.472656 16.84375 171.777344 16.84375 C 170.933594 16.84375 170.25 17.140625 169.726562 17.738281 C 169.207031 18.332031 168.949219 19.242188 168.949219 20.472656 C 168.949219 21.480469 169.183594 22.296875 169.652344 22.925781 C 170.121094 23.550781 170.824219 23.863281 171.753906 23.863281 C 172.613281 23.863281 173.261719 23.53125 173.710938 22.871094 C 173.949219 22.523438 174.125 22.070312 174.242188 21.503906 L 175.375 21.503906 C 175.273438 22.40625 174.941406 23.167969 174.371094 23.78125 C 173.691406 24.515625 172.769531 24.886719 171.613281 24.886719 C 170.617188 24.886719 169.78125 24.582031 169.101562 23.980469 C 168.210938 23.179688 167.765625 21.941406 167.765625 20.273438 C 167.765625 19.003906 168.097656 17.964844 168.769531 17.152344 C 169.492188 16.269531 170.492188 15.828125 171.765625 15.828125 Z M 176.683594 18.394531 L 177.683594 18.394531 L 177.683594 19.476562 C 177.765625 19.265625 177.964844 19.011719 178.285156 18.710938 C 178.605469 18.40625 178.972656 18.253906 179.390625 18.253906 C 179.410156 18.253906 179.441406 18.253906 179.488281 18.257812 L 179.730469 18.28125 L 179.730469 19.394531 C 179.667969 19.382812 179.609375 19.375 179.554688 19.371094 L 179.382812 19.367188 C 178.855469 19.367188 178.449219 19.539062 178.164062 19.878906 C 177.878906 20.222656 177.738281 20.613281 177.738281 21.058594 L 177.738281 24.664062 L 176.683594 24.664062 Z M 183.246094 18.253906 C 183.691406 18.253906 184.121094 18.359375 184.535156 18.570312 C 184.953125 18.777344 185.269531 19.042969 185.488281 19.375 C 185.699219 19.691406 185.839844 20.0625 185.910156 20.484375 C 185.972656 20.773438 186.003906 21.234375 186.003906 21.867188 L 181.417969 21.867188 C 181.4375 22.5 181.585938 23.011719 181.867188 23.398438 C 182.148438 23.78125 182.582031 23.972656 183.167969 23.972656 C 183.71875 23.972656 184.15625 23.792969 184.484375 23.429688 C 184.671875 23.21875 184.804688 22.972656 184.882812 22.695312 L 185.914062 22.695312 C 185.886719 22.925781 185.796875 23.183594 185.640625 23.46875 C 185.488281 23.75 185.316406 23.980469 185.128906 24.160156 C 184.808594 24.472656 184.414062 24.683594 183.941406 24.792969 C 183.6875 24.855469 183.402344 24.886719 183.082031 24.886719 C 182.304688 24.886719 181.644531 24.601562 181.101562 24.039062 C 180.5625 23.46875 180.289062 22.671875 180.289062 21.648438 C 180.289062 20.640625 180.5625 19.824219 181.109375 19.195312 C 181.652344 18.566406 182.367188 18.253906 183.246094 18.253906 Z M 184.921875 21.027344 C 184.878906 20.570312 184.78125 20.207031 184.625 19.933594 C 184.335938 19.425781 183.855469 19.171875 183.183594 19.171875 C 182.699219 19.171875 182.292969 19.347656 181.964844 19.699219 C 181.640625 20.046875 181.464844 20.488281 181.445312 21.027344 Z M 187.964844 21.601562 C 187.964844 22.273438 188.109375 22.835938 188.394531 23.289062 C 188.675781 23.742188 189.132812 23.96875 189.757812 23.96875 C 190.246094 23.96875 190.644531 23.757812 190.957031 23.339844 C 191.273438 22.917969 191.429688 22.316406 191.429688 21.53125 C 191.429688 20.738281 191.269531 20.152344 190.945312 19.773438 C 190.621094 19.394531 190.222656 19.203125 189.75 19.203125 C 189.21875 19.203125 188.789062 19.402344 188.457031 19.808594 C 188.125 20.214844 187.964844 20.8125 187.964844 21.601562 Z M 189.550781 18.28125 C 190.027344 18.28125 190.429688 18.382812 190.753906 18.585938 C 190.941406 18.703125 191.152344 18.910156 191.390625 19.203125 L 191.390625 16.035156 L 192.402344 16.035156 L 192.402344 24.664062 L 191.453125 24.664062 L 191.453125 23.792969 C 191.207031 24.179688 190.917969 24.457031 190.582031 24.628906 C 190.25 24.800781 189.867188 24.886719 189.433594 24.886719 C 188.734375 24.886719 188.132812 24.59375 187.621094 24.007812 C 187.113281 23.417969 186.855469 22.636719 186.855469 21.660156 C 186.855469 20.746094 187.089844 19.957031 187.550781 19.289062 C 188.019531 18.617188 188.683594 18.28125 189.550781 18.28125 Z M 193.960938 18.421875 L 195.03125 18.421875 L 195.03125 24.664062 L 193.960938 24.664062 Z M 193.960938 16.0625 L 195.03125 16.0625 L 195.03125 17.257812 L 193.960938 17.257812 Z M 196.835938 16.644531 L 197.898438 16.644531 L 197.898438 18.394531 L 198.898438 18.394531 L 198.898438 19.253906 L 197.898438 19.253906 L 197.898438 23.347656 C 197.898438 23.566406 197.972656 23.710938 198.121094 23.785156 C 198.203125 23.828125 198.339844 23.851562 198.527344 23.851562 L 198.691406 23.851562 L 198.898438 23.832031 L 198.898438 24.664062 C 198.777344 24.699219 198.648438 24.722656 198.515625 24.738281 C 198.390625 24.753906 198.25 24.761719 198.097656 24.761719 C 197.605469 24.761719 197.273438 24.636719 197.097656 24.390625 C 196.921875 24.136719 196.835938 23.808594 196.835938 23.40625 L 196.835938 19.253906 L 195.988281 19.253906 L 195.988281 18.394531 L 196.835938 18.394531 Z M 207.042969 15.828125 C 208.128906 15.828125 208.972656 16.117188 209.570312 16.6875 C 210.171875 17.261719 210.503906 17.914062 210.570312 18.644531 L 209.4375 18.644531 C 209.308594 18.089844 209.050781 17.652344 208.664062 17.328125 C 208.285156 17.003906 207.746094 16.84375 207.050781 16.84375 C 206.207031 16.84375 205.523438 17.140625 205 17.738281 C 204.484375 18.332031 204.226562 19.242188 204.226562 20.472656 C 204.226562 21.480469 204.457031 22.296875 204.925781 22.925781 C 205.398438 23.550781 206.097656 23.863281 207.027344 23.863281 C 207.886719 23.863281 208.539062 23.53125 208.984375 22.871094 C 209.222656 22.523438 209.402344 22.070312 209.519531 21.503906 L 210.652344 21.503906 C 210.550781 22.40625 210.214844 23.167969 209.644531 23.78125 C 208.964844 24.515625 208.046875 24.886719 206.890625 24.886719 C 205.890625 24.886719 205.054688 24.582031 204.378906 23.980469 C 203.484375 23.179688 203.039062 21.941406 203.039062 20.273438 C 203.039062 19.003906 203.375 17.964844 204.042969 17.152344 C 204.769531 16.269531 205.769531 15.828125 207.042969 15.828125 Z M 212.738281 22.996094 C 212.738281 23.300781 212.847656 23.539062 213.070312 23.714844 C 213.292969 23.890625 213.554688 23.980469 213.859375 23.980469 C 214.230469 23.980469 214.585938 23.894531 214.933594 23.722656 C 215.519531 23.4375 215.808594 22.96875 215.808594 22.320312 L 215.808594 21.472656 C 215.683594 21.554688 215.515625 21.625 215.3125 21.679688 C 215.117188 21.730469 214.917969 21.769531 214.71875 21.792969 L 214.082031 21.875 C 213.699219 21.929688 213.414062 22.007812 213.222656 22.117188 C 212.898438 22.300781 212.738281 22.59375 212.738281 22.996094 Z M 215.285156 20.863281 C 215.527344 20.832031 215.6875 20.730469 215.769531 20.558594 C 215.816406 20.464844 215.839844 20.332031 215.839844 20.15625 C 215.839844 19.796875 215.710938 19.539062 215.453125 19.375 C 215.199219 19.210938 214.835938 19.128906 214.359375 19.128906 C 213.8125 19.128906 213.421875 19.28125 213.191406 19.574219 C 213.0625 19.738281 212.980469 19.984375 212.941406 20.308594 L 211.960938 20.308594 C 211.980469 19.535156 212.230469 19 212.707031 18.699219 C 213.191406 18.394531 213.75 18.242188 214.382812 18.242188 C 215.121094 18.242188 215.71875 18.382812 216.179688 18.664062 C 216.632812 18.945312 216.863281 19.378906 216.863281 19.972656 L 216.863281 23.585938 C 216.863281 23.695312 216.882812 23.785156 216.925781 23.851562 C 216.96875 23.914062 217.066406 23.949219 217.210938 23.949219 L 217.371094 23.945312 L 217.558594 23.914062 L 217.558594 24.691406 L 217.183594 24.78125 C 217.097656 24.792969 216.980469 24.796875 216.832031 24.796875 C 216.46875 24.796875 216.207031 24.667969 216.042969 24.410156 C 215.957031 24.277344 215.898438 24.082031 215.863281 23.832031 C 215.648438 24.113281 215.339844 24.355469 214.9375 24.566406 C 214.539062 24.773438 214.097656 24.875 213.613281 24.875 C 213.03125 24.875 212.558594 24.699219 212.1875 24.347656 C 211.820312 23.992188 211.640625 23.550781 211.640625 23.019531 C 211.640625 22.4375 211.820312 21.984375 212.183594 21.667969 C 212.542969 21.347656 213.019531 21.148438 213.605469 21.074219 Z M 218.621094 18.394531 L 219.617188 18.394531 L 219.617188 19.476562 C 219.699219 19.265625 219.902344 19.011719 220.222656 18.710938 C 220.539062 18.40625 220.910156 18.253906 221.324219 18.253906 C 221.34375 18.253906 221.378906 18.253906 221.425781 18.257812 L 221.664062 18.28125 L 221.664062 19.394531 C 221.601562 19.382812 221.542969 19.375 221.488281 19.371094 L 221.320312 19.367188 C 220.789062 19.367188 220.382812 19.539062 220.097656 19.878906 C 219.8125 20.222656 219.671875 20.613281 219.671875 21.058594 L 219.671875 24.664062 L 218.621094 24.664062 Z M 223.242188 21.601562 C 223.242188 22.273438 223.382812 22.835938 223.667969 23.289062 C 223.953125 23.742188 224.40625 23.96875 225.035156 23.96875 C 225.519531 23.96875 225.921875 23.757812 226.234375 23.339844 C 226.546875 22.917969 226.707031 22.316406 226.707031 21.53125 C 226.707031 20.738281 226.542969 20.152344 226.21875 19.773438 C 225.898438 19.394531 225.5 19.203125 225.023438 19.203125 C 224.492188 19.203125 224.0625 19.402344 223.730469 19.808594 C 223.40625 20.214844 223.242188 20.8125 223.242188 21.601562 Z M 224.824219 18.28125 C 225.304688 18.28125 225.703125 18.382812 226.027344 18.585938 C 226.214844 18.703125 226.425781 18.910156 226.664062 19.203125 L 226.664062 16.035156 L 227.675781 16.035156 L 227.675781 24.664062 L 226.730469 24.664062 L 226.730469 23.792969 C 226.484375 24.179688 226.195312 24.457031 225.859375 24.628906 C 225.523438 24.800781 225.140625 24.886719 224.707031 24.886719 C 224.011719 24.886719 223.40625 24.59375 222.898438 24.007812 C 222.386719 23.417969 222.132812 22.636719 222.132812 21.660156 C 222.132812 20.746094 222.363281 19.957031 222.828125 19.289062 C 223.292969 18.617188 223.960938 18.28125 224.824219 18.28125 Z M 224.824219 18.28125 "/>
</g>
</svg>
