<?xml version="1.0" encoding="UTF-8"?>
<svg xmlns="http://www.w3.org/2000/svg" xmlns:xlink="http://www.w3.org/1999/xlink" width="342px" height="42px" viewBox="0 0 339 42" version="1.1">
<g id="surface1">
<path style=" stroke:none;fill-rule:nonzero;fill:rgb(100%,76.862745%,22.352941%);fill-opacity:1;" d="M 2.328125 4.679688 C 2.328125 3.203125 3.511719 2.015625 4.984375 2.015625 L 332.019531 2.015625 C 333.492188 2.015625 334.679688 3.203125 334.679688 4.679688 L 334.679688 35.988281 C 334.679688 37.464844 333.492188 38.652344 332.019531 38.652344 L 4.984375 38.652344 C 3.511719 38.652344 2.328125 37.464844 2.328125 35.988281 Z M 2.328125 4.679688 "/>
<path style=" stroke:none;fill-rule:evenodd;fill:rgb(0%,61.176471%,87.058824%);fill-opacity:1;" d="M 194.328125 13.640625 L 192.597656 25.128906 C 192.566406 25.363281 192.730469 25.5625 192.929688 25.5625 L 194.660156 25.5625 C 194.957031 25.5625 195.191406 25.328125 195.222656 25.0625 L 196.917969 13.804688 C 196.953125 13.574219 196.785156 13.371094 196.585938 13.371094 L 194.625 13.371094 C 194.492188 13.339844 194.359375 13.472656 194.328125 13.640625 Z M 188.84375 21.433594 C 188.644531 22.597656 187.679688 23.398438 186.484375 23.398438 C 185.886719 23.398438 185.386719 23.199219 185.089844 22.832031 C 184.789062 22.464844 184.65625 21.964844 184.753906 21.398438 C 184.957031 20.234375 185.917969 19.433594 187.082031 19.433594 C 187.679688 19.433594 188.144531 19.632812 188.476562 20 C 188.777344 20.332031 188.910156 20.867188 188.84375 21.433594 Z M 191.734375 17.4375 L 189.640625 17.4375 C 189.476562 17.4375 189.308594 17.570312 189.277344 17.734375 L 189.175781 18.300781 L 189.042969 18.101562 C 188.578125 17.46875 187.582031 17.234375 186.582031 17.234375 C 184.289062 17.234375 182.296875 18.933594 181.929688 21.367188 C 181.730469 22.566406 182.03125 23.699219 182.695312 24.496094 C 183.328125 25.230469 184.257812 25.53125 185.320312 25.53125 C 187.183594 25.53125 188.210938 24.363281 188.210938 24.363281 L 188.113281 24.929688 C 188.078125 25.128906 188.246094 25.328125 188.476562 25.328125 L 190.371094 25.328125 C 190.671875 25.328125 190.9375 25.128906 190.972656 24.832031 L 192.101562 17.835938 C 192.132812 17.636719 191.96875 17.4375 191.734375 17.4375 Z M 179.46875 17.46875 C 179.238281 19.035156 178.007812 19.035156 176.84375 19.035156 L 176.179688 19.035156 L 176.644531 16.105469 C 176.679688 15.9375 176.84375 15.804688 177.011719 15.804688 L 177.308594 15.804688 C 178.109375 15.804688 178.871094 15.804688 179.269531 16.269531 C 179.503906 16.503906 179.570312 16.902344 179.46875 17.46875 Z M 178.972656 13.339844 L 174.519531 13.339844 C 174.21875 13.339844 173.953125 13.574219 173.921875 13.839844 L 172.125 25.097656 C 172.09375 25.328125 172.257812 25.53125 172.492188 25.53125 L 174.785156 25.53125 C 174.984375 25.53125 175.183594 25.363281 175.214844 25.164062 L 175.714844 21.964844 C 175.75 21.667969 176.015625 21.464844 176.3125 21.464844 L 177.710938 21.464844 C 180.632812 21.464844 182.328125 20.066406 182.761719 17.304688 C 182.960938 16.105469 182.761719 15.136719 182.195312 14.472656 C 181.566406 13.738281 180.433594 13.339844 178.972656 13.339844 Z M 178.972656 13.339844 "/>
<path style=" stroke:none;fill-rule:evenodd;fill:rgb(0%,18.823529%,52.941176%);fill-opacity:1;" d="M 171.761719 17.234375 L 169.632812 17.234375 C 169.433594 17.234375 169.234375 17.335938 169.132812 17.503906 L 166.175781 21.699219 L 164.914062 17.667969 C 164.847656 17.402344 164.582031 17.234375 164.316406 17.234375 L 162.222656 17.234375 C 161.957031 17.234375 161.789062 17.46875 161.855469 17.703125 L 164.214844 24.398438 L 162.023438 27.429688 C 161.855469 27.660156 162.054688 27.996094 162.355469 27.996094 L 164.480469 27.996094 C 164.679688 27.996094 164.878906 27.894531 164.980469 27.726562 L 172.058594 17.800781 C 172.226562 17.570312 172.058594 17.234375 171.761719 17.234375 Z M 157.636719 21.433594 C 157.4375 22.597656 156.472656 23.398438 155.277344 23.398438 C 154.679688 23.398438 154.179688 23.199219 153.878906 22.832031 C 153.582031 22.464844 153.449219 21.964844 153.546875 21.398438 C 153.746094 20.234375 154.710938 19.433594 155.875 19.433594 C 156.472656 19.433594 156.9375 19.632812 157.269531 20 C 157.601562 20.332031 157.734375 20.867188 157.636719 21.433594 Z M 160.527344 17.4375 L 158.433594 17.4375 C 158.265625 17.4375 158.101562 17.570312 158.066406 17.734375 L 157.96875 18.300781 L 157.867188 18.101562 C 157.402344 17.46875 156.40625 17.234375 155.410156 17.234375 C 153.113281 17.234375 151.121094 18.933594 150.753906 21.367188 C 150.554688 22.566406 150.855469 23.699219 151.519531 24.496094 C 152.152344 25.230469 153.082031 25.53125 154.144531 25.53125 C 156.007812 25.53125 157.035156 24.363281 157.035156 24.363281 L 156.9375 24.929688 C 156.902344 25.128906 157.070312 25.328125 157.300781 25.328125 L 159.195312 25.328125 C 159.496094 25.328125 159.761719 25.128906 159.796875 24.832031 L 160.925781 17.835938 C 160.925781 17.636719 160.757812 17.4375 160.527344 17.4375 Z M 148.261719 17.46875 C 148.03125 19.035156 146.800781 19.035156 145.636719 19.035156 L 144.972656 19.035156 L 145.4375 16.105469 C 145.472656 15.9375 145.636719 15.804688 145.804688 15.804688 L 146.101562 15.804688 C 146.898438 15.804688 147.664062 15.804688 148.0625 16.269531 C 148.296875 16.503906 148.363281 16.902344 148.261719 17.46875 Z M 147.765625 13.339844 L 143.3125 13.339844 C 143.011719 13.339844 142.777344 13.574219 142.710938 13.839844 L 140.917969 25.128906 C 140.882812 25.363281 141.050781 25.5625 141.285156 25.5625 L 143.410156 25.5625 C 143.710938 25.5625 143.976562 25.328125 144.007812 25.0625 L 144.507812 22.03125 C 144.539062 21.734375 144.804688 21.53125 145.105469 21.53125 L 146.5 21.53125 C 149.425781 21.53125 151.121094 20.132812 151.554688 17.371094 C 151.753906 16.171875 151.554688 15.203125 150.988281 14.539062 C 150.355469 13.738281 149.261719 13.339844 147.765625 13.339844 Z M 147.765625 13.339844 "/>
</g>
</svg>
